<?xml version="1.0" encoding="UTF-8"?>
<!DOCTYPE svg PUBLIC "-//W3C//DTD SVG 1.1//EN" "http://www.w3.org/Graphics/SVG/1.1/DTD/svg11.dtd">
<!-- Creator: CorelDRAW 2020 (64-Bit) -->
<svg xmlns="http://www.w3.org/2000/svg" xml:space="preserve" width="2110px" height="3182px" version="1.1" style="shape-rendering:geometricPrecision; text-rendering:geometricPrecision; image-rendering:optimizeQuality; fill-rule:evenodd; clip-rule:evenodd"
viewBox="0 0 118 178"
 xmlns:xlink="http://www.w3.org/1999/xlink"
 xmlns:xodm="http://www.corel.com/coreldraw/odm/2003">
 <defs>
  <style type="text/css">
   <![CDATA[
    .str0 {stroke:#E6E6E6;stroke-width:0;stroke-miterlimit:22.9256}
    .str1 {stroke:white;stroke-width:0;stroke-miterlimit:22.9256}
    .fil4 {fill:none}
    .fil9 {fill:black}
    .fil17 {fill:#000200}
    .fil19 {fill:#000500}
    .fil7 {fill:#020202}
    .fil24 {fill:#050101}
    .fil21 {fill:#050504}
    .fil8 {fill:#056739}
    .fil6 {fill:#056839}
    .fil23 {fill:#070708}
    .fil37 {fill:#096628}
    .fil38 {fill:#0A6A34}
    .fil15 {fill:#3AB249}
    .fil12 {fill:#3AB24E}
    .fil13 {fill:#41B44C}
    .fil14 {fill:#44B548}
    .fil16 {fill:#4DAE50}
    .fil20 {fill:#58A747}
    .fil2 {fill:#5A5A5A}
    .fil22 {fill:#68B649}
    .fil25 {fill:#6FB64F}
    .fil26 {fill:#70B43A}
    .fil28 {fill:#85C443}
    .fil29 {fill:#86C849}
    .fil36 {fill:#89908C}
    .fil31 {fill:#8A9995}
    .fil30 {fill:#939495}
    .fil32 {fill:#95989A}
    .fil1 {fill:#BABABA}
    .fil3 {fill:#CCCCCC}
    .fil18 {fill:#CED1D2}
    .fil10 {fill:#D0D2D4}
    .fil27 {fill:#D1D2D2}
    .fil0 {fill:#E6E6E6}
    .fil39 {fill:#F0DC32}
    .fil35 {fill:#F5DA17}
    .fil33 {fill:#F8DC26}
    .fil34 {fill:#FBE21A}
    .fil11 {fill:#FEDD1A}
    .fil5 {fill:white}
   ]]>
  </style>
      <clipPath id="id0">
       <path d="M1 57l116 0 0 119 -116 0 0 -119z"/>
      </clipPath>
 </defs>
 <g id="Capa_x0020_1">
  <metadata id="CorelCorpID_0Corel-Layer"/>
  <g id="_1338566939568">
   <g>
    <rect class="fil0" x="15" y="3" width="2" height="53"/>
    <path class="fil0" d="M15 57l2 0c0,0 0,0 0,0l0 -12c0,0 0,-1 -1,-1l-2 0c0,0 -1,0 -1,1l0 12c0,0 0,0 0,0l0 0z"/>
    <circle class="fil0 str0" cx="16" cy="3" r="3"/>
   </g>
   <g>
    <g>
     <g>
     </g>
     <g style="clip-path:url(#id0)">
      <g>
       <polygon class="fil1" points="103,68 119,55 120,180 103,169 "/>
       <polygon class="fil2" points="-1,55 15,67 103,68 119,55 "/>
       <polygon class="fil2" points="15,67 15,169 -1,178 -1,55 "/>
       <polygon class="fil1" points="15,169 -1,178 0,178 119,179 104,169 "/>
       <rect class="fil3" x="15" y="67" width="89" height="102"/>
      </g>
     </g>
     <polygon class="fil4 str1" points="1,57 117,57 117,177 1,177 "/>
     <path class="fil5" d="M0 56l118 0 0 123 -118 0 0 -123zm4 111l4 0c2,0 4,2 4,4l0 4 95 0 0 -4c0,-2 2,-4 4,-4l4 0 0 -99 -3 0c-2,0 -4,-2 -4,-4l0 -4 -95 0 0 4c0,2 -2,4 -4,4l-4 0 0 99zm3 6c-1,0 -2,-1 -2,-2 0,-1 1,-2 2,-2 1,0 2,1 2,2 0,1 -1,2 -2,2zm103 0c1,0 2,-1 2,-2 0,-1 -1,-2 -2,-2 -1,0 -2,1 -2,2 0,1 1,2 2,2zm-103 -111c-1,0 -2,1 -2,2 0,1 1,2 2,2 1,0 2,-1 2,-2 0,-1 -1,-2 -2,-2zm103 0c1,0 2,1 2,2 0,1 -1,2 -2,2 -1,0 -2,-1 -2,-2 0,-1 1,-2 2,-2z"/>
    </g>
    <rect class="fil6" x="27" y="87" width="68" height="68"/>
    <path class="fil7" d="M56 128c0,-1 1,-1 1,0 0,1 -1,1 -1,0zm-1 0c-1,0 -1,-1 0,-1l0 0c0,0 0,0 0,1zm-2 0c-1,1 -1,-1 0,-1 0,1 0,0 0,1zm-2 0c0,0 -1,0 -1,-1 0,-1 1,0 1,1zm-2 0c-1,0 -1,0 -1,-1 0,0 1,0 1,1zm-2 0c0,0 -1,0 -1,0 0,0 1,-1 1,0zm-2 -1c1,0 1,0 1,1 0,0 -1,0 -1,-1zm-2 0c0,0 1,0 1,0 0,0 -1,0 -1,0zm-1 0c1,0 1,1 0,1 -1,0 -1,0 0,-1zm-2 0l1 0c0,1 -1,1 -1,0zm13 -1l0 0c0,-1 0,-1 1,-1 0,0 0,1 0,1zm-2 -1c0,0 0,0 0,0 0,0 0,0 0,1 0,0 -1,1 -1,0zm-1 0c0,0 -1,0 -1,0 0,0 1,0 1,0zm-7 0c0,-1 1,-1 1,0 0,1 -1,1 -1,0zm-1 0c0,0 0,0 1,0 0,1 -1,1 -1,0zm-1 0c0,0 -1,0 -1,0 0,0 1,0 1,0zm7 0c0,-1 1,-1 1,0 0,1 -1,1 -1,0zm-1 0l1 0c1,1 -1,1 -1,0zm-1 1c-1,0 -1,0 -1,-1 0,0 1,0 1,1zm8 -1l0 0c1,0 1,1 0,1 0,0 0,0 0,0zm-14 0c0,0 0,0 0,1 0,0 0,0 -1,0 0,0 0,-1 1,-1zm12 -1c-1,0 -1,0 0,-1 0,0 0,0 1,0 0,0 0,1 0,1zm-1 -1c0,1 0,1 -1,1 0,0 0,-1 1,-1zm-1 1c0,0 -1,0 -1,-1 0,-1 1,0 1,1zm-2 0l-1 0c-1,-1 1,-1 1,0zm-1 0c-1,0 -1,0 -1,-1 0,0 1,0 1,1zm-2 -1c1,0 0,1 0,1 0,0 -1,-1 0,-1zm-2 1c0,-1 1,-1 1,0 0,1 -1,1 -1,0zm-1 0c0,1 -1,1 -1,0 0,0 0,-1 1,0zm12 0c0,0 -1,0 -1,0 0,0 1,0 1,0zm1 -1l0 0c1,0 1,0 1,1 -1,0 -1,0 -1,0zm-14 0c0,1 0,1 -1,1 0,-1 0,-1 1,-1zm3 -1l0 -5c0,-1 0,-1 0,-1 0,0 4,0 5,0 2,0 1,0 1,4 0,1 0,1 0,2 0,2 0,1 -6,1 -1,0 -1,0 -1,0zm9 -1c0,0 0,0 1,0 0,1 0,1 -1,0 0,0 0,0 0,-1zm-1 1l0 0c-1,-1 1,-1 0,0zm-9 0l-1 0c-1,-1 0,-1 1,-1 0,0 0,0 0,0zm-2 -1c1,0 1,0 1,0 0,0 -1,0 -1,0zm14 0c-1,0 -1,0 -1,-1 0,0 1,0 1,1zm-15 -1c0,1 0,1 -1,1 0,-1 0,-1 1,-1zm12 -1c0,0 1,0 1,0 0,0 -1,0 -1,0zm-1 1c0,0 -1,0 -1,-1 1,0 1,0 1,1zm-10 0c0,-1 0,-1 1,-1 0,0 0,1 -1,1zm-1 0c-1,0 -1,-1 0,-1 0,1 0,1 0,1zm12 -1c0,0 0,0 1,0 0,0 0,1 0,1 0,0 0,0 -1,0zm-15 0c1,0 1,0 1,1 0,0 0,0 -1,0l0 -1zm14 -1c0,1 0,1 -1,1 0,0 0,-1 1,-1zm-12 1c-1,0 -1,0 -1,-1 1,0 1,0 1,1zm10 -1l0 0c1,1 -1,1 0,0zm-9 0c1,0 1,1 0,1 0,0 -1,0 0,-1zm12 -1c0,1 0,1 -1,1 0,0 0,-1 1,-1zm-15 0c1,0 1,0 1,1 -1,0 -1,0 -1,-1zm2 0c-1,0 -1,0 -1,-1 0,0 1,0 1,1zm12 0c0,0 -1,0 -1,0 0,0 1,0 1,0zm-1 -1c0,1 0,1 -1,1 0,-1 0,-1 1,-1zm-10 0c1,0 1,0 1,1 -1,0 -1,0 -1,-1zm12 0c0,-1 0,-1 1,-1 0,1 0,1 -1,1zm-15 -1c0,0 1,0 1,1 -1,0 -1,0 -1,-1zm13 -1c1,0 1,1 0,1 0,0 0,0 -1,0 0,0 0,0 0,0zm-11 1c0,0 -1,0 -1,0 0,0 1,-1 1,0zm10 -1c0,0 1,0 0,1 0,0 0,0 -1,0 0,0 0,0 0,-1zm-8 0c0,0 0,1 -1,1 0,0 0,-1 1,-1zm11 -1c0,0 1,0 1,1 0,0 -1,0 -1,-1zm-14 1c-1,0 -1,-1 -1,-1 0,0 1,0 1,1zm13 0c-1,1 -1,-1 0,-1l0 1zm-2 0c-1,0 -1,-1 0,-1 1,0 1,0 0,1zm-3 -1c0,1 0,1 -1,1 0,0 0,-1 1,-1zm-4 0c1,0 1,0 0,1 0,0 -1,0 0,-1zm-1 0c0,0 1,0 1,1 0,0 -1,0 -1,-1zm-3 1c0,-1 1,-1 1,0 0,1 0,1 -1,0zm9 -1c1,0 1,0 1,1 0,0 -1,0 -1,-1zm-2 0c1,1 -1,1 -1,0l1 0zm-5 1c-1,0 -1,0 0,-1 1,0 1,0 0,1zm11 -1c0,-1 1,-1 1,0 0,0 0,0 -1,0zm-14 0c-1,0 -1,0 -1,-1 1,0 1,0 1,1zm12 -1c0,1 -1,1 -1,0 0,0 0,-1 1,0zm-9 0c0,0 1,0 0,1 0,0 -1,0 0,-1zm10 1c0,-1 0,-1 1,-1 0,1 0,1 -1,1zm-2 0c0,0 -1,0 -1,0 0,0 1,0 1,0zm-2 0c-1,0 -1,0 -1,-1 0,0 1,0 1,1zm-2 0c0,-1 0,-1 1,-1 0,0 0,1 -1,1zm-1 0c0,-1 0,-1 1,-1 0,1 0,1 -1,1zm-1 0c0,-1 0,-1 1,-1 0,1 0,1 -1,1zm-2 0c-1,0 -1,0 -1,-1 0,0 1,0 1,1zm13 -1c-1,0 -1,-1 0,-1 1,0 1,0 0,1zm-2 0c0,-1 1,-1 1,0l-1 0zm-1 0c-1,0 -1,0 -1,-1 0,0 1,0 1,1zm-2 -1c0,1 0,1 -1,1 0,0 0,-1 1,-1zm-2 0c0,0 0,0 1,0 0,0 0,0 0,1 -1,0 -1,0 -1,-1zm-2 1c0,-1 0,-1 1,-1 0,1 0,1 -1,1zm-2 0c0,-1 0,-1 1,-1 0,0 0,1 -1,1zm-2 -1c1,0 1,0 0,1 0,0 -1,0 0,-1zm-2 0c1,0 1,0 0,1 0,0 -1,0 0,-1zm-2 1c-1,-1 1,-1 1,0l-1 0zm-1 1c0,4 0,9 0,13 0,1 1,1 4,1l10 0c3,0 3,1 3,-4l0 -11c0,-1 0,-1 -2,-1l-13 0c-2,0 -1,0 -1,2z"/>
    <path class="fil8" d="M34 98c0,0 0,-2 0,-2 0,-1 1,-1 1,0 0,0 0,2 0,2 0,1 -1,1 -1,0zm-1 0c0,0 0,0 -1,0 0,0 0,0 0,-1 0,-1 0,-2 0,-3l0 0c1,0 1,0 1,1 0,0 0,2 0,2zm3 -9c0,0 1,0 1,1 0,1 0,1 -1,1 -1,0 -1,0 -1,-1l-2 0c-2,0 -1,0 -1,0 0,0 -1,0 -1,0 0,-1 0,-1 0,-1 1,0 1,0 2,0l2 0c1,0 1,0 1,-1zm-4 -1c0,0 0,1 -1,0 -1,0 -1,-2 0,-2 1,0 0,0 1,0l3 0c1,-2 2,1 1,1 -1,0 0,0 -1,-1l-3 0zm-5 10l0 4 8 0c1,0 1,0 1,0 1,-1 1,-1 1,-2 0,-4 0,-8 0,-12l-7 0c0,2 0,5 0,7 0,5 1,4 -3,4z"/>
    <path class="fil9" d="M87 123l0 1 0 0 0 1 0 0 0 1 0 0 0 1 0 2 0 0 0 1c0,1 0,1 3,1 2,0 3,0 2,-1l0 -1 0 0 0 -1 0 0 0 -1 0 0 0 -1 0 0 0 -1 0 0 0 -1c0,-1 0,-1 -1,-1 -1,0 -4,0 -4,0l0 1z"/>
    <path class="fil10" d="M88 90l0 4c0,1 0,1 0,1 0,0 0,0 1,0 1,0 2,0 2,0 1,0 2,0 2,0 1,-1 1,-1 1,-2 0,-1 0,-2 0,-2 0,-1 0,-1 -1,-2 0,0 -2,0 -2,0 -1,0 -2,0 -2,0 -1,0 0,0 -1,0 0,0 0,0 0,1z"/>
    <path class="fil11" d="M50 120l1 0c0,1 0,2 1,2 0,0 0,-1 0,-2l1 0c0,1 0,2 -1,2 -1,0 -1,-1 -1,-2zm-1 1l0 1 -1 0 0 -2c1,0 2,0 2,0 0,1 0,1 -1,1zm-1 0l0 0c0,1 -2,1 -2,0 0,-1 2,-2 2,-1 0,0 -1,0 -1,0 0,0 -1,0 -1,0 0,0 0,1 0,1 0,0 0,0 1,0zm-2 3c0,1 1,0 1,0 6,0 6,1 6,-1 0,-1 0,-1 0,-2 0,-4 0,-4 -1,-4 -1,0 -5,0 -5,0 -1,0 0,1 0,1l0 5z"/>
    <path class="fil9" d="M40 102l1 0 1 0 1 0 1 0 1 0 1 0 1 0 1 0c0,0 0,-4 0,-4l-1 0 -1 0 -1 0 -1 0 -1 0 -1 0 -1 0 -1 0 -1 0c0,0 0,4 0,4l1 0z"/>
    <path class="fil9" d="M77 116c0,0 5,0 5,0 0,0 0,0 0,0l0 0c0,0 0,0 0,0l0 -5c0,0 0,-1 0,-1l0 -1c0,0 0,0 0,0l-1 0c0,0 -4,0 -5,0 0,0 0,1 0,1 0,1 0,1 0,2 0,0 0,3 0,3z"/>
    <path class="fil12" d="M53 131l-1 0c0,4 0,3 1,5 2,2 1,1 3,1l6 0c1,0 1,-1 2,-2 1,-1 1,-1 2,-2 1,-1 1,-1 2,-2 0,0 0,-1 1,-1 0,0 1,0 1,0 1,0 0,0 1,0 1,0 7,0 7,0 0,0 4,4 4,4l13 0 0 -1c-4,0 -7,0 -11,0 -3,0 -2,0 -3,-1l-2 -2c0,0 0,0 -1,-1l-1 -1c0,0 -5,0 -5,0 -1,0 -2,0 -3,0 -2,0 -1,0 -2,1l-4 4c0,0 0,0 -1,1 0,0 0,0 -1,1 -1,0 -2,0 -4,0 -1,0 -3,0 -4,0 0,0 -2,-2 -2,-2 0,0 0,-3 0,-3z"/>
    <path class="fil9" d="M45 88l0 1 0 1 0 1 0 1 0 1 0 1c0,0 4,0 4,0 0,0 0,-1 0,-1l0 -1 0 -1 0 -1 0 -1 0 -1 0 -1 -4 0 0 1z"/>
    <path class="fil9" d="M70 102l0 -5c0,0 -5,0 -5,0 0,0 0,5 0,5l4 0c0,0 1,0 1,0z"/>
    <path class="fil10" d="M86 97c0,1 0,1 1,1l2 -2c1,0 0,0 2,0l5 0c0,0 0,0 1,0l0 -1c0,0 0,1 -1,1l-4 0c-1,0 -1,0 -1,0 -1,-1 -1,-1 -1,-4 0,-3 0,-2 1,-4 0,0 1,0 1,0 1,0 2,0 3,0 3,0 1,0 2,1l0 -1c0,0 0,0 -1,0l-3 0c-3,0 -2,0 -3,1 -1,1 -1,1 -1,1l0 4c0,0 0,1 0,1 0,1 0,0 0,1l-2 2z"/>
    <path class="fil12" d="M82 129l0 -1c-2,0 -9,0 -11,0 -1,0 -2,0 -3,0 -1,0 -1,0 -1,0 0,0 0,0 -1,1l-4 4c-1,1 -1,1 -2,1 -4,0 -3,0 -4,-1 -1,-1 -1,-1 -1,-2 0,-1 0,0 0,-1 0,0 0,-1 0,-1 -1,0 -1,0 -1,1 0,1 0,0 0,2 0,2 0,1 1,3l0 0c1,1 0,1 1,1 1,0 3,0 4,0 0,0 4,-4 5,-5 1,-1 1,-1 2,-1 4,0 9,0 13,0z"/>
    <path class="fil9" d="M27 88c0,0 1,1 1,2l0 6c0,0 -1,1 -1,1l0 2c3,0 3,1 3,-4 0,-2 0,-5 0,-7l-3 0 0 1z"/>
    <path class="fil12" d="M74 92c0,2 0,5 0,7 0,4 1,3 -2,5l-1 1c0,0 -1,1 -1,1l-11 0c0,0 0,0 0,0 -1,0 -2,0 -2,0l-3 3 0 1 1 0c0,-1 0,0 0,-1l1 -1c0,0 1,0 1,-1 0,0 0,0 1,-1 0,0 13,0 13,0 1,0 1,0 1,0 0,-1 0,0 1,-1 0,0 0,0 0,0l2 -2c1,-1 1,-1 1,-2 0,-2 0,-3 0,-5 0,-1 0,-4 0,-5l-1 0z"/>
    <path class="fil12" d="M90 152l1 0c0,-1 0,-2 0,-2 0,-1 0,-1 -1,-2 0,0 -2,-2 -2,-2 -1,0 -2,0 -4,0 -1,0 -2,0 -4,0 -2,0 -5,0 -7,0 -2,0 -1,0 -2,1 -1,1 -2,1 -2,2 0,1 0,6 0,7l1 0 0 -7c0,-1 0,-1 1,-1 1,-1 1,-1 2,-1 3,0 7,0 10,0 1,0 3,0 4,0 0,0 0,0 1,0l1 1c1,1 1,1 1,2 0,1 0,1 0,2z"/>
    <path class="fil13" d="M58 116c0,0 1,0 1,0 0,0 0,0 0,0 0,0 0,0 0,0 0,0 0,0 0,0l14 0c0,0 1,1 1,1 2,1 3,3 5,5 0,0 1,1 1,1 1,1 0,0 1,1 0,0 1,1 1,0 0,0 0,-1 0,-1 0,0 0,0 -1,0 0,0 0,0 0,0l-7 -7c-1,-1 -1,-1 -2,-1 -2,0 -13,0 -13,0 0,0 0,0 -1,0 -1,0 -1,1 -1,1z"/>
    <path class="fil7" d="M86 97l2 -2c0,0 0,0 0,-1 0,0 0,-1 0,-1l0 -4c0,-1 0,-1 1,-1 1,-1 0,-1 3,-1l3 0c0,0 1,0 1,0l0 0 -10 0 0 9c0,0 0,1 0,1z"/>
    <path class="fil13" d="M55 112c1,0 1,0 1,0 0,0 0,-1 0,-1 0,0 0,0 0,-1 0,0 1,0 1,-1 0,0 0,-1 1,-1l17 0c1,0 1,0 2,0 1,0 0,0 1,0 0,0 0,0 1,0 1,0 1,-2 0,-2 -1,0 1,0 -3,0 -1,0 -1,0 -1,0 -1,0 -13,0 -15,0 -1,0 -1,0 -2,1 -1,1 0,1 -1,1 0,0 -1,0 0,1z"/>
    <path class="fil9" d="M49 146c-1,0 -1,0 -2,0 -2,0 -2,0 -2,1 0,0 0,1 0,2l5 0c0,0 0,-3 0,-3l-2 0z"/>
    <path class="fil9" d="M60 146c0,0 0,0 -1,0l-3 0c-2,0 -2,0 -2,1 0,2 -1,2 4,2 0,0 2,0 2,0 0,0 0,0 0,0 0,0 0,-1 0,-1 0,-1 0,-1 0,-1z"/>
    <path class="fil9" d="M32 113l1 0 1 0 1 0 1 0 1 0 2 0 0 -3 0 0 -1 0 -1 0 -1 0 -1 0 -1 0 -1 0 -1 0c0,0 0,0 0,1 0,1 0,1 0,2l0 0z"/>
    <path class="fil14" d="M60 122l3 0c0,0 1,1 1,1 2,2 1,2 5,2 3,0 6,0 9,0l0 0c0,1 1,0 2,0 0,0 0,-1 -1,-1 -1,0 -1,0 -1,0l-11 0c-1,0 -1,0 -2,-1 0,0 -1,-1 -1,-1 -1,-1 -1,0 -2,0 -1,0 -2,0 -3,0 0,0 0,0 0,0 0,0 -1,0 -1,1 0,0 1,1 1,1 1,0 0,0 1,0z"/>
    <path class="fil12" d="M83 144l0 -1c-1,0 -9,0 -11,0 -1,0 -1,0 -2,0l-3 3c0,0 -2,2 -2,2 0,0 0,6 0,7l1 0c0,-1 0,-6 0,-7 0,0 1,-1 1,-1l3 -3c1,-1 1,-1 3,-1l10 0z"/>
    <path class="fil12" d="M27 138c2,0 2,0 3,1 0,0 1,0 1,1 0,1 0,1 0,2 0,1 0,6 0,7 0,0 1,1 2,2 1,1 1,1 3,1 2,0 6,0 7,0l0 -1c-2,0 -5,0 -7,0 -2,0 -1,0 -2,-1 -1,-1 -1,-1 -1,-2 0,-2 0,-5 0,-7 0,-1 0,-1 0,-2 0,0 -1,-1 -1,-1 -1,-1 0,-1 -3,-1l0 1z"/>
    <path class="fil14" d="M58 118c1,0 1,0 1,0 0,0 1,0 1,0l11 0c1,0 1,0 1,0l3 3c1,1 0,0 1,2 1,0 1,0 1,0 0,0 0,-1 0,-1 -1,-1 -1,0 -1,0l-4 -4c0,0 0,0 -1,0 -2,0 -4,0 -6,0l-6 0c0,0 0,0 -1,0 -1,0 -1,0 -1,1 0,0 0,0 1,1z"/>
    <path class="fil12" d="M33 144c0,1 0,0 0,1 1,0 6,0 7,0 1,0 3,0 3,0l2 -2c1,-1 1,-1 1,-2l0 -10 -1 0c0,0 0,9 0,10 0,1 0,1 0,1 0,0 -2,2 -3,2 -1,0 -8,0 -9,0z"/>
    <path class="fil15" d="M27 102l0 1 8 0c1,0 1,0 2,-1 0,0 1,0 0,-1 0,-4 0,-9 0,-13l-1 0c0,4 0,8 0,12 0,1 0,1 -1,2 0,0 -1,0 -1,0l-8 0z"/>
    <path class="fil12" d="M27 108c3,0 6,0 9,0 2,0 3,0 5,0 1,0 1,0 2,0 0,0 1,1 1,1 0,1 0,0 0,1 0,1 0,1 0,1 0,0 1,0 1,0 0,0 0,0 0,0 0,-1 0,-1 0,-1 0,-1 0,-1 0,-1 -3,-2 -1,-2 -7,-2 -3,0 -7,0 -10,0l0 1z"/>
    <path class="fil14" d="M63 125c-1,0 -1,1 0,2 1,0 1,0 1,-1l15 0c1,1 2,0 2,0 0,0 0,-1 0,-1 -1,0 -1,0 -1,0l-15 0c0,0 0,0 0,0 0,0 0,0 0,0 0,0 0,0 -1,0z"/>
    <path class="fil14" d="M80 98c0,0 1,1 1,1 0,0 1,1 1,1 2,0 10,0 10,0 1,0 0,0 1,0 1,0 1,-1 1,-1 -1,0 -1,0 -1,0 -3,0 -7,0 -10,0 -1,0 -1,0 -2,-1 -1,-1 -1,-1 -1,-1 0,0 0,-1 0,-1 -1,-1 -2,2 0,1z"/>
    <path class="fil12" d="M86 119l1 0 0 -11c0,0 1,-1 1,-1 1,-1 1,-1 2,-1 2,0 3,0 5,0l0 -1c-2,0 -4,0 -5,0 -1,0 -1,0 -1,0 0,0 0,0 -1,1 0,0 0,0 -1,1 0,0 -1,1 -1,1 0,0 0,10 0,11z"/>
    <path class="fil9" d="M86 98c0,0 7,0 8,0l0 -2c0,0 0,0 -1,0l-5 0c-1,0 -1,0 -2,0l-2 2z"/>
    <path class="fil9" d="M95 155l0 -1 -7 0c-2,0 -2,0 -2,1l10 0z"/>
    <path class="fil13" d="M56 87l-1 0 0 10c0,1 0,1 1,2 1,1 1,1 3,1 0,0 0,1 1,0 1,0 1,-2 0,-2 0,0 0,0 -1,0 0,0 0,0 0,0 -3,0 -2,0 -3,-1 -1,-1 -1,-1 -1,-3 0,-3 0,-5 0,-8z"/>
    <path class="fil14" d="M50 130c-1,-1 -2,1 -1,1 0,0 0,0 0,0l0 12c-1,1 -1,0 0,1 1,0 1,0 1,0 0,-1 0,-1 0,-1l0 -12c0,0 0,0 1,-1 0,0 0,-1 0,-1z"/>
    <path class="fil14" d="M44 131c0,0 0,0 0,0l0 0c0,-1 -2,-1 -1,0 0,0 0,0 0,1l0 8c0,1 0,1 0,1 -2,2 0,1 -2,1 0,1 0,2 1,1 1,0 0,-1 1,-1 1,-1 2,-1 2,-2 0,-3 0,-7 0,-9z"/>
    <path class="fil7" d="M88 90c0,0 0,-1 0,-1 0,0 0,0 1,0 1,0 2,0 2,0 1,0 2,0 2,0 1,1 1,1 1,2 0,1 0,2 0,2 0,1 0,1 -1,2 0,0 -2,0 -2,0 -1,0 -2,0 -2,0 -1,0 -1,0 -1,0 0,0 0,0 0,-1l0 -4zm7 5l0 -6c-1,-1 0,-1 -2,-1 -1,0 -2,0 -3,0 -1,0 -1,0 -1,0 -1,1 -1,1 -1,4 0,3 0,2 1,4 0,0 1,0 1,0l4 0c0,0 1,0 1,-1z"/>
    <path class="fil14" d="M60 96l9 0c1,0 0,1 1,1 1,0 1,-2 0,-2 -1,0 0,0 -1,0l-9 0c-1,0 -1,0 -1,0 -1,-1 -2,1 -1,1 1,0 1,0 1,0z"/>
    <path class="fil9" d="M92 113l1 0 2 0 0 -3 -1 0 -1 0 -1 0 -1 0c0,0 0,0 0,1 0,0 0,1 0,2l0 0z"/>
    <path class="fil13" d="M27 121c1,0 2,0 4,0 1,0 1,1 2,2 0,0 1,0 2,0 1,0 4,0 5,0 0,0 0,0 1,0 1,0 2,-1 1,-1 0,0 0,0 -1,0 0,0 -1,0 -1,1 -2,0 -3,0 -5,0 -1,0 -1,0 -2,-1 0,0 -1,-1 -1,-1l-4 0 0 1z"/>
    <path class="fil16" d="M48 131c1,-1 -1,-2 -1,-1 0,1 0,1 0,1l0 7c0,0 0,0 0,0 -1,1 1,2 1,1 0,-1 0,-1 -1,-1 0,-2 0,-4 0,-6 0,-1 0,-1 0,-1z"/>
    <path class="fil14" d="M29 128c1,0 1,0 1,-1l9 0c0,0 0,0 1,0 1,0 1,-1 1,-1 -1,-1 -1,0 -2,0 -2,0 -6,0 -8,0 0,0 0,-1 -1,0 -1,0 -1,2 0,2z"/>
    <path class="fil13" d="M27 115l0 1 12 0c0,0 0,1 1,0 0,0 0,-1 0,-1 -1,0 -1,0 -1,0l-12 0z"/>
    <path class="fil13" d="M65 148c0,-1 0,-2 0,-3 0,-1 0,0 0,-1 0,-1 -2,-1 -2,0 0,1 1,0 0,1 0,2 0,10 0,10l1 0c0,-2 0,-5 0,-7z"/>
    <path class="fil14" d="M95 105l0 -1 -11 0c0,-1 -2,-1 -2,0 0,1 1,1 1,1 0,0 0,0 0,0l11 0z"/>
    <path class="fil16" d="M61 133c0,-1 0,-1 -1,-1 0,0 0,0 0,0 0,-1 0,-1 0,-2 0,-1 0,-4 0,-5 1,0 1,0 0,-1 0,0 -1,0 -1,0 0,1 0,1 0,1l0 7c0,0 -1,0 0,1 0,1 2,1 2,0z"/>
    <path class="fil13" d="M53 87l-1 0c0,1 0,10 0,11 0,0 0,0 0,0 0,0 0,1 0,1 0,0 1,0 1,-1 0,0 0,-1 -1,-1l0 -11z"/>
    <path class="fil13" d="M29 152c-1,0 0,-1 -1,0 -1,0 -1,1 0,1 1,0 1,0 1,0 0,0 0,0 0,0l6 0c1,0 1,1 2,2l0 1 1 0c0,-1 0,-1 -1,-2 0,0 0,-1 -1,-1l-6 0z"/>
    <path class="fil12" d="M58 93c0,0 0,0 0,1l2 0c4,0 3,0 5,-1 3,-2 2,-1 2,-6l-1 0c0,4 1,3 -2,5 -1,1 -1,1 -2,1 -1,0 -3,0 -3,0z"/>
    <path class="fil13" d="M95 143l0 -1c-1,0 -1,0 -2,1 0,0 -1,1 -1,1 0,1 0,5 0,5 0,0 0,0 0,1 0,1 2,1 2,0 0,-1 0,0 -1,-1 0,0 0,-1 0,-1 0,-1 0,-2 0,-3 0,-1 0,-1 1,-2 1,-1 1,-1 2,-1z"/>
    <path class="fil17" d="M45 155l0 1 4 0 0 -1 0 -1c0,0 -3,0 -4,0l0 1z"/>
    <path class="fil18" d="M27 89c1,0 0,1 0,1 0,1 0,1 0,2 0,1 0,1 0,2 0,1 0,1 0,1l0 1c0,0 1,-1 1,-1l0 -6c0,0 -1,-1 -1,-2l0 1z"/>
    <path class="fil17" d="M86 149c2,-1 3,2 1,3 -2,1 -2,-2 -1,-3zm-2 2c1,3 4,2 4,-1 0,-3 -4,-2 -4,1z"/>
    <path class="fil19" d="M75 149c2,-1 3,2 1,3 -2,1 -3,-2 -1,-3zm2 2c0,-1 -1,-2 -1,-2 -1,0 -2,1 -2,1 -1,2 3,4 4,1z"/>
    <path class="fil14" d="M27 118l0 1c2,0 4,0 6,0 0,0 1,0 2,0 1,0 0,1 1,1 1,0 1,-2 0,-2 0,0 0,0 -1,0 -3,0 -5,0 -8,0z"/>
    <path class="fil7" d="M81 149c2,-1 3,2 1,3 -2,1 -2,-2 -1,-3zm-2 2c0,3 4,2 4,-1 0,-1 -1,-2 -2,-2 -1,0 -2,1 -2,2z"/>
    <path class="fil20" d="M30 91c0,0 1,0 1,0 1,0 0,0 1,0l2 0c0,0 0,1 1,1 0,0 1,0 1,-1 0,0 0,-1 -1,-1 -1,0 0,1 -1,1l-2 0c-1,0 -1,-1 -2,0 -1,0 0,1 0,1z"/>
    <path class="fil7" d="M27 113l2 0 0 -2c0,0 0,0 0,0l-1 0 -1 0 0 3z"/>
    <path class="fil20" d="M31 88l3 0c0,0 0,0 1,1 2,0 1,-3 -1,-1l-3 0c-1,0 0,0 -1,0 -1,0 -1,1 0,2 1,0 1,0 1,0z"/>
    <path class="fil12" d="M45 152c1,0 4,0 5,0 1,0 1,0 2,1 1,1 1,0 1,2l1 0c0,-2 0,-1 -1,-2 0,0 -1,-1 -2,-1 -1,0 -5,0 -6,0 0,0 0,0 0,1z"/>
    <path class="fil10" d="M81 149c-2,1 -1,3 1,3 2,-1 1,-3 -1,-3z"/>
    <path class="fil10" d="M86 149c-2,1 -1,3 1,3 2,-1 1,-3 -1,-3z"/>
    <path class="fil14" d="M41 87l-1 0 0 7c0,0 0,0 0,0 0,0 0,0 0,0 0,1 1,1 1,1 0,0 0,-1 0,-1 -1,0 0,-1 0,-1l0 -6z"/>
    <path class="fil10" d="M75 149c-2,1 -1,3 1,3 2,-1 1,-3 -1,-3z"/>
    <path class="fil14" d="M95 108l0 -1c-3,0 -2,0 -4,2 0,0 -1,1 -1,1 -1,0 -1,0 -1,1 0,0 1,0 1,0 0,-1 0,-1 1,-1 0,0 2,-2 2,-2 0,0 2,0 2,0z"/>
    <path class="fil14" d="M95 116l0 -1 -6 0c-1,-1 -2,0 -2,0 0,1 1,1 1,1 0,0 0,0 0,0l6 0z"/>
    <path class="fil17" d="M68 123c2,0 3,0 3,-1 0,-1 -1,-1 -2,-1 -1,0 -2,0 -2,0 0,0 0,1 0,1 0,0 0,0 1,0z"/>
    <path class="fil17" d="M59 89c-1,0 -1,1 0,1 0,0 2,0 3,0 1,0 1,-1 0,-1 0,0 -2,0 -2,0z"/>
    <path class="fil17" d="M77 135c0,0 0,-2 0,-2 0,-1 -1,-1 -1,0 0,0 0,2 0,3 0,1 1,1 1,0z"/>
    <path class="fil17" d="M67 139c0,1 1,1 1,0 0,0 0,-2 0,-3 0,-1 -1,-1 -1,0 0,0 0,2 0,3z"/>
    <path class="fil7" d="M70 135c0,1 1,1 1,0 0,0 0,-2 0,-3 0,-1 -1,-1 -1,0 0,0 0,2 0,3z"/>
    <path class="fil17" d="M70 119c-1,0 -3,0 -3,1 0,1 1,0 2,0 1,0 1,0 2,0 0,0 0,-1 0,-1 0,0 0,0 -1,0z"/>
    <path class="fil17" d="M34 98c0,1 1,1 1,0 0,0 0,-2 0,-2 0,-1 -1,-1 -1,0 0,0 0,2 0,2z"/>
    <path class="fil17" d="M32 98c0,0 0,-2 0,-2 0,-1 0,-1 -1,-1l0 0c0,0 0,2 0,3 0,1 0,1 0,1 0,0 1,0 1,0z"/>
    <path class="fil21" d="M72 133c0,1 0,2 0,2 0,1 1,1 1,0 0,0 0,-2 0,-3 0,-1 -1,-1 -1,0z"/>
    <path class="fil7" d="M66 138c0,-1 0,-1 0,-1 0,0 0,-1 0,-1 0,0 -1,-1 -1,1 0,1 0,2 0,2 0,0 1,0 1,0 0,0 0,-1 0,-1z"/>
    <path class="fil14" d="M95 121l0 -1 -5 0c0,0 0,0 0,0 0,0 0,0 0,0 0,0 -1,0 -1,0 -1,1 0,2 1,1 0,0 0,0 0,0l5 0z"/>
    <path class="fil14" d="M70 87l-1 0 0 5c0,0 -1,0 -1,1 0,1 1,1 2,0 0,-1 0,-1 0,-1l0 -5z"/>
    <path class="fil22" d="M75 113c-1,0 0,2 1,1 0,0 0,-1 0,-1 0,0 0,-1 0,-2 0,0 1,0 0,-1 0,-1 -2,0 -1,1 0,0 0,0 0,1 0,0 0,1 0,1z"/>
    <path class="fil16" d="M72 152c0,-1 0,-1 0,-1 1,-1 0,-2 -1,-1 0,0 -1,0 -1,1 0,1 0,1 1,1l0 5 1 0 0 -4z"/>
    <path class="fil22" d="M65 110c0,1 0,1 0,1 -1,1 1,2 1,1 0,-1 -1,0 0,-2 0,-1 1,-1 0,-2 -1,0 -2,0 -1,1 0,0 0,0 0,1z"/>
    <path class="fil22" d="M68 112l0 1c0,0 -1,0 -1,1 0,1 1,1 2,0 0,-1 0,-1 -1,-1l0 -1c1,-1 0,-2 0,-2 -1,0 -1,1 0,2z"/>
    <path class="fil22" d="M72 112c0,-2 0,-1 0,-2 0,-1 -2,-1 -2,0 0,1 0,0 1,1 0,1 0,1 0,1 -1,1 1,2 1,1 0,-1 0,-1 0,-1z"/>
    <path class="fil22" d="M59 112c0,0 -1,0 0,1 0,1 2,0 1,0 0,0 0,0 0,-1 0,0 0,-1 0,-2 0,0 1,-1 0,-1 0,-1 -2,0 -1,1 0,0 0,1 0,2z"/>
    <path class="fil16" d="M27 136l0 1 4 0c0,0 0,1 1,1 1,0 1,-2 -1,-1 0,0 0,0 -1,0l-4 0z"/>
    <path class="fil22" d="M62 114c0,0 0,0 0,-1 0,0 1,0 0,1l0 0zm0 -2l0 1c-1,0 -1,2 0,1 0,0 1,0 1,-1 0,-1 0,-1 0,-1l0 -1c0,-1 0,0 0,0 0,0 0,0 0,-1 0,0 0,-1 -1,-1 0,0 -1,0 -1,1 0,1 0,1 0,1z"/>
    <path class="fil19" d="M86 139c1,0 1,1 1,1 -1,0 -1,0 -1,-1 0,0 0,0 0,0zm2 1c0,-2 -2,-2 -3,-1 0,2 2,2 3,1z"/>
    <path class="fil19" d="M39 135c1,0 1,1 0,1 -1,0 -1,-1 0,-1zm1 1c1,-2 -2,-2 -2,-1 -1,2 2,3 2,1z"/>
    <path class="fil19" d="M90 143c1,0 1,1 1,1 -1,0 -2,-1 -1,-1zm-1 1c0,2 3,1 3,0 0,-2 -3,-1 -3,0z"/>
    <path class="fil7" d="M83 139c1,0 1,1 1,1 -1,0 -1,-1 -1,-1zm2 1c0,-1 0,-1 -1,-2 -1,0 -1,0 -2,1 -1,2 2,3 2,1z"/>
    <path class="fil19" d="M36 138c1,0 1,1 0,1 -1,0 -1,-1 0,-1zm-1 1c0,2 3,1 3,-1 0,-2 -3,-1 -3,1z"/>
    <path class="fil19" d="M39 131c1,0 1,1 1,1 0,0 -1,0 -1,0 0,0 0,0 0,-1 0,0 0,0 0,0zm-1 1c0,2 3,1 3,-1 0,-2 -3,-1 -3,1z"/>
    <path class="fil19" d="M36 135c0,0 1,0 1,0 0,0 0,1 0,1 -1,0 -1,-1 -1,-1zm-1 1c1,2 3,1 3,-1 0,-1 -3,-1 -3,1z"/>
    <path class="fil19" d="M29 131c1,-1 1,1 1,1 -1,0 -1,-1 -1,-1zm-1 1c0,2 3,1 3,-1 0,-2 -3,-1 -3,1z"/>
    <path class="fil7" d="M36 131c1,-1 1,1 1,1 -1,0 -1,0 -1,-1 0,0 0,0 0,0zm-1 1c0,1 1,1 2,1 1,0 1,-1 1,-2 0,-2 -3,-1 -3,1z"/>
    <path class="fil19" d="M34 132c0,1 -2,0 -1,-1 0,-1 2,0 1,1zm-2 0c0,2 3,2 3,0 0,0 0,-1 0,-1 0,0 -1,0 -1,0 -1,0 -1,1 -1,1z"/>
    <path class="fil19" d="M39 138c1,0 1,1 1,1 -1,0 -1,-1 -1,-1zm-1 1c0,1 3,1 3,-1 0,-1 -1,-1 -2,-1 -1,0 -1,1 -1,2z"/>
    <path class="fil17" d="M80 139c1,0 1,1 1,1 -1,0 -1,-1 -1,-1zm-1 1c0,2 3,1 3,-1 0,-2 -3,-1 -3,1z"/>
    <path class="fil21" d="M86 143c1,0 1,1 1,1 0,0 -1,0 -1,0 0,0 0,0 0,-1 0,0 0,0 0,0zm-1 1c0,2 3,2 3,0 0,-1 -1,-1 -1,-1 -1,0 -1,1 -1,1z"/>
    <path class="fil7" d="M93 139c1,0 1,1 1,1 -1,0 -1,-1 -1,-1zm-1 1c0,2 3,1 3,-1 0,-2 -3,-1 -3,1z"/>
    <path class="fil19" d="M90 139c1,0 1,1 1,1 -1,0 -2,-1 -1,-1zm-1 1c0,2 3,1 3,0 0,-2 -3,-1 -3,0z"/>
    <path class="fil17" d="M27 155l3 0c0,-1 0,-1 -1,-1 -1,0 -1,0 -2,0l0 1z"/>
    <path class="fil16" d="M95 119l0 -1 -2 0c0,0 0,0 0,0 0,0 0,0 0,0 0,0 0,0 -1,0 -2,0 0,3 1,1l2 0z"/>
    <path class="fil20" d="M56 153c0,0 0,0 0,0 0,-2 -2,-1 -1,0 0,1 0,0 0,2l1 0c0,0 0,-1 0,-2l0 0z"/>
    <path class="fil7" d="M28 125c0,0 1,0 1,0 0,0 0,-2 0,-2 -1,0 -1,0 -1,2 0,0 0,0 0,0z"/>
    <path class="fil17" d="M40 148c0,-2 0,-1 -1,-1 -1,0 -1,0 -2,0l0 1 2 0z"/>
    <path class="fil7" d="M81 94c0,0 0,-1 0,-1 0,0 -1,0 -1,0 -1,0 -1,0 -1,1 0,1 0,1 1,1 0,0 1,0 1,0 0,0 0,0 0,-1z"/>
    <path class="fil7" d="M62 155c0,-1 0,-1 0,-1 0,0 -1,0 -1,0 -1,0 -2,0 -2,1l4 0z"/>
    <path class="fil17" d="M36 147c0,0 -1,0 -2,0 -1,0 -1,0 -1,1 0,1 0,1 1,1 0,0 1,0 2,0l0 -1z"/>
    <path class="fil7" d="M50 120c0,1 0,2 1,2 1,0 1,-1 1,-2l-1 0c0,1 0,1 0,2 -1,0 -1,0 -1,-2l-1 0z"/>
    <path class="fil23" d="M82 94c0,0 2,0 2,0 0,0 0,-1 0,-1 -1,0 -1,0 -2,0 0,0 -1,0 -1,0 0,0 0,1 0,1z"/>
    <path class="fil17" d="M82 89c0,0 0,1 0,1 0,0 2,0 2,0 0,0 0,-1 0,-1l-2 0c0,0 -1,0 -1,0z"/>
    <path class="fil17" d="M78 90l2 0c0,-1 0,0 0,-1 0,0 -1,0 -2,0 0,0 -1,0 -1,0 0,0 0,1 0,1z"/>
    <path class="fil20" d="M65 87l-1 0 0 1c-2,1 1,2 1,1 0,0 0,0 0,-1 0,0 0,-1 0,-2z"/>
    <path class="fil17" d="M34 141l-1 0 0 2c0,0 1,0 1,0l0 -2z"/>
    <path class="fil22" d="M27 143l0 1c0,0 1,0 1,0 0,0 0,0 1,0 1,0 0,-2 -1,-1 -1,0 0,0 -1,0z"/>
    <path class="fil24" d="M47 121c0,0 0,1 -1,0 0,0 0,0 0,-1 0,0 0,0 1,0 0,0 0,0 1,0 0,-1 -2,-1 -2,1 0,1 2,1 2,0l0 0z"/>
    <path class="fil24" d="M49 120c0,0 0,0 0,0 0,0 0,0 -1,0l0 0zm0 1c1,0 1,0 1,-1 0,0 -1,0 -2,0l0 2 1 0 0 -1z"/>
    <path class="fil22" d="M41 155c0,-1 0,-1 0,-1 0,0 0,-1 0,-1 -1,0 -2,0 -1,1 0,1 0,0 0,1l1 0z"/>
    <path class="fil17" d="M27 147l1 0c0,0 0,-1 0,-1 0,-2 0,-2 -1,-2l0 3z"/>
    <path class="fil7" d="M27 151c1,0 1,0 1,-1 0,0 0,-1 0,-1l-1 0 0 2z"/>
    <path class="fil22" d="M77 155c0,0 1,0 0,-1 0,-1 -2,-1 -2,0 0,1 1,0 1,2l1 0 0 -1z"/>
    <path class="fil9" d="M27 95c1,0 0,0 0,-1 0,-1 0,-1 0,-2 0,-1 0,-1 0,-2 0,-1 0,-1 0,-1l0 6z"/>
    <path class="fil22" d="M27 135l0 1c1,0 1,0 1,0 1,0 1,-2 0,-2 -1,0 0,0 -1,0z"/>
    <path class="fil22" d="M58 94c0,0 0,-1 0,-1 0,0 0,-1 -1,0 0,0 -1,0 -1,1 0,1 1,1 1,0z"/>
    <path class="fil25" d="M33 145c0,0 0,0 0,-1 0,0 -1,-1 -2,0 0,1 1,1 1,0z"/>
    <path class="fil26" d="M74 92l1 0c1,0 1,-2 0,-1 0,0 -1,0 -1,1 0,1 0,1 0,1z"/>
    <path class="fil26" d="M45 131l1 0c1,0 1,-2 0,-1 0,0 -1,0 -1,1 0,0 0,0 0,1l0 0z"/>
    <path class="fil26" d="M87 119l-1 0c0,0 -1,0 0,1 0,1 1,1 2,0 0,-1 0,-1 0,-1z"/>
    <path class="fil26" d="M82 129l0 1c1,1 1,1 2,0 0,0 0,-1 -1,-1 -1,0 -1,0 -1,0z"/>
    <path class="fil26" d="M53 110c-1,1 1,2 1,1 0,-1 0,-1 0,-1l-1 0z"/>
    <path class="fil10" d="M80 139c-1,0 0,2 1,1 1,0 0,-2 -1,-1z"/>
    <path class="fil27" d="M93 139c-1,0 0,2 1,1 1,0 0,-2 -1,-1z"/>
    <path class="fil27" d="M29 131c-1,0 0,2 1,1 1,0 0,-2 -1,-1z"/>
    <path class="fil27" d="M39 131c0,0 0,0 0,0 0,0 0,0 0,1 0,0 1,0 1,0 1,0 0,-2 -1,-1z"/>
    <path class="fil10" d="M83 139c-1,0 0,2 1,1 1,0 0,-2 -1,-1z"/>
    <path class="fil27" d="M34 132c0,-1 -1,-1 -1,-1 0,1 1,1 1,1z"/>
    <path class="fil27" d="M36 131c0,0 0,0 0,0 0,1 1,1 1,1 1,0 0,-2 -1,-1z"/>
    <path class="fil18" d="M39 138c-1,0 0,2 1,1 1,0 0,-2 -1,-1z"/>
    <path class="fil10" d="M36 135c-1,0 0,2 1,1 0,0 1,-1 0,-1 0,0 -1,0 -1,0z"/>
    <path class="fil27" d="M90 143c-1,0 0,2 1,1 1,0 0,-2 -1,-1z"/>
    <path class="fil27" d="M90 139c-1,0 0,2 1,1 1,0 0,-2 -1,-1z"/>
    <path class="fil18" d="M86 143c0,0 0,0 0,0 0,0 0,0 0,1 0,0 1,0 1,0 1,0 0,-2 -1,-1z"/>
    <path class="fil27" d="M39 135c-1,0 -1,2 0,1 1,0 0,-2 0,-1z"/>
    <path class="fil18" d="M86 139c0,0 0,0 0,0 0,1 0,1 1,1 1,0 0,-2 -1,-1z"/>
    <path class="fil10" d="M36 138c-1,0 -1,2 0,1 1,0 1,-2 0,-1z"/>
    <path class="fil28" d="M44 152c-1,-1 1,-1 0,0l0 0zm1 0c0,0 0,0 0,-1 0,-1 -1,-1 -1,0 0,1 1,1 1,0z"/>
    <path class="fil29" d="M90 153c0,0 1,0 1,0 0,0 -1,0 -1,0zm1 -1l-1 0c0,0 -1,0 0,1 0,0 0,1 1,1 1,0 1,-1 0,-1z"/>
    <path class="fil28" d="M83 144c0,0 0,0 0,-1l1 0c0,0 0,1 0,1zm-1 -1l0 1c0,0 0,0 1,0 0,0 1,0 1,-1 0,-1 -1,-1 -1,0z"/>
    <path class="fil29" d="M41 151c1,0 0,1 0,1 0,0 0,0 0,-1zm-1 0l0 1c0,1 2,0 1,0 0,0 0,-1 -1,-1 0,0 -1,0 -1,0z"/>
    <path class="fil29" d="M53 131c-1,0 -1,0 0,-1 0,0 0,0 0,1zm-1 0l1 0c1,0 0,-1 0,-1 0,0 -1,0 -1,1 0,1 0,1 0,1z"/>
    <path class="fil30" d="M87 124l0 -1 -1 0 0 0c0,0 0,0 -1,0 -1,0 0,0 0,0 0,0 0,0 1,0l0 0 1 0z"/>
    <path class="fil31" d="M92 124c1,0 0,0 1,0l0 0 1 0 0 0 -1 0 0 0c0,0 0,0 0,0 0,0 0,0 0,0l0 0 0 1z"/>
    <path class="fil32" d="M87 127l0 -1 -1 0c0,0 0,0 0,0l0 0c0,0 0,0 0,0 -1,0 -1,0 -1,0 0,0 0,0 1,0 0,0 0,0 1,0z"/>
    <path class="fil30" d="M92 132l0 0 0 0c0,0 0,0 1,0 1,0 0,0 0,0 0,0 0,0 -1,0 0,0 0,0 0,0l0 0 0 1z"/>
    <path class="fil31" d="M92 131l0 0 0 0c0,0 0,0 0,0 0,0 1,0 1,0l0 0c-1,0 -1,0 -1,0l0 0 0 1z"/>
    <path class="fil31" d="M92 127l0 0 0 0c0,0 1,0 1,0 0,-1 -1,0 -1,-1 0,0 0,0 0,0l0 0 0 1z"/>
    <path class="fil31" d="M92 129l0 0 0 0c0,0 1,0 1,0l0 0c0,0 0,0 -1,0 0,0 0,0 0,0 0,0 0,0 0,0l0 0 0 1z"/>
    <path class="fil31" d="M87 126l0 -1 0 0 0 0c0,0 -1,0 -1,0l0 0c1,0 1,0 1,0 0,0 0,0 0,0l0 0z"/>
    <path class="fil31" d="M87 129l0 -1c-1,0 0,0 -1,0 0,0 0,0 -1,0l0 0c1,0 1,0 1,0l0 0z"/>
    <path class="fil31" d="M92 126c1,0 0,0 1,0 0,0 1,0 1,0l0 0 0 0c0,0 0,0 -1,0l0 0c0,0 0,0 0,0 0,0 0,0 0,0 0,0 0,0 0,0l0 1z"/>
    <path class="fil31" d="M87 131l0 -1c-1,0 0,0 -1,0l-1 0 0 0 1 0 0 0 0 0z"/>
    <path class="fil31" d="M87 132l0 -1 -1 0c0,0 0,0 -1,0l0 0c1,0 1,0 1,0l0 0z"/>
    <polygon class="fil30" points="42,98 43,98 43,97 42,97 "/>
    <polygon class="fil30" points="46,98 47,98 47,97 46,97 "/>
    <polygon class="fil30" points="45,91 45,90 44,90 44,91 "/>
    <polygon class="fil30" points="45,93 45,92 44,92 44,93 "/>
    <polygon class="fil30" points="45,89 45,88 44,88 44,89 "/>
    <polygon class="fil30" points="44,98 45,98 45,97 44,97 "/>
    <polygon class="fil31" points="47,102 46,102 46,103 47,103 "/>
    <polygon class="fil30" points="43,102 42,102 42,103 43,103 "/>
    <polygon class="fil30" points="45,102 44,102 44,103 45,103 "/>
    <polygon class="fil30" points="40,98 41,98 41,97 40,97 "/>
    <polygon class="fil30" points="49,93 50,93 50,92 49,92 "/>
    <polygon class="fil30" points="49,91 50,91 50,90 49,90 "/>
    <polygon class="fil30" points="49,89 50,89 50,88 49,88 "/>
    <polygon class="fil30" points="41,102 40,102 40,103 41,103 "/>
    <polygon class="fil30" points="45,155 45,155 44,155 44,155 "/>
    <polygon class="fil30" points="49,155 50,155 50,155 49,155 "/>
    <path class="fil33" d="M51 125c0,0 0,-1 -1,-1 0,1 0,1 1,1z"/>
    <path class="fil34" d="M52 128c0,0 0,-1 -1,-1 0,1 0,1 1,1z"/>
    <path class="fil33" d="M55 119c0,0 0,-1 -1,0 0,1 1,1 1,0z"/>
    <path class="fil33" d="M52 125c-1,0 -1,0 -1,1 1,0 1,0 1,-1z"/>
    <path class="fil33" d="M55 120c-1,0 -1,0 -1,1 0,0 1,0 1,-1z"/>
    <path class="fil33" d="M53 114c0,-1 0,-1 -1,-1 0,0 0,1 1,1z"/>
    <path class="fil34" d="M43 119c0,-1 0,-1 -1,-1 0,0 0,1 1,1z"/>
    <path class="fil33" d="M48 127c0,-1 0,-1 -1,-1 0,0 0,1 1,1z"/>
    <path class="fil34" d="M49 113c0,1 0,1 1,1 0,0 0,0 0,-1 0,0 0,0 -1,0z"/>
    <path class="fil33" d="M43 113c0,0 0,1 0,1 0,0 0,-1 0,-1z"/>
    <path class="fil33" d="M41 122c0,0 0,0 1,0 0,-1 0,-1 -1,-1l0 1z"/>
    <path class="fil34" d="M56 128c0,0 1,0 1,0 0,0 -1,0 -1,0z"/>
    <path class="fil11" d="M47 116c0,0 0,1 0,1 0,0 0,-1 0,-1z"/>
    <path class="fil33" d="M44 113c0,0 0,1 0,1 0,0 0,-1 0,-1z"/>
    <path class="fil33" d="M55 117c0,0 0,0 0,0 0,0 0,0 1,0 0,0 0,-1 0,-1z"/>
    <path class="fil11" d="M46 114c1,0 1,0 1,-1 0,0 -1,0 -1,1z"/>
    <path class="fil33" d="M50 126c0,0 1,0 1,0 0,-1 -1,0 -1,0z"/>
    <path class="fil33" d="M53 125c0,0 0,0 0,-1 0,0 0,0 -1,0 0,0 0,1 0,1z"/>
    <path class="fil33" d="M56 121c0,0 0,1 1,0 0,0 0,0 0,-1 0,0 -1,0 -1,0z"/>
    <path class="fil33" d="M56 116c0,0 0,1 1,1 0,0 0,-1 -1,-1z"/>
    <path class="fil35" d="M41 119c0,1 0,1 1,1 0,-1 0,-1 -1,-1z"/>
    <path class="fil33" d="M41 118c0,1 0,1 1,1 0,-1 0,-1 -1,-1z"/>
    <path class="fil11" d="M52 113c-1,0 -1,0 -1,1 0,0 1,0 1,-1z"/>
    <path class="fil34" d="M46 128c0,1 0,1 1,1 0,0 0,-1 -1,-1z"/>
    <path class="fil33" d="M56 125c0,0 0,1 1,0 0,-1 0,-1 -1,-1l0 0z"/>
    <path class="fil33" d="M51 115c0,-1 -1,-1 -1,-1 0,0 0,1 1,1z"/>
    <path class="fil35" d="M48 115c1,0 1,0 1,-1 0,0 -1,0 -1,1z"/>
    <path class="fil33" d="M54 127c1,0 1,0 0,-1 0,0 -1,0 -1,1l0 0z"/>
    <path class="fil33" d="M43 115c0,-1 0,-1 -1,-1 0,0 0,1 1,1z"/>
    <path class="fil33" d="M53 117c0,0 0,0 0,1 0,0 0,0 1,0 0,0 0,-1 0,-1z"/>
    <path class="fil33" d="M44 125c0,0 1,0 1,0 0,-1 -1,0 -1,0z"/>
    <path class="fil33" d="M56 114c0,0 0,-1 0,-1 0,0 -1,1 0,1z"/>
    <path class="fil34" d="M46 116c0,0 0,1 1,1 0,0 0,-1 -1,-1z"/>
    <path class="fil33" d="M42 117c0,-1 0,-1 -1,-1 0,0 0,1 1,1z"/>
    <path class="fil34" d="M48 128c0,-1 -1,-1 -1,0 0,1 0,1 1,0z"/>
    <path class="fil35" d="M54 119c-1,0 -1,0 -1,1 1,0 1,0 1,-1z"/>
    <path class="fil33" d="M56 123c0,-1 0,-1 -1,-1 0,0 0,1 1,1z"/>
    <path class="fil34" d="M44 119c0,1 0,1 1,1 0,-1 0,-1 -1,-1z"/>
    <path class="fil33" d="M42 124c-1,0 -1,0 -1,1 1,0 1,0 1,-1z"/>
    <path class="fil34" d="M48 114c1,0 1,0 1,-1 -1,0 -1,0 -1,1z"/>
    <path class="fil11" d="M45 127c0,0 1,0 1,0 0,0 -1,0 -1,0z"/>
    <path class="fil34" d="M45 117c-1,0 -1,0 -1,1 0,0 1,0 1,-1z"/>
    <path class="fil33" d="M43 127c0,-1 -1,-1 -1,0 0,1 0,1 1,0z"/>
    <path class="fil34" d="M51 116c-1,0 -1,0 -1,1 0,0 1,0 1,-1z"/>
    <path class="fil34" d="M50 128c0,-1 0,-1 -1,-1 0,0 0,1 1,1z"/>
    <path class="fil33" d="M42 126c-1,0 -1,0 -1,1 0,0 0,0 1,0 0,0 0,0 0,-1z"/>
    <path class="fil11" d="M48 125c0,-1 0,-1 -1,-1 0,0 0,1 1,1z"/>
    <path class="fil33" d="M42 123c-1,0 -1,0 -1,1 1,0 1,0 1,-1z"/>
    <path class="fil11" d="M54 122c0,1 1,1 1,0 0,-1 0,-1 -1,0z"/>
    <path class="fil33" d="M44 122c1,0 1,0 1,-1 0,0 -1,0 -1,1z"/>
    <path class="fil11" d="M52 127c0,-1 -1,-1 -1,0 0,1 0,1 1,0z"/>
    <path class="fil33" d="M43 121c0,-1 0,-1 -1,-1 0,1 0,1 1,1z"/>
    <path class="fil33" d="M53 126c0,1 1,1 1,0 0,0 0,0 0,-1 0,0 0,0 0,0z"/>
    <path class="fil11" d="M43 127c0,0 0,1 0,1 0,0 0,-1 0,-1z"/>
    <path class="fil11" d="M43 118c0,-1 -1,-1 -1,0 0,1 0,1 1,0z"/>
    <path class="fil33" d="M41 127c-1,1 1,1 1,0l-1 0z"/>
    <path class="fil34" d="M44 128c0,1 1,1 1,0 0,-1 0,-1 -1,0z"/>
    <path class="fil33" d="M55 125c0,-1 -1,-1 -1,0 0,0 0,1 1,0z"/>
    <path class="fil34" d="M56 119c-1,0 -1,0 -1,1 0,0 1,0 1,-1z"/>
    <path class="fil34" d="M51 116c0,0 0,1 1,1 0,0 0,-1 -1,-1z"/>
    <path class="fil33" d="M46 125c-1,0 -1,1 0,1 0,0 1,0 0,-1z"/>
    <path class="fil33" d="M56 126c0,0 0,0 0,0 1,0 1,-1 0,-1l0 0z"/>
    <path class="fil11" d="M53 116c0,0 0,-1 0,-1 0,0 0,1 0,1z"/>
    <path class="fil33" d="M43 116c0,0 1,0 1,0 0,0 -1,0 -1,0z"/>
    <path class="fil33" d="M54 122c0,-1 0,-1 -1,-1 0,1 0,1 1,1z"/>
    <path class="fil33" d="M54 115c0,0 1,0 1,-1 -1,0 -1,0 -1,1z"/>
    <path class="fil34" d="M55 116l0 -1c-1,-1 -1,1 0,1z"/>
    <path class="fil33" d="M45 124c0,0 0,0 0,0 0,0 -1,0 -1,1l1 0z"/>
    <path class="fil33" d="M56 115c0,0 0,0 1,0 0,-1 -1,-1 -1,0z"/>
    <path class="fil33" d="M44 126c0,1 1,1 1,0 0,0 0,0 -1,0z"/>
    <path class="fil11" d="M47 115c1,0 1,0 1,-1 -1,0 -1,0 -1,1z"/>
    <path class="fil33" d="M43 123c0,1 1,1 1,0 0,0 0,-1 -1,0z"/>
    <path class="fil33" d="M44 120c0,1 0,1 0,1 0,0 0,-1 0,-1z"/>
    <path class="fil33" d="M55 128c0,0 0,0 0,-1l0 0c-1,0 -1,1 0,1z"/>
    <path class="fil33" d="M49 126c-1,1 1,1 1,0l-1 0z"/>
    <path class="fil33" d="M52 115c0,-1 -1,-1 -1,0 0,1 0,1 1,0z"/>
    <path class="fil33" d="M54 123c0,0 0,0 0,1 0,0 1,0 1,0 0,0 0,0 -1,0z"/>
    <path class="fil34" d="M49 125c1,-1 -1,-1 -1,0l1 0z"/>
    <path class="fil33" d="M56 118c1,0 1,0 1,-1 -1,0 -1,0 -1,1z"/>
    <path class="fil11" d="M43 125c0,0 -1,0 -1,0 0,0 1,0 1,0z"/>
    <path class="fil33" d="M41 114l1 0c0,-1 -1,-1 -1,0z"/>
    <path class="fil33" d="M43 122c0,0 0,0 0,-1 -1,-1 -1,1 0,1z"/>
    <path class="fil33" d="M42 115c0,0 0,-1 -1,-1 0,1 0,1 1,1z"/>
    <path class="fil33" d="M54 114c-1,0 -1,0 -1,0 0,0 1,0 1,0z"/>
    <path class="fil33" d="M49 116l-1 0c-1,1 1,1 1,0z"/>
    <path class="fil33" d="M45 115c0,0 1,0 1,-1 -1,0 -1,0 -1,1z"/>
    <path class="fil34" d="M54 114l1 0c1,-1 -1,-1 -1,0z"/>
    <path class="fil35" d="M53 120c-1,1 1,1 0,0l0 0z"/>
    <path class="fil11" d="M53 128c0,0 0,0 0,-1 -1,-1 -1,1 0,1z"/>
    <path class="fil33" d="M53 124c1,-1 -1,-1 0,0l0 0z"/>
    <path class="fil33" d="M44 114c-1,0 0,1 0,1 0,0 0,-1 0,-1z"/>
    <path class="fil35" d="M45 116c0,0 0,-1 0,-1 0,0 0,1 0,1z"/>
    <path class="fil31" d="M93 110l1 0c0,0 0,-1 0,-1 0,0 0,0 0,0l0 0z"/>
    <path class="fil36" d="M28 110l1 0c0,0 0,-1 0,-1 0,0 0,0 0,0l0 0z"/>
    <path class="fil31" d="M33 110l1 0c0,0 0,-1 0,-1 0,0 0,0 0,0l0 0z"/>
    <path class="fil31" d="M34 110l1 0 0 0c0,0 0,0 0,0 0,0 0,0 0,0 0,0 0,0 0,1z"/>
    <path class="fil31" d="M32 110l1 0c0,0 0,0 0,-1 0,0 0,0 0,0 0,0 0,0 0,0 0,0 0,0 0,0z"/>
    <path class="fil36" d="M32 113l-1 0 0 0c0,0 0,0 0,0 0,0 0,0 0,0 0,0 0,0 0,0 0,0 0,0 0,0z"/>
    <path class="fil36" d="M93 113l-1 0c0,0 0,1 0,1l0 0c0,0 0,0 0,0z"/>
    <path class="fil31" d="M92 110l1 0 0 0c0,0 0,0 0,0 0,0 0,0 0,0 0,0 0,0 0,0l0 0z"/>
    <path class="fil36" d="M35 113l-1 0 0 0c0,0 0,0 0,0 0,0 0,0 0,0 0,0 0,0 0,0 0,0 0,0 0,0 0,0 0,0 0,0 0,0 0,0 0,-1z"/>
    <path class="fil31" d="M36 110l1 0c0,0 0,0 0,0 0,0 0,0 0,0 0,0 0,0 0,0l0 1z"/>
    <path class="fil31" d="M34 113l-1 0 0 0c0,0 0,0 0,0 0,0 0,1 0,0 0,0 0,0 0,-1z"/>
    <path class="fil37" d="M53 131c0,0 0,-1 0,-1 0,0 0,1 0,1z"/>
    <path class="fil38" d="M44 152l0 0c0,-1 -1,-1 0,0z"/>
    <path class="fil38" d="M83 144c0,0 0,0 0,-1l-1 0c0,0 0,0 0,1z"/>
    <path class="fil37" d="M41 151c0,0 0,1 0,1 0,0 1,0 0,-1z"/>
    <path class="fil37" d="M90 153c0,0 0,0 1,0 0,-1 0,-1 -1,0z"/>
    <path class="fil38" d="M62 114l0 0c0,0 0,-1 0,-1 0,0 0,0 0,1z"/>
    <path class="fil39" d="M49 120c0,0 0,0 1,0 0,0 0,0 0,0l0 0z"/>
   </g>
  </g>
 </g>
</svg>
