<?xml version="1.0" encoding="UTF-8"?>
<!DOCTYPE svg PUBLIC "-//W3C//DTD SVG 1.1//EN" "http://www.w3.org/Graphics/SVG/1.1/DTD/svg11.dtd">
<!-- Creator: CorelDRAW 2020 (64-Bit) -->
<svg xmlns="http://www.w3.org/2000/svg" xml:space="preserve" width="2538px" height="2329px" version="1.1" style="shape-rendering:geometricPrecision; text-rendering:geometricPrecision; image-rendering:optimizeQuality; fill-rule:evenodd; clip-rule:evenodd"
viewBox="0 0 251 231"
 xmlns:xlink="http://www.w3.org/1999/xlink"
 xmlns:xodm="http://www.corel.com/coreldraw/odm/2003">
 <defs>
  <style type="text/css">
   <![CDATA[
    .str1 {stroke:#B3B3B3;stroke-width:0;stroke-miterlimit:22.9256}
    .str0 {stroke:#E6E6E6;stroke-width:0;stroke-miterlimit:22.9256}
    .fil6 {fill:#B3B3B3}
    .fil8 {fill:#C86C3F}
    .fil5 {fill:#E6E6E6}
    .fil7 {fill:darkorange}
    .fil4 {fill:#FEFEFE;fill-rule:nonzero}
    .fil0 {fill:#FAF6F2;fill-rule:nonzero}
    .fil2 {fill:#EAE8E2;fill-rule:nonzero}
    .fil1 {fill:#D9D5D1;fill-rule:nonzero}
    .fil3 {fill:#C6BFBA;fill-rule:nonzero}
   ]]>
  </style>
    <clipPath id="id0">
     <path d="M111 231c-1,-2 -2,-3 -4,-6 1,-1 2,-1 3,-2 1,1 3,2 4,3l0 0c-1,2 -2,3 -3,5l0 0z"/>
    </clipPath>
 </defs>
 <g id="Capa_x0020_1">
  <metadata id="CorelCorpID_0Corel-Layer"/>
  <g id="_1337901828544">
   <g style="clip-path:url(#id0)">
    <image x="107" y="223" width="7" height="8" xlink:href="alerta_sismica_Images\alerta_sismica_ImgID1.jpg"/>
   </g>
   <polygon class="fil0" points="142,62 0,127 110,194 251,108 "/>
   <polygon class="fil1" points="110,194 111,230 247,140 251,108 "/>
   <polygon class="fil2" points="110,194 0,127 3,161 111,230 "/>
   <polygon class="fil2" points="110,194 111,194 111,230 111,230 "/>
   <polygon class="fil3" points="110,194 110,194 110,230 111,230 "/>
   <polygon class="fil4" points="110,194 110,194 251,108 251,108 "/>
   <rect class="fil5" x="141" y="4" width="2" height="61"/>
   <path class="fil5" d="M141 65l2 0c0,0 0,0 0,0l0 -14c0,0 0,-1 -1,-1l-2 0c0,0 -1,0 -1,1l0 14c0,0 0,0 0,0z"/>
   <circle class="fil5 str0" cx="142" cy="4" r="4"/>
   <g>
    <g>
     <path class="fil6 str1" d="M125 123c0,5 0,3 7,8 4,2 8,6 12,8l6 -4c-6,-5 -20,-10 -10,-16 10,-6 17,3 25,7l6 -4c-9,-7 -19,-16 -32,-8 -5,3 -6,5 -7,7 -4,1 -3,0 -6,1z"/>
     <path class="fil6 str1" d="M183 108c-4,11 -20,9 -5,-4l5 4zm-24 2c2,-2 5,-10 13,-9 2,4 -13,11 -6,16 4,3 15,2 21,-8l6 0c1,-1 1,-2 1,-3 -14,-3 -13,-10 -23,-9 -11,1 -17,9 -18,13 2,1 3,0 5,0z"/>
    </g>
    <path class="fil6 str1" d="M103 143c0,-2 0,-3 -2,-3 -10,2 -22,10 -17,15 7,8 18,-3 26,-3 6,4 -10,8 -14,10l2 4c9,-3 23,-8 21,-15 -3,-9 -19,1 -26,2 -6,-4 7,-7 11,-9z"/>
    <path class="fil6 str1" d="M93 123c-8,10 13,14 21,5 8,-9 -13,-14 -21,-5z"/>
    <path class="fil6 str1" d="M76 147c-2,-3 -8,-4 -11,-11 -1,-2 -1,-4 -1,-6 0,-2 2,-4 -2,-5 -5,2 -4,4 -4,6 0,3 1,5 2,7 1,3 10,15 16,9z"/>
    <path class="fil6 str1" d="M142 107c-3,-4 -12,-8 -18,-9 -4,-1 -19,-3 -20,1 -1,4 14,-1 28,7 4,2 5,6 10,1z"/>
    <polygon class="fil6 str1" points="124,151 130,147 113,136 105,138 "/>
    <polygon class="fil6 str1" points="136,144 142,140 123,127 118,132 "/>
    <path class="fil6 str1" d="M129 114l4 -2c-3,-5 -20,-10 -25,-7 -5,3 6,3 8,4 7,1 8,4 13,5z"/>
    <path class="fil6 str1" d="M80 143c7,-3 -1,-5 -3,-9 -1,-2 -2,-3 -2,-5 0,-2 0,-3 -3,-3 -7,4 1,15 8,17z"/>
    <path class="fil6 str1" d="M120 119c11,-6 -16,-11 -14,-5 1,1 3,1 5,2 5,1 6,3 9,4z"/>
    <path class="fil6 str1" d="M87 138c6,-1 4,-2 1,-5 -2,-2 -2,-5 -4,-6 -7,-2 -4,8 3,11z"/>
   </g>
   <path class="fil7" d="M93 122c-8,10 13,14 21,5 8,-9 -13,-14 -21,-5z"/>
   <path class="fil7" d="M76 146c-2,-3 -8,-4 -11,-11 -1,-2 -1,-4 -1,-6 0,-2 2,-4 -2,-5 -5,2 -4,4 -4,6 0,3 1,5 2,7 1,3 10,15 16,9z"/>
   <path class="fil7" d="M142 107c-3,-4 -12,-8 -18,-9 -4,-1 -19,-3 -20,1 -1,4 14,-1 28,7 4,2 5,6 10,1z"/>
   <g>
    <g>
     <path class="fil8" d="M125 123c0,5 0,3 7,8 4,2 8,6 12,8l6 -4c-6,-5 -20,-10 -10,-16 10,-6 17,3 25,7l6 -4c-9,-7 -19,-16 -32,-8 -5,3 -6,5 -7,7 -3,1 -3,0 -6,1z"/>
     <path class="fil8" d="M183 108c-4,11 -20,9 -5,-4l5 4zm-24 2c2,-2 5,-10 13,-9 2,4 -13,11 -6,16 4,3 15,2 21,-8l6 0c1,-1 1,-2 1,-3 -14,-3 -13,-10 -23,-9 -11,1 -17,9 -18,13 2,1 3,0 5,0z"/>
    </g>
    <path class="fil8" d="M103 142c0,-2 0,-3 -2,-3 -10,2 -22,10 -17,15 7,8 18,-3 26,-3 6,4 -10,8 -14,10l2 4c9,-3 23,-8 21,-15 -3,-9 -19,1 -26,2 -6,-4 7,-7 11,-9z"/>
    <polygon class="fil8" points="124,150 130,146 113,135 105,137 "/>
    <polygon class="fil8" points="136,143 142,139 123,126 118,131 "/>
   </g>
   <path class="fil7" d="M129 113l4 -2c-3,-5 -20,-10 -25,-7 -5,3 6,3 8,4 7,1 8,4 13,5z"/>
   <path class="fil7" d="M80 142c7,-3 -1,-5 -3,-9 -1,-2 -2,-3 -2,-5 0,-2 1,-3 -3,-3 -7,4 1,15 8,17z"/>
   <path class="fil7" d="M120 118c11,-6 -16,-11 -14,-5 1,1 3,1 5,2 5,1 6,3 9,4z"/>
   <path class="fil7" d="M87 137c6,-1 4,-2 1,-5 -2,-2 -2,-5 -4,-6 -7,-2 -4,8 3,11z"/>
  </g>
 </g>
</svg>
