<?xml version="1.0" encoding="UTF-8"?>
<!DOCTYPE svg PUBLIC "-//W3C//DTD SVG 1.1//EN" "http://www.w3.org/Graphics/SVG/1.1/DTD/svg11.dtd">
<!-- Creator: CorelDRAW 2020 (64-Bit) -->
<svg xmlns="http://www.w3.org/2000/svg" xml:space="preserve" width="2036px" height="1539px" version="1.1" style="shape-rendering:geometricPrecision; text-rendering:geometricPrecision; image-rendering:optimizeQuality; fill-rule:evenodd; clip-rule:evenodd"
viewBox="0 0 61 46"
 xmlns:xlink="http://www.w3.org/1999/xlink"
 xmlns:xodm="http://www.corel.com/coreldraw/odm/2003">
 <defs>
  <style type="text/css">
   <![CDATA[
    .fil0 {fill:#FEFEFE;fill-rule:nonzero}
    .fil26 {fill:#F9B59C;fill-rule:nonzero}
    .fil5 {fill:#F3786E;fill-rule:nonzero}
    .fil3 {fill:#F7F7F6;fill-rule:nonzero}
    .fil2 {fill:#EFEFEF;fill-rule:nonzero}
    .fil4 {fill:#E5E6E5;fill-rule:nonzero}
    .fil1 {fill:#D9DAD9;fill-rule:nonzero}
    .fil24 {fill:#CC5F52;fill-rule:nonzero}
    .fil28 {fill:#C57357;fill-rule:nonzero}
    .fil27 {fill:#BD8671;fill-rule:nonzero}
    .fil20 {fill:#8D453F;fill-rule:nonzero}
    .fil16 {fill:#ABAEAF;fill-rule:nonzero}
    .fil15 {fill:#9D9FA0;fill-rule:nonzero}
    .fil25 {fill:#949899;fill-rule:nonzero}
    .fil18 {fill:#859BA2;fill-rule:nonzero}
    .fil19 {fill:#7B8B90;fill-rule:nonzero}
    .fil9 {fill:#748B93;fill-rule:nonzero}
    .fil22 {fill:#606E73;fill-rule:nonzero}
    .fil23 {fill:#5A6569;fill-rule:nonzero}
    .fil10 {fill:#54656A;fill-rule:nonzero}
    .fil8 {fill:#42616A;fill-rule:nonzero}
    .fil11 {fill:#33484E;fill-rule:nonzero}
    .fil13 {fill:#2C3C43;fill-rule:nonzero}
    .fil21 {fill:#2A383D;fill-rule:nonzero}
    .fil17 {fill:#273035;fill-rule:nonzero}
    .fil6 {fill:#B85C2F;fill-rule:nonzero}
    .fil14 {fill:#C86C3F;fill-rule:nonzero}
    .fil7 {fill:#DB865C;fill-rule:nonzero}
    .fil12 {fill:darkorange;fill-rule:nonzero}
   ]]>
  </style>
 </defs>
 <g id="Capa_x0020_1">
  <metadata id="CorelCorpID_0Corel-Layer"/>
  <g id="_1340364837968">
   <path class="fil0" d="M21 32c0,0 -2,0 -5,0 -3,0 -5,0 -5,0 0,0 2,0 5,0 3,0 5,0 5,0z"/>
   <path class="fil0" d="M21 35c0,0 -2,0 -5,0 -3,0 -5,0 -5,0 0,0 2,0 5,0 3,0 5,0 5,0z"/>
   <path class="fil0" d="M21 37c0,0 -2,0 -5,0 -3,0 -5,0 -5,0 0,0 2,0 5,0 3,0 5,0 5,0z"/>
   <path class="fil0" d="M21 40c0,0 -2,0 -5,0 -3,0 -5,0 -5,0 0,0 2,0 5,0 3,0 5,0 5,0z"/>
   <path class="fil0" d="M21 42c0,0 -2,0 -5,0 -3,0 -5,0 -5,0 0,0 2,0 5,0 3,0 5,0 5,0z"/>
   <polygon class="fil1" points="10,46 22,46 22,45 10,45 "/>
   <path class="fil0" d="M16 18c0,0 0,0 -1,0 0,0 0,0 0,0 0,0 0,0 1,0 0,0 0,0 0,0z"/>
   <path class="fil0" d="M17 21c0,0 0,0 -1,1 -1,0 -1,1 -1,1 0,0 0,0 1,-1 1,0 1,-1 1,-1z"/>
   <path class="fil0" d="M16 22c0,0 0,0 0,0 0,0 0,0 0,0 0,0 0,0 0,0 0,0 0,0 0,0z"/>
   <path class="fil0" d="M17 28c0,0 0,0 0,0 0,0 -1,0 -1,1 0,0 -1,0 -1,0 0,0 0,0 0,0 0,0 0,0 0,0 0,0 1,0 1,0 0,0 1,0 1,-1 0,0 0,0 0,0z"/>
   <path class="fil0" d="M17 29c0,0 0,0 -1,0 0,0 -1,0 -1,0 0,0 0,0 1,0 0,0 1,0 1,0z"/>
   <path class="fil0" d="M16 34c0,0 0,0 -1,0 0,0 -1,0 -1,0 0,0 0,0 1,0 0,0 1,0 1,0z"/>
   <path class="fil0" d="M17 38c0,0 0,0 -1,1 -1,0 -1,0 -1,0 0,0 0,0 1,-1 1,0 1,0 1,0z"/>
   <path class="fil0" d="M17 39c0,0 0,0 0,0 0,0 0,0 0,0 0,0 0,0 0,0 0,0 0,0 0,0z"/>
   <path class="fil0" d="M16 44c0,0 0,0 -1,0 0,0 0,0 0,0 0,0 0,0 1,0 0,0 1,0 1,0z"/>
   <polygon class="fil2" points="0,29 1,29 1,28 0,28 "/>
   <polygon class="fil3" points="0,31 1,31 1,30 0,30 "/>
   <polygon class="fil3" points="0,32 1,32 1,31 0,31 "/>
   <polygon class="fil3" points="0,34 1,34 1,33 0,33 "/>
   <polygon class="fil3" points="0,36 1,36 1,35 0,35 "/>
   <polygon class="fil3" points="0,37 1,37 1,36 0,36 "/>
   <polygon class="fil4" points="0,39 1,39 1,38 0,38 "/>
   <polygon class="fil3" points="0,41 1,41 1,40 0,40 "/>
   <polygon class="fil3" points="0,43 1,43 1,42 0,42 "/>
   <polygon class="fil5" points="22,46 25,46 25,0 22,0 "/>
   <path class="fil6" d="M25 46l-3 0 0 0 1 0 0 0 1 0 0 0 0 0 0 0zm0 -27l-3 0 0 -19 3 0 0 19z"/>
   <polygon class="fil7" points="25,46 35,46 35,0 25,0 "/>
   <polygon class="fil8" points="25,2 31,2 31,1 25,1 "/>
   <polygon class="fil9" points="30,2 25,2 25,1 31,1 25,1 25,1 30,1 "/>
   <polygon class="fil8" points="32,2 34,2 34,1 32,1 "/>
   <polygon class="fil9" points="34,2 32,2 32,1 34,1 32,1 32,1 34,1 "/>
   <polygon class="fil10" points="31,2 30,2 30,1 25,1 25,1 31,1 "/>
   <polygon class="fil10" points="34,2 34,2 34,1 32,1 32,1 34,1 "/>
   <polygon class="fil8" points="25,5 31,5 31,3 25,3 "/>
   <polygon class="fil9" points="30,5 25,5 25,3 31,3 25,3 25,4 30,4 "/>
   <polygon class="fil8" points="32,5 34,5 34,3 32,3 "/>
   <polygon class="fil9" points="34,5 32,5 32,3 34,3 32,3 32,4 34,4 "/>
   <polygon class="fil10" points="31,5 30,5 30,4 25,4 25,3 31,3 "/>
   <polygon class="fil10" points="34,5 34,5 34,4 32,4 32,3 34,3 "/>
   <polygon class="fil8" points="25,7 31,7 31,6 25,6 "/>
   <polygon class="fil9" points="30,7 25,7 25,6 31,6 25,6 25,6 30,6 "/>
   <polygon class="fil8" points="32,7 34,7 34,6 32,6 "/>
   <polygon class="fil9" points="34,7 34,7 34,7 33,7 33,7 32,7 32,6 34,6 32,6 32,6 34,6 "/>
   <polygon class="fil10" points="31,7 30,7 30,6 25,6 25,6 31,6 "/>
   <polygon class="fil10" points="34,7 34,7 34,6 32,6 32,6 34,6 "/>
   <polygon class="fil8" points="25,10 31,10 31,8 25,8 "/>
   <polygon class="fil8" points="32,10 34,10 34,8 32,8 "/>
   <polygon class="fil9" points="32,10 32,10 32,8 33,8 32,8 32,8 33,8 33,9 32,9 "/>
   <polygon class="fil9" points="34,10 34,10 34,8 34,8 "/>
   <polygon class="fil9" points="30,10 25,10 25,8 31,8 25,8 25,9 30,9 "/>
   <polygon class="fil10" points="31,10 30,10 30,9 25,9 25,8 31,8 "/>
   <polygon class="fil11" points="33,8 34,8 34,8 33,8 "/>
   <polygon class="fil10" points="32,8 33,8 33,8 32,8 "/>
   <polygon class="fil10" points="34,10 34,10 34,8 34,8 34,8 34,8 "/>
   <polygon class="fil8" points="25,12 31,12 31,11 25,11 "/>
   <polygon class="fil9" points="30,12 29,12 29,11 27,11 27,12 25,12 25,11 31,11 25,11 25,11 30,11 "/>
   <polygon class="fil8" points="32,12 34,12 34,11 32,11 "/>
   <polygon class="fil9" points="34,12 34,12 34,11 34,11 "/>
   <polygon class="fil10" points="31,12 30,12 30,11 25,11 25,11 31,11 "/>
   <polygon class="fil9" points="32,12 32,12 32,11 32,11 32,11 32,11 32,11 "/>
   <polygon class="fil11" points="32,11 34,11 34,11 32,11 "/>
   <polygon class="fil10" points="34,12 34,12 34,11 34,11 34,11 34,11 "/>
   <polygon class="fil10" points="32,11 32,11 32,11 32,11 "/>
   <polygon class="fil8" points="25,15 31,15 31,13 25,13 "/>
   <polygon class="fil8" points="32,15 34,15 34,13 32,13 "/>
   <polygon class="fil11" points="31,15 30,15 30,13 25,13 25,13 31,13 "/>
   <polygon class="fil11" points="34,15 34,15 34,13 32,13 32,13 34,13 "/>
   <polygon class="fil8" points="25,17 31,17 31,16 25,16 "/>
   <polygon class="fil8" points="32,17 34,17 34,16 32,16 "/>
   <polygon class="fil11" points="31,17 30,17 30,16 25,16 25,16 31,16 "/>
   <polygon class="fil11" points="34,17 34,17 34,16 32,16 32,16 34,16 "/>
   <polygon class="fil8" points="25,19 31,19 31,18 25,18 "/>
   <polygon class="fil8" points="32,19 34,19 34,18 32,18 "/>
   <polygon class="fil11" points="31,19 30,19 30,18 25,18 25,18 31,18 "/>
   <polygon class="fil11" points="34,19 34,19 34,18 32,18 32,18 34,18 "/>
   <polygon class="fil8" points="25,22 31,22 31,20 25,20 "/>
   <polygon class="fil8" points="32,22 34,22 34,20 32,20 "/>
   <polygon class="fil11" points="31,22 30,22 30,21 30,21 30,20 31,20 "/>
   <polygon class="fil11" points="34,22 34,22 34,21 32,21 32,20 34,20 "/>
   <polygon class="fil8" points="25,24 31,24 31,23 25,23 "/>
   <polygon class="fil8" points="32,24 34,24 34,23 32,23 "/>
   <polygon class="fil11" points="31,24 30,24 30,23 30,23 30,23 31,23 "/>
   <polygon class="fil11" points="34,24 34,24 34,23 32,23 32,23 34,23 "/>
   <polygon class="fil8" points="25,27 31,27 31,25 25,25 "/>
   <polygon class="fil8" points="32,27 34,27 34,25 32,25 "/>
   <polygon class="fil11" points="31,27 30,27 30,26 30,26 30,25 31,25 "/>
   <polygon class="fil11" points="34,27 34,27 34,26 32,26 32,25 34,25 34,26 34,26 "/>
   <polygon class="fil8" points="25,29 31,29 31,28 25,28 "/>
   <polygon class="fil8" points="32,29 34,29 34,28 32,28 "/>
   <polygon class="fil11" points="31,29 30,29 30,28 30,28 30,28 31,28 "/>
   <polygon class="fil11" points="34,29 34,29 34,28 32,28 32,28 34,28 "/>
   <polygon class="fil8" points="25,32 31,32 31,30 25,30 "/>
   <polygon class="fil8" points="32,32 34,32 34,30 32,30 "/>
   <polygon class="fil11" points="31,32 30,32 30,30 30,30 30,30 31,30 "/>
   <polygon class="fil11" points="34,32 34,32 34,30 32,30 32,30 34,30 "/>
   <polygon class="fil8" points="23,2 24,2 24,1 23,1 "/>
   <polygon class="fil8" points="23,5 24,5 24,4 23,4 "/>
   <polygon class="fil8" points="23,7 24,7 24,6 23,6 "/>
   <polygon class="fil8" points="23,9 24,9 24,8 23,8 "/>
   <polygon class="fil8" points="23,12 24,12 24,11 23,11 "/>
   <polygon class="fil8" points="23,14 24,14 24,13 23,13 "/>
   <polygon class="fil8" points="23,17 24,17 24,16 23,16 "/>
   <polygon class="fil8" points="23,19 24,19 24,18 23,18 "/>
   <polygon class="fil8" points="23,21 24,21 24,20 23,20 "/>
   <polygon class="fil8" points="23,24 24,24 24,23 23,23 "/>
   <polygon class="fil8" points="23,26 24,26 24,25 23,25 "/>
   <polygon class="fil8" points="23,29 24,29 24,28 23,28 "/>
   <polygon class="fil8" points="22,2 23,2 23,1 22,1 "/>
   <polygon class="fil8" points="22,5 23,5 23,4 22,4 "/>
   <polygon class="fil8" points="22,7 23,7 23,6 22,6 "/>
   <polygon class="fil8" points="22,9 23,9 23,8 22,8 "/>
   <polygon class="fil8" points="22,12 23,12 23,11 22,11 "/>
   <polygon class="fil8" points="22,14 23,14 23,13 22,13 "/>
   <polygon class="fil8" points="22,17 23,17 23,16 22,16 "/>
   <polygon class="fil8" points="22,19 23,19 23,18 22,18 "/>
   <polygon class="fil8" points="22,21 23,21 23,20 22,20 "/>
   <polygon class="fil8" points="22,24 23,24 23,23 22,23 "/>
   <polygon class="fil8" points="22,26 23,26 23,25 22,25 "/>
   <polygon class="fil8" points="22,29 23,29 23,28 22,28 "/>
   <path class="fil0" d="M31 19c0,0 -1,0 -3,0 -1,0 -3,0 -3,0 0,0 1,0 3,0 1,0 3,0 3,0z"/>
   <path class="fil0" d="M34 19c0,0 -1,0 -1,0 -1,0 -1,0 -1,0 0,0 1,0 1,0 1,0 1,0 1,0z"/>
   <path class="fil0" d="M31 22c0,0 -1,0 -3,0 -1,0 -3,0 -3,0 0,0 1,0 3,0 1,0 3,0 3,0z"/>
   <path class="fil0" d="M34 22c0,0 -1,0 -1,0 -1,0 -1,0 -1,0 0,0 1,0 1,0 1,0 1,0 1,0z"/>
   <path class="fil0" d="M31 24c0,0 -1,0 -3,0 -1,0 -3,0 -3,0 0,0 1,0 3,0 1,0 3,0 3,0z"/>
   <path class="fil0" d="M34 24c0,0 -1,0 -1,0 -1,0 -1,0 -1,0 0,0 1,0 1,0 1,0 1,0 1,0z"/>
   <path class="fil0" d="M31 27c0,0 -1,0 -3,0 -1,0 -3,0 -3,0 0,0 1,0 3,0 1,0 3,0 3,0z"/>
   <path class="fil0" d="M34 27c0,0 -1,0 -1,0 -1,0 -1,0 -1,0 0,0 1,0 1,0 1,0 1,0 1,0z"/>
   <path class="fil0" d="M31 29c0,0 -1,0 -3,0 -1,0 -3,0 -3,0 0,0 1,0 3,0 1,0 3,0 3,0z"/>
   <path class="fil0" d="M34 29c0,0 -1,0 -1,0 -1,0 -1,0 -1,0 0,0 1,0 1,0 1,0 1,0 1,0z"/>
   <path class="fil0" d="M31 32c0,0 -1,0 -3,0 -1,0 -3,0 -3,0 0,0 1,0 3,0 1,0 3,0 3,0z"/>
   <path class="fil0" d="M34 32c0,0 -1,0 -1,0 -1,0 -1,0 -1,0 0,0 1,0 1,0 1,0 1,0 1,0z"/>
   <path class="fil0" d="M31 10c0,0 -1,0 -3,0 -1,0 -3,0 -3,0 0,0 1,0 3,0 1,0 3,0 3,0z"/>
   <path class="fil0" d="M31 7c0,0 -1,0 -3,0 -1,0 -3,0 -3,0 0,0 1,0 3,0 1,0 3,0 3,0z"/>
   <path class="fil0" d="M31 5c0,0 -1,0 -3,0 -1,0 -3,0 -3,0 0,0 1,0 3,0 1,0 3,0 3,0z"/>
   <path class="fil0" d="M31 12c0,0 -1,0 -3,0 -1,0 -3,0 -3,0 0,0 1,0 3,0 1,0 3,0 3,0z"/>
   <path class="fil0" d="M31 15c0,0 -1,0 -3,0 -1,0 -3,0 -3,0 0,0 1,0 3,0 1,0 3,0 3,0z"/>
   <path class="fil0" d="M31 17c0,0 -1,0 -3,0 -1,0 -3,0 -3,0 0,0 1,0 3,0 1,0 3,0 3,0z"/>
   <path class="fil0" d="M30 2c0,0 -1,0 -3,0 -1,0 -3,0 -3,0 0,0 1,0 3,0 1,0 3,0 3,0z"/>
   <path class="fil0" d="M34 2c0,0 -1,0 -1,0 -1,0 -1,0 -1,0 0,0 1,0 1,0 1,0 1,0 1,0z"/>
   <path class="fil0" d="M34 5c0,0 -1,0 -1,0 -1,0 -1,0 -1,0 0,0 1,0 1,0 1,0 1,0 1,0z"/>
   <path class="fil0" d="M34 7c0,0 -1,0 -1,0 -1,0 -1,0 -1,0 0,0 1,0 1,0 1,0 1,0 1,0z"/>
   <path class="fil0" d="M34 10c0,0 -1,0 -1,0 -1,0 -1,0 -1,0 0,0 1,0 1,0 1,0 1,0 1,0z"/>
   <path class="fil0" d="M34 12c0,0 -1,0 -1,0 -1,0 -1,0 -1,0 0,0 1,0 1,0 1,0 1,0 1,0z"/>
   <path class="fil0" d="M34 15c0,0 -1,0 -1,0 -1,0 -1,0 -1,0 0,0 1,0 1,0 1,0 1,0 1,0z"/>
   <path class="fil0" d="M34 17c0,0 -1,0 -1,0 -1,0 -1,0 -1,0 0,0 1,0 1,0 1,0 1,0 1,0z"/>
   <polygon class="fil7" points="5,46 19,46 19,13 5,13 "/>
   <polygon class="fil8" points="11,45 12,45 12,14 11,14 "/>
   <polygon class="fil8" points="12,45 13,45 13,14 12,14 "/>
   <polygon class="fil8" points="14,45 15,45 15,14 14,14 "/>
   <polygon class="fil8" points="6,45 7,45 7,14 6,14 "/>
   <polygon class="fil8" points="8,45 9,45 9,14 8,14 "/>
   <polygon class="fil8" points="15,45 16,45 16,14 15,14 "/>
   <polygon class="fil8" points="17,45 18,45 18,14 17,14 "/>
   <polygon class="fil6" points="10,28 9,28 9,14 8,14 8,28 7,28 7,14 6,14 6,28 5,28 5,13 10,13 "/>
   <polygon class="fil11" points="6,28 7,28 7,14 6,14 "/>
   <polygon class="fil11" points="8,28 9,28 9,14 8,14 "/>
   <path class="fil0" d="M15 18c0,0 0,0 0,0 0,0 0,0 0,0 0,0 0,0 0,0 0,0 0,0 0,0z"/>
   <path class="fil0" d="M16 18c0,0 0,0 0,0 0,0 0,0 0,0 0,0 0,0 0,0 0,0 0,0 0,0z"/>
   <path class="fil0" d="M17 17c0,0 0,0 0,0 0,0 0,0 0,0 0,0 0,0 0,0 0,0 0,0 0,0z"/>
   <polygon class="fil12" points="38,10 44,10 44,8 38,8 "/>
   <polygon class="fil8" points="38,10 44,10 44,9 38,9 "/>
   <path class="fil9" d="M44 10l-1 0c0,-1 0,-1 0,-1l1 0 0 1zm-1 0l-2 0c0,-1 0,-1 0,-1l2 0c0,0 0,1 0,1zm-2 0l-2 0c0,-1 0,-1 0,-1l2 0c0,0 0,1 0,1zm-2 0l-1 0 0 -1 1 0c0,0 0,1 0,1z"/>
   <polygon class="fil12" points="36,32 45,32 45,10 36,10 "/>
   <polygon class="fil8" points="37,32 45,32 45,10 37,10 "/>
   <path class="fil9" d="M44 22l0 0c0,-1 0,-1 0,-2 0,-4 0,-8 0,-10l1 0 0 3 -1 0 0 9zm0 0l-1 0 0 -6 -1 0c0,-2 0,-4 0,-6l2 0c0,2 0,6 0,10 0,1 0,1 0,2zm-5 -2l-2 0 0 -10 2 0c0,2 0,5 0,8l0 0 0 2zm1 -2l-1 0c0,-3 0,-6 0,-8l2 0c0,1 0,3 0,6l-1 0 0 2z"/>
   <path class="fil13" d="M45 13c0,0 -2,0 -4,0 -2,0 -4,0 -4,0 0,0 2,0 4,0 2,0 4,0 4,0z"/>
   <path class="fil13" d="M45 15c0,0 -2,0 -4,0 -2,0 -4,0 -4,0 0,0 2,0 4,0 2,0 4,0 4,0z"/>
   <path class="fil13" d="M45 17c0,0 -2,0 -4,0 -2,0 -4,0 -4,0 0,0 2,0 4,0 2,0 4,0 4,0z"/>
   <path class="fil13" d="M45 19c0,0 -2,0 -4,0 -2,0 -4,0 -4,0 0,0 2,0 4,0 2,0 4,0 4,0z"/>
   <path class="fil13" d="M45 22c0,0 -2,0 -4,0 -2,0 -4,0 -4,0 0,0 2,0 4,0 2,0 4,0 4,0z"/>
   <path class="fil13" d="M45 24c0,0 -2,0 -4,0 -2,0 -4,0 -4,0 0,0 2,0 4,0 2,0 4,0 4,0z"/>
   <path class="fil13" d="M45 26c0,0 -2,0 -4,0 -2,0 -4,0 -4,0 0,0 2,0 4,0 2,0 4,0 4,0z"/>
   <path class="fil13" d="M45 28c0,0 -2,0 -4,0 -2,0 -4,0 -4,0 0,0 2,0 4,0 2,0 4,0 4,0z"/>
   <path class="fil13" d="M45 31c0,0 -2,0 -4,0 -2,0 -4,0 -4,0 0,0 2,0 4,0 2,0 4,0 4,0z"/>
   <path class="fil13" d="M39 33c0,0 0,-5 0,-12 0,-7 0,-12 0,-12 0,0 0,5 0,12 0,7 0,12 0,12z"/>
   <path class="fil13" d="M41 33c0,0 0,-5 0,-12 0,-7 0,-12 0,-12 0,0 0,5 0,12 0,7 0,12 0,12z"/>
   <path class="fil13" d="M43 33c0,0 0,-5 0,-12 0,-7 0,-12 0,-12 0,0 0,5 0,12 0,7 0,12 0,12z"/>
   <polygon class="fil13" points="37,10 38,10 38,8 37,8 "/>
   <polygon class="fil14" points="37,10 38,10 38,8 37,8 "/>
   <polygon class="fil13" points="36,29 37,29 37,10 36,10 "/>
   <polygon class="fil6" points="36,26 37,26 37,10 36,10 "/>
   <path class="fil0" d="M41 13c0,0 0,0 -1,1 0,0 -1,1 -1,1 0,0 0,0 1,-1 0,0 1,-1 1,-1z"/>
   <path class="fil0" d="M43 13c0,0 0,0 -1,1 0,0 -1,1 -1,1 0,0 0,0 1,-1 0,0 1,-1 1,-1z"/>
   <path class="fil0" d="M43 11c0,0 0,0 -1,1 0,0 -1,1 -1,1 0,0 0,0 1,-1 0,0 1,-1 1,-1z"/>
   <polygon class="fil7" points="60,41 48,41 48,20 60,14 "/>
   <polygon class="fil4" points="53,30 54,30 54,29 53,29 "/>
   <polygon class="fil15" points="54,30 54,30 54,29 53,29 53,29 54,29 "/>
   <polygon class="fil4" points="53,33 54,33 54,32 53,32 "/>
   <polygon class="fil15" points="54,33 54,33 54,32 53,32 53,32 54,32 "/>
   <polygon class="fil4" points="53,36 54,36 54,35 53,35 "/>
   <polygon class="fil15" points="54,36 54,36 54,35 53,35 53,35 54,35 "/>
   <polygon class="fil4" points="53,41 54,41 54,38 53,38 "/>
   <polygon class="fil15" points="54,40 54,40 54,38 53,38 53,38 54,38 "/>
   <polygon class="fil4" points="53,27 54,27 54,26 53,26 "/>
   <polygon class="fil15" points="54,27 54,27 54,26 53,26 53,26 54,26 "/>
   <polygon class="fil4" points="53,24 54,24 54,23 53,23 "/>
   <polygon class="fil15" points="54,24 54,24 54,23 53,23 53,23 54,23 "/>
   <polygon class="fil4" points="53,21 54,21 54,20 53,20 "/>
   <polygon class="fil15" points="54,21 54,21 54,20 53,20 53,20 54,20 "/>
   <polygon class="fil4" points="55,30 56,30 56,29 55,29 "/>
   <polygon class="fil15" points="56,30 56,30 56,29 55,29 55,29 56,29 "/>
   <polygon class="fil4" points="55,33 56,33 56,32 55,32 "/>
   <polygon class="fil15" points="56,33 56,33 56,32 55,32 55,32 56,32 "/>
   <polygon class="fil4" points="55,36 56,36 56,34 55,34 "/>
   <polygon class="fil15" points="56,36 56,36 56,35 55,35 55,34 56,34 "/>
   <polygon class="fil4" points="55,41 56,41 56,37 55,37 "/>
   <polygon class="fil15" points="56,40 56,40 56,38 55,38 55,37 56,37 "/>
   <polygon class="fil4" points="55,27 56,27 56,26 55,26 "/>
   <polygon class="fil15" points="56,27 56,27 56,26 55,26 55,26 56,26 "/>
   <polygon class="fil4" points="55,24 56,24 56,23 55,23 "/>
   <polygon class="fil15" points="56,24 56,24 56,23 55,23 55,23 56,23 "/>
   <polygon class="fil4" points="55,21 56,21 56,20 55,20 "/>
   <polygon class="fil15" points="56,21 56,21 56,20 55,20 55,20 56,20 "/>
   <polygon class="fil4" points="58,30 59,30 59,29 58,29 "/>
   <polygon class="fil15" points="59,30 58,30 58,29 58,29 58,29 59,29 "/>
   <polygon class="fil4" points="58,33 59,33 59,32 58,32 "/>
   <polygon class="fil15" points="59,33 58,33 58,32 58,32 58,32 59,32 "/>
   <polygon class="fil4" points="58,36 59,36 59,35 58,35 "/>
   <polygon class="fil15" points="59,36 58,36 58,35 58,35 58,35 59,35 "/>
   <polygon class="fil4" points="58,41 59,41 59,37 58,37 "/>
   <polygon class="fil15" points="59,40 58,40 58,38 58,38 58,37 59,37 "/>
   <polygon class="fil4" points="58,27 59,27 59,26 58,26 "/>
   <polygon class="fil15" points="59,27 58,27 58,26 58,26 58,26 59,26 "/>
   <polygon class="fil4" points="58,24 59,24 59,23 58,23 "/>
   <polygon class="fil15" points="59,24 58,24 58,23 58,23 58,23 59,23 "/>
   <polygon class="fil4" points="58,21 59,21 59,20 58,20 "/>
   <polygon class="fil15" points="59,21 58,21 58,20 58,20 58,20 59,20 "/>
   <polygon class="fil4" points="58,19 59,19 59,17 58,17 "/>
   <polygon class="fil15" points="59,19 58,19 58,17 58,17 58,17 59,17 "/>
   <polygon class="fil13" points="50,22 51,22 51,20 50,20 "/>
   <polygon class="fil0" points="50,22 51,22 51,22 50,22 "/>
   <polygon class="fil13" points="50,25 51,25 51,23 50,23 "/>
   <polygon class="fil0" points="50,25 51,25 51,25 50,25 "/>
   <polygon class="fil13" points="50,27 51,27 51,26 50,26 "/>
   <polygon class="fil0" points="50,28 51,28 51,27 50,27 "/>
   <polygon class="fil13" points="50,30 51,30 51,29 50,29 "/>
   <polygon class="fil0" points="50,31 51,31 51,30 50,30 "/>
   <polygon class="fil13" points="50,33 51,33 51,32 50,32 "/>
   <polygon class="fil0" points="50,33 51,33 51,33 50,33 "/>
   <polygon class="fil13" points="50,36 51,36 51,34 50,34 "/>
   <polygon class="fil0" points="50,36 51,36 51,36 50,36 "/>
   <polygon class="fil13" points="50,39 51,39 51,37 50,37 "/>
   <polygon class="fil0" points="50,39 51,39 51,39 50,39 "/>
   <polygon class="fil13" points="49,22 49,22 49,20 49,20 "/>
   <polygon class="fil0" points="49,22 49,22 49,22 49,22 "/>
   <polygon class="fil13" points="49,25 49,25 49,23 49,23 "/>
   <polygon class="fil0" points="49,25 49,25 49,25 49,25 "/>
   <polygon class="fil13" points="49,27 49,27 49,26 49,26 "/>
   <polygon class="fil0" points="49,28 49,28 49,27 49,27 "/>
   <polygon class="fil13" points="49,30 49,30 49,29 49,29 "/>
   <polygon class="fil0" points="49,31 49,31 49,30 49,30 "/>
   <polygon class="fil13" points="49,33 49,33 49,32 49,32 "/>
   <polygon class="fil0" points="49,33 49,33 49,33 49,33 "/>
   <polygon class="fil13" points="49,36 49,36 49,34 49,34 "/>
   <polygon class="fil0" points="49,36 50,36 50,36 49,36 "/>
   <polygon class="fil13" points="49,39 50,39 50,37 49,37 "/>
   <polygon class="fil0" points="49,39 50,39 50,39 49,39 "/>
   <polygon class="fil16" points="49,41 49,41 49,41 49,41 "/>
   <path class="fil6" d="M49 41l0 0 0 0 0 0 0 0zm3 -1l-3 0 0 -13 0 0 0 -7 3 -2 0 22zm-1 -1l0 0 1 0 0 0 -1 0zm-1 0l0 0 1 0 0 0 -1 0zm1 -2l0 2 0 0 0 -2 0 0zm-1 0l0 2 0 0 0 -2 0 0zm1 -1l0 0 1 0 0 0 -1 0zm-1 0l0 0 1 0 0 0 -1 0zm1 -2l0 2 0 0 0 -2 0 0zm-1 0l0 2 0 0 0 -2 0 0zm1 -1l0 0 1 0 0 0 -1 0zm-1 0l0 0 1 0 0 0 -1 0zm1 -2l0 2 0 0 0 -2 0 0zm-1 0l0 2 0 0 0 -2 0 0zm1 -1l0 0 1 0 0 0 -1 0zm-1 0l0 0 1 0 0 0 -1 0zm1 -2l0 2 0 0 0 -2 0 0zm-1 0l0 2 0 0 0 -2 0 0zm1 -1l0 0 1 0 0 0 -1 0zm-1 0l0 0 1 0 0 0 -1 0zm1 -2l0 2 0 0 0 -2 0 0zm-1 0l0 2 0 0 0 -2 0 0zm1 -1l0 0 1 0 0 0 -1 0zm-1 0l0 0 1 0 0 0 -1 0zm1 -2l0 2 0 0 0 -2 0 0zm-1 0l0 2 0 0 0 -2 0 0zm1 -1l0 0 1 0 0 0 -1 0zm-1 0l0 0 1 0 0 0 -1 0zm1 -2l0 2 0 0 0 -2 0 0zm-1 0l0 2 0 0 0 -2 0 0z"/>
   <polygon class="fil17" points="50,22 51,22 51,20 50,20 "/>
   <polygon class="fil16" points="50,22 51,22 51,22 50,22 "/>
   <polygon class="fil17" points="50,25 51,25 51,23 50,23 "/>
   <polygon class="fil16" points="50,25 51,25 51,25 50,25 "/>
   <polygon class="fil17" points="50,27 51,27 51,26 50,26 "/>
   <polygon class="fil16" points="50,28 51,28 51,27 50,27 "/>
   <polygon class="fil17" points="50,30 51,30 51,29 50,29 "/>
   <polygon class="fil16" points="50,31 51,31 51,30 50,30 "/>
   <polygon class="fil17" points="50,33 51,33 51,32 50,32 "/>
   <polygon class="fil16" points="50,33 51,33 51,33 50,33 "/>
   <polygon class="fil17" points="50,36 51,36 51,34 50,34 "/>
   <polygon class="fil16" points="50,36 51,36 51,36 50,36 "/>
   <polygon class="fil17" points="50,39 51,39 51,37 50,37 "/>
   <polygon class="fil16" points="50,39 51,39 51,39 50,39 "/>
   <polygon class="fil17" points="49,22 49,22 49,20 49,20 "/>
   <polygon class="fil16" points="49,22 49,22 49,22 49,22 "/>
   <polygon class="fil17" points="49,25 49,25 49,23 49,23 "/>
   <polygon class="fil16" points="49,25 49,25 49,25 49,25 "/>
   <polygon class="fil17" points="49,27 49,27 49,26 49,26 "/>
   <polygon class="fil16" points="49,28 49,28 49,27 49,27 "/>
   <polygon class="fil17" points="49,30 49,30 49,29 49,29 "/>
   <polygon class="fil16" points="49,31 49,31 49,30 49,30 "/>
   <polygon class="fil17" points="49,33 49,33 49,32 49,32 "/>
   <polygon class="fil16" points="49,33 49,33 49,33 49,33 "/>
   <polygon class="fil17" points="49,36 49,36 49,34 49,34 "/>
   <polygon class="fil16" points="49,36 50,36 50,36 49,36 "/>
   <polygon class="fil17" points="49,39 50,39 50,37 49,37 "/>
   <polygon class="fil16" points="49,39 50,39 50,39 49,39 "/>
   <polygon class="fil7" points="20,46 30,46 30,19 20,19 "/>
   <polygon class="fil8" points="24,21 24,21 24,20 24,20 "/>
   <polygon class="fil8" points="25,21 25,21 25,20 25,20 "/>
   <polygon class="fil8" points="26,21 26,21 26,20 26,20 "/>
   <polygon class="fil8" points="27,21 27,21 27,20 27,20 "/>
   <polygon class="fil8" points="28,21 28,21 28,20 28,20 "/>
   <polygon class="fil8" points="29,21 29,21 29,20 29,20 "/>
   <polygon class="fil8" points="20,21 21,21 21,20 20,20 "/>
   <polygon class="fil8" points="21,21 22,21 22,20 21,20 "/>
   <polygon class="fil8" points="22,21 23,21 23,20 22,20 "/>
   <polygon class="fil8" points="24,23 24,23 24,22 24,22 "/>
   <polygon class="fil8" points="25,23 25,23 25,22 25,22 "/>
   <polygon class="fil8" points="26,23 26,23 26,22 26,22 "/>
   <polygon class="fil8" points="27,23 27,23 27,22 27,22 "/>
   <polygon class="fil8" points="28,23 28,23 28,22 28,22 "/>
   <polygon class="fil8" points="29,23 29,23 29,22 29,22 "/>
   <polygon class="fil8" points="20,23 21,23 21,22 20,22 "/>
   <polygon class="fil8" points="21,23 22,23 22,22 21,22 "/>
   <polygon class="fil8" points="22,23 23,23 23,22 22,22 "/>
   <polygon class="fil8" points="24,24 24,24 24,23 24,23 "/>
   <polygon class="fil8" points="25,24 25,24 25,23 25,23 "/>
   <polygon class="fil8" points="26,24 26,24 26,23 26,23 "/>
   <polygon class="fil11" points="26,24 26,24 26,23 26,23 26,23 26,23 "/>
   <polygon class="fil8" points="27,24 27,24 27,23 27,23 "/>
   <polygon class="fil11" points="27,24 27,24 27,23 27,23 27,23 27,23 "/>
   <polygon class="fil8" points="28,24 28,24 28,23 28,23 "/>
   <polygon class="fil8" points="29,24 29,24 29,23 29,23 "/>
   <polygon class="fil11" points="29,24 29,24 29,23 29,23 29,23 29,23 "/>
   <polygon class="fil8" points="20,24 21,24 21,23 20,23 "/>
   <polygon class="fil8" points="21,24 22,24 22,23 21,23 "/>
   <polygon class="fil8" points="22,24 23,24 23,23 22,23 "/>
   <polygon class="fil8" points="24,25 24,25 24,24 24,24 "/>
   <polygon class="fil8" points="25,25 25,25 25,24 25,24 "/>
   <polygon class="fil11" points="25,25 25,25 25,25 25,25 25,24 25,24 "/>
   <polygon class="fil8" points="26,25 26,25 26,24 26,24 "/>
   <polygon class="fil11" points="26,25 26,25 26,25 26,25 26,24 26,24 "/>
   <polygon class="fil8" points="27,25 27,25 27,24 27,24 "/>
   <polygon class="fil11" points="27,25 27,25 27,25 27,25 27,24 27,24 "/>
   <polygon class="fil8" points="28,25 28,25 28,24 28,24 "/>
   <polygon class="fil8" points="29,25 29,25 29,24 29,24 "/>
   <polygon class="fil11" points="29,25 29,25 29,25 29,25 29,24 29,24 "/>
   <polygon class="fil8" points="20,25 21,25 21,24 20,24 "/>
   <polygon class="fil8" points="21,25 22,25 22,24 21,24 "/>
   <polygon class="fil8" points="22,25 23,25 23,24 22,24 "/>
   <polygon class="fil8" points="24,27 24,27 24,26 24,26 "/>
   <polygon class="fil11" points="24,27 24,27 24,26 24,26 24,26 24,26 "/>
   <polygon class="fil8" points="25,27 25,27 25,26 25,26 "/>
   <polygon class="fil11" points="25,27 25,27 25,26 25,26 25,26 25,26 "/>
   <polygon class="fil8" points="26,27 26,27 26,26 26,26 "/>
   <polygon class="fil11" points="26,27 26,27 26,26 26,26 26,26 26,26 "/>
   <polygon class="fil8" points="27,27 27,27 27,26 27,26 "/>
   <polygon class="fil11" points="27,27 27,27 27,26 27,26 27,26 27,26 "/>
   <polygon class="fil8" points="28,27 28,27 28,26 28,26 "/>
   <polygon class="fil11" points="28,27 28,27 28,26 28,26 28,26 28,26 "/>
   <polygon class="fil8" points="29,27 29,27 29,26 29,26 "/>
   <polygon class="fil11" points="29,27 29,27 29,26 29,26 29,26 29,26 "/>
   <polygon class="fil8" points="20,27 21,27 21,26 20,26 "/>
   <polygon class="fil8" points="21,27 22,27 22,26 21,26 "/>
   <polygon class="fil8" points="22,27 23,27 23,26 22,26 "/>
   <polygon class="fil8" points="24,28 24,28 24,27 24,27 "/>
   <polygon class="fil11" points="24,28 24,28 24,27 24,27 24,27 24,27 "/>
   <polygon class="fil8" points="25,28 25,28 25,27 25,27 "/>
   <polygon class="fil11" points="25,28 25,28 25,27 25,27 25,27 25,27 "/>
   <polygon class="fil8" points="26,28 26,28 26,27 26,27 "/>
   <polygon class="fil11" points="26,28 26,28 26,27 26,27 26,27 26,27 "/>
   <polygon class="fil8" points="27,28 27,28 27,27 27,27 "/>
   <polygon class="fil11" points="27,28 27,28 27,27 27,27 27,27 27,27 "/>
   <polygon class="fil8" points="28,28 28,28 28,27 28,27 "/>
   <polygon class="fil11" points="28,28 28,28 28,27 28,27 28,27 28,27 "/>
   <polygon class="fil8" points="29,28 29,28 29,27 29,27 "/>
   <polygon class="fil11" points="29,28 29,28 29,27 29,27 29,27 29,27 "/>
   <polygon class="fil8" points="20,28 21,28 21,27 20,27 "/>
   <polygon class="fil8" points="21,28 22,28 22,27 21,27 "/>
   <polygon class="fil8" points="22,28 23,28 23,27 22,27 "/>
   <polygon class="fil8" points="24,30 24,30 24,29 24,29 "/>
   <polygon class="fil11" points="24,30 24,30 24,29 24,29 24,29 24,29 "/>
   <polygon class="fil8" points="25,30 25,30 25,29 25,29 "/>
   <polygon class="fil11" points="25,30 25,30 25,29 25,29 25,29 25,29 "/>
   <polygon class="fil8" points="26,30 26,30 26,29 26,29 "/>
   <polygon class="fil11" points="26,30 26,30 26,29 26,29 26,29 26,29 "/>
   <polygon class="fil8" points="27,30 27,30 27,29 27,29 "/>
   <polygon class="fil11" points="27,30 27,30 27,29 27,29 27,29 27,29 "/>
   <polygon class="fil8" points="28,30 28,30 28,29 28,29 "/>
   <polygon class="fil11" points="28,30 28,30 28,29 28,29 28,29 28,29 "/>
   <polygon class="fil8" points="29,30 29,30 29,29 29,29 "/>
   <polygon class="fil11" points="29,30 29,30 29,29 29,29 29,29 29,29 "/>
   <polygon class="fil8" points="20,30 21,30 21,29 20,29 "/>
   <polygon class="fil8" points="21,30 22,30 22,29 21,29 "/>
   <polygon class="fil8" points="22,30 23,30 23,29 22,29 "/>
   <polygon class="fil8" points="24,32 24,32 24,31 24,31 "/>
   <polygon class="fil11" points="24,32 24,32 24,31 24,31 24,31 24,31 "/>
   <polygon class="fil8" points="25,32 25,32 25,31 25,31 "/>
   <polygon class="fil11" points="25,32 25,32 25,31 25,31 25,31 25,31 "/>
   <polygon class="fil8" points="26,32 26,32 26,31 26,31 "/>
   <polygon class="fil11" points="26,32 26,32 26,31 26,31 26,31 26,31 "/>
   <polygon class="fil8" points="27,32 27,32 27,31 27,31 "/>
   <polygon class="fil11" points="27,32 27,32 27,31 27,31 27,31 27,31 "/>
   <polygon class="fil8" points="28,32 28,32 28,31 28,31 "/>
   <polygon class="fil11" points="28,32 28,32 28,31 28,31 28,31 28,31 "/>
   <polygon class="fil8" points="29,32 29,32 29,31 29,31 "/>
   <polygon class="fil11" points="29,32 29,32 29,31 29,31 29,31 29,31 "/>
   <polygon class="fil8" points="20,32 21,32 21,31 20,31 "/>
   <polygon class="fil8" points="21,32 22,32 22,31 21,31 "/>
   <polygon class="fil8" points="22,32 23,32 23,31 22,31 "/>
   <polygon class="fil8" points="24,33 24,33 24,32 24,32 "/>
   <polygon class="fil11" points="24,33 24,33 24,32 24,32 24,32 24,32 "/>
   <polygon class="fil8" points="25,33 25,33 25,32 25,32 "/>
   <polygon class="fil11" points="25,32 25,32 25,32 25,32 25,32 25,32 "/>
   <polygon class="fil8" points="26,33 26,33 26,32 26,32 "/>
   <polygon class="fil11" points="26,32 26,32 26,32 26,32 26,32 26,32 "/>
   <polygon class="fil8" points="27,33 27,33 27,32 27,32 "/>
   <polygon class="fil11" points="27,32 27,32 27,32 27,32 27,32 27,32 "/>
   <polygon class="fil8" points="28,33 28,33 28,32 28,32 "/>
   <polygon class="fil11" points="28,32 28,32 28,32 28,32 28,32 28,32 "/>
   <polygon class="fil8" points="29,33 29,33 29,32 29,32 "/>
   <polygon class="fil11" points="29,32 29,32 29,32 29,32 29,32 29,32 "/>
   <polygon class="fil8" points="20,33 21,33 21,32 20,32 "/>
   <polygon class="fil8" points="21,33 22,33 22,32 21,32 "/>
   <polygon class="fil8" points="22,33 23,33 23,32 22,32 "/>
   <polygon class="fil8" points="24,34 24,34 24,33 24,33 "/>
   <polygon class="fil11" points="24,34 24,34 24,33 24,33 24,33 24,33 "/>
   <polygon class="fil8" points="25,34 25,34 25,33 25,33 "/>
   <polygon class="fil8" points="26,34 26,34 26,33 26,33 "/>
   <polygon class="fil8" points="27,34 27,34 27,33 27,33 "/>
   <polygon class="fil8" points="28,34 28,34 28,33 28,33 "/>
   <polygon class="fil8" points="29,34 29,34 29,33 29,33 "/>
   <polygon class="fil8" points="20,34 21,34 21,33 20,33 "/>
   <polygon class="fil8" points="21,34 22,34 22,33 21,33 "/>
   <polygon class="fil8" points="22,34 23,34 23,33 22,33 "/>
   <polygon class="fil8" points="24,36 24,36 24,35 24,35 "/>
   <polygon class="fil11" points="24,36 24,36 24,35 24,35 24,35 24,35 "/>
   <polygon class="fil8" points="25,36 25,36 25,35 25,35 "/>
   <polygon class="fil8" points="26,36 26,36 26,35 26,35 "/>
   <polygon class="fil8" points="27,36 27,36 27,35 27,35 "/>
   <polygon class="fil8" points="28,36 28,36 28,35 28,35 "/>
   <polygon class="fil8" points="29,36 29,36 29,35 29,35 "/>
   <polygon class="fil8" points="20,36 21,36 21,35 20,35 "/>
   <polygon class="fil8" points="21,36 22,36 22,35 21,35 "/>
   <polygon class="fil8" points="22,36 23,36 23,35 22,35 "/>
   <polygon class="fil8" points="24,37 24,37 24,36 24,36 "/>
   <polygon class="fil11" points="24,37 24,37 24,36 24,36 24,36 24,36 "/>
   <polygon class="fil8" points="25,37 25,37 25,36 25,36 "/>
   <polygon class="fil8" points="26,37 26,37 26,36 26,36 "/>
   <polygon class="fil8" points="27,37 27,37 27,36 27,36 "/>
   <polygon class="fil8" points="28,37 28,37 28,36 28,36 "/>
   <polygon class="fil8" points="29,37 29,37 29,36 29,36 "/>
   <polygon class="fil8" points="20,37 21,37 21,36 20,36 "/>
   <polygon class="fil8" points="21,37 22,37 22,36 21,36 "/>
   <polygon class="fil8" points="22,37 23,37 23,36 22,36 "/>
   <polygon class="fil8" points="24,39 24,39 24,38 24,38 "/>
   <polygon class="fil11" points="24,39 24,39 24,38 24,38 24,38 24,38 "/>
   <polygon class="fil8" points="25,39 25,39 25,38 25,38 "/>
   <polygon class="fil8" points="26,39 26,39 26,38 26,38 "/>
   <polygon class="fil8" points="27,39 27,39 27,38 27,38 "/>
   <polygon class="fil8" points="28,39 28,39 28,38 28,38 "/>
   <polygon class="fil8" points="29,39 29,39 29,38 29,38 "/>
   <polygon class="fil8" points="20,39 21,39 21,38 20,38 "/>
   <polygon class="fil8" points="21,39 22,39 22,38 21,38 "/>
   <polygon class="fil8" points="22,39 23,39 23,38 22,38 "/>
   <polygon class="fil8" points="24,40 24,40 24,39 24,39 "/>
   <polygon class="fil11" points="24,40 24,40 24,39 24,39 24,39 24,39 "/>
   <polygon class="fil8" points="25,40 25,40 25,39 25,39 "/>
   <polygon class="fil8" points="26,40 26,40 26,39 26,39 "/>
   <polygon class="fil8" points="27,40 27,40 27,39 27,39 "/>
   <polygon class="fil8" points="28,40 28,40 28,39 28,39 "/>
   <polygon class="fil8" points="29,40 29,40 29,39 29,39 "/>
   <polygon class="fil8" points="20,40 21,40 21,39 20,39 "/>
   <polygon class="fil8" points="21,40 22,40 22,39 21,39 "/>
   <polygon class="fil8" points="22,40 23,40 23,39 22,39 "/>
   <polygon class="fil8" points="24,42 24,42 24,41 24,41 "/>
   <polygon class="fil11" points="24,42 24,42 24,41 24,41 24,41 24,41 "/>
   <polygon class="fil8" points="25,42 25,42 25,41 25,41 "/>
   <polygon class="fil8" points="26,42 26,42 26,41 26,41 "/>
   <polygon class="fil8" points="27,42 27,42 27,41 27,41 "/>
   <polygon class="fil8" points="28,42 28,42 28,41 28,41 "/>
   <polygon class="fil8" points="29,42 29,42 29,41 29,41 "/>
   <polygon class="fil8" points="20,42 21,42 21,41 20,41 "/>
   <polygon class="fil8" points="21,42 22,42 22,41 21,41 "/>
   <polygon class="fil8" points="22,42 23,42 23,41 22,41 "/>
   <polygon class="fil8" points="24,43 24,43 24,42 24,42 "/>
   <polygon class="fil11" points="24,43 24,43 24,42 24,42 24,42 24,42 "/>
   <polygon class="fil8" points="25,43 25,43 25,42 25,42 "/>
   <polygon class="fil8" points="26,43 26,43 26,42 26,42 "/>
   <polygon class="fil8" points="27,43 27,43 27,42 27,42 "/>
   <polygon class="fil8" points="28,43 28,43 28,42 28,42 "/>
   <polygon class="fil8" points="29,43 29,43 29,42 29,42 "/>
   <polygon class="fil8" points="20,43 21,43 21,42 20,42 "/>
   <polygon class="fil8" points="21,43 22,43 22,42 21,42 "/>
   <polygon class="fil8" points="22,43 23,43 23,42 22,42 "/>
   <polygon class="fil8" points="24,44 24,44 24,43 24,43 "/>
   <polygon class="fil11" points="24,44 24,44 24,43 24,43 24,43 24,43 "/>
   <polygon class="fil8" points="25,44 25,44 25,43 25,43 "/>
   <polygon class="fil8" points="26,44 26,44 26,43 26,43 "/>
   <polygon class="fil8" points="27,44 27,44 27,43 27,43 "/>
   <polygon class="fil8" points="28,44 28,44 28,43 28,43 "/>
   <polygon class="fil8" points="29,44 29,44 29,43 29,43 "/>
   <polygon class="fil8" points="20,44 21,44 21,43 20,43 "/>
   <polygon class="fil8" points="21,44 22,44 22,43 21,43 "/>
   <polygon class="fil8" points="22,44 23,44 23,43 22,43 "/>
   <polygon class="fil8" points="24,46 24,46 24,45 24,45 "/>
   <polygon class="fil11" points="24,46 24,46 24,45 24,45 24,45 24,45 "/>
   <polygon class="fil8" points="25,46 25,46 25,45 25,45 "/>
   <polygon class="fil8" points="26,46 26,46 26,45 26,45 "/>
   <polygon class="fil8" points="27,46 27,46 27,45 27,45 "/>
   <polygon class="fil8" points="28,46 28,46 28,45 28,45 "/>
   <polygon class="fil8" points="29,46 29,46 29,45 29,45 "/>
   <polygon class="fil8" points="20,46 21,46 21,45 20,45 "/>
   <polygon class="fil8" points="21,46 22,46 22,45 21,45 "/>
   <polygon class="fil8" points="22,46 23,46 23,45 22,45 "/>
   <polygon class="fil18" points="24,21 24,21 24,20 24,20 "/>
   <polygon class="fil19" points="24,21 24,21 24,20 24,20 24,20 24,20 "/>
   <polygon class="fil18" points="25,21 25,21 25,20 25,20 "/>
   <polygon class="fil19" points="25,21 25,21 25,20 25,20 25,20 25,20 "/>
   <polygon class="fil18" points="26,21 26,21 26,20 26,20 "/>
   <polygon class="fil19" points="26,21 26,21 26,20 26,20 26,20 26,20 "/>
   <polygon class="fil18" points="27,21 27,21 27,20 27,20 "/>
   <polygon class="fil19" points="27,21 27,21 27,20 27,20 27,20 27,20 "/>
   <polygon class="fil18" points="28,21 28,21 28,20 28,20 "/>
   <polygon class="fil19" points="28,21 28,21 28,20 28,20 28,20 28,20 "/>
   <polygon class="fil18" points="29,21 29,21 29,20 29,20 "/>
   <polygon class="fil19" points="29,21 29,21 29,20 29,20 29,20 29,20 "/>
   <polygon class="fil18" points="24,23 24,23 24,22 24,22 "/>
   <polygon class="fil19" points="24,23 24,23 24,22 24,22 24,22 24,22 "/>
   <polygon class="fil18" points="25,23 25,23 25,22 25,22 "/>
   <polygon class="fil19" points="25,23 25,23 25,22 25,22 25,22 25,22 "/>
   <polygon class="fil18" points="26,23 26,23 26,22 26,22 "/>
   <polygon class="fil19" points="26,23 26,23 26,22 26,22 26,22 26,22 "/>
   <polygon class="fil18" points="27,23 27,23 27,22 27,22 "/>
   <polygon class="fil19" points="27,23 27,23 27,22 27,22 27,22 27,22 "/>
   <polygon class="fil18" points="28,23 28,23 28,22 28,22 "/>
   <polygon class="fil19" points="28,23 28,23 28,22 28,22 28,22 28,22 "/>
   <polygon class="fil18" points="29,23 29,23 29,22 29,22 "/>
   <polygon class="fil19" points="29,23 29,23 29,22 29,22 29,22 29,22 "/>
   <polygon class="fil18" points="24,24 24,24 24,23 24,23 "/>
   <polygon class="fil19" points="24,24 24,24 24,23 24,23 24,23 24,23 "/>
   <polygon class="fil18" points="25,24 25,24 25,23 25,23 "/>
   <polygon class="fil19" points="25,24 25,24 25,23 25,23 25,23 25,23 "/>
   <polygon class="fil18" points="28,24 28,24 28,23 28,23 "/>
   <polygon class="fil19" points="28,24 28,24 28,23 28,23 28,23 28,23 "/>
   <polygon class="fil18" points="24,25 24,25 24,25 24,25 "/>
   <polygon class="fil19" points="24,25 24,25 24,25 24,25 24,24 24,24 "/>
   <polygon class="fil18" points="28,25 28,25 28,25 28,25 "/>
   <polygon class="fil19" points="28,25 28,25 28,25 28,25 28,24 28,24 "/>
   <polygon class="fil16" points="20,46 22,46 22,46 20,46 "/>
   <polygon class="fil20" points="22,46 23,46 23,46 22,46 "/>
   <path class="fil7" d="M23 46l-3 0 0 0 3 0 0 0zm0 -16l-3 0 0 -11 3 0 0 11zm0 0l0 0 0 -1 -1 0 0 1 1 0zm-1 0l0 0 0 -1 -1 0 0 1 1 0zm-1 0l0 0 0 -1 -1 0 0 1 1 0zm2 -2l0 0 0 -1 -1 0 0 1 1 0zm-1 0l0 0 0 -1 -1 0 0 1 1 0zm-1 0l0 0 0 -1 -1 0 0 1 1 0zm2 -1l0 0 0 -1 -1 0 0 1 1 0zm-1 0l0 0 0 -1 -1 0 0 1 1 0zm-1 0l0 0 0 -1 -1 0 0 1 1 0zm2 -1l0 0 0 -1 -1 0 0 1 1 0zm-1 0l0 0 0 -1 -1 0 0 1 1 0zm-1 0l0 0 0 -1 -1 0 0 1 1 0zm2 -1l0 0 0 -1 -1 0 0 1 1 0zm-1 0l0 0 0 -1 -1 0 0 1 1 0zm-1 0l0 0 0 -1 -1 0 0 1 1 0zm2 -1l0 0 0 -1 -1 0 0 1 1 0zm-1 0l0 0 0 -1 -1 0 0 1 1 0zm-1 0l0 0 0 -1 -1 0 0 1 1 0zm2 -1l0 0 0 -1 -1 0 0 1 1 0zm-1 0l0 0 0 -1 -1 0 0 1 1 0zm-1 0l0 0 0 -1 -1 0 0 1 1 0z"/>
   <polygon class="fil11" points="22,24 21,24 21,23 22,23 21,23 21,23 22,23 "/>
   <polygon class="fil21" points="22,24 22,24 22,23 21,23 21,23 22,23 "/>
   <polygon class="fil22" points="20,21 21,21 21,20 20,20 "/>
   <polygon class="fil23" points="21,21 21,21 21,20 20,20 20,20 21,20 "/>
   <polygon class="fil22" points="21,21 22,21 22,20 21,20 "/>
   <polygon class="fil23" points="22,21 22,21 22,20 21,20 21,20 22,20 "/>
   <polygon class="fil22" points="22,21 23,21 23,20 22,20 "/>
   <polygon class="fil23" points="23,21 23,21 23,20 22,20 22,20 23,20 "/>
   <polygon class="fil22" points="20,23 21,23 21,22 20,22 "/>
   <polygon class="fil23" points="21,23 21,23 21,22 20,22 20,22 21,22 "/>
   <polygon class="fil22" points="21,23 22,23 22,22 21,22 "/>
   <polygon class="fil23" points="22,23 22,23 22,22 21,22 21,22 22,22 "/>
   <polygon class="fil22" points="22,23 23,23 23,22 22,22 "/>
   <polygon class="fil23" points="23,23 23,23 23,22 22,22 22,22 23,22 "/>
   <polygon class="fil22" points="20,24 21,24 21,23 20,23 "/>
   <polygon class="fil23" points="21,24 21,24 21,23 20,23 20,23 21,23 "/>
   <polygon class="fil22" points="22,24 23,24 23,23 22,23 "/>
   <polygon class="fil23" points="23,24 23,24 23,23 22,23 22,23 23,23 "/>
   <polygon class="fil11" points="21,25 20,25 20,24 21,24 20,24 20,25 21,25 "/>
   <polygon class="fil21" points="21,25 21,25 21,25 20,25 20,24 21,24 "/>
   <polygon class="fil11" points="22,25 21,25 21,24 22,24 21,24 21,25 22,25 "/>
   <polygon class="fil21" points="22,25 22,25 22,25 21,25 21,24 22,24 "/>
   <polygon class="fil11" points="23,25 22,25 22,24 23,24 22,24 22,25 23,25 "/>
   <polygon class="fil21" points="23,25 23,25 23,25 22,25 22,24 23,24 "/>
   <polygon class="fil11" points="21,27 20,27 20,26 21,26 20,26 20,26 21,26 "/>
   <polygon class="fil21" points="21,27 21,27 21,26 20,26 20,26 21,26 "/>
   <polygon class="fil11" points="22,27 21,27 21,26 22,26 21,26 21,26 22,26 "/>
   <polygon class="fil21" points="22,27 22,27 22,26 21,26 21,26 22,26 "/>
   <polygon class="fil11" points="23,27 22,27 22,26 23,26 22,26 22,26 23,26 "/>
   <polygon class="fil21" points="23,27 23,27 23,26 22,26 22,26 23,26 "/>
   <polygon class="fil11" points="21,28 20,28 20,27 21,27 20,27 20,27 21,27 "/>
   <polygon class="fil21" points="21,28 21,28 21,27 20,27 20,27 21,27 "/>
   <polygon class="fil11" points="22,28 21,28 21,27 22,27 21,27 21,27 22,27 "/>
   <polygon class="fil21" points="22,28 22,28 22,27 21,27 21,27 22,27 "/>
   <polygon class="fil11" points="23,28 22,28 22,27 23,27 22,27 22,27 23,27 "/>
   <polygon class="fil21" points="23,28 23,28 23,27 22,27 22,27 23,27 "/>
   <polygon class="fil11" points="21,30 20,30 20,29 21,29 20,29 20,29 21,29 "/>
   <polygon class="fil21" points="21,30 21,30 21,29 20,29 20,29 21,29 "/>
   <polygon class="fil11" points="22,30 21,30 21,29 22,29 21,29 21,29 22,29 "/>
   <polygon class="fil21" points="22,30 22,30 22,29 21,29 21,29 22,29 "/>
   <polygon class="fil11" points="23,30 22,30 22,29 23,29 22,29 22,29 23,29 "/>
   <polygon class="fil21" points="23,30 23,30 23,29 22,29 22,29 23,29 "/>
   <polygon class="fil7" points="18,46 24,46 24,30 18,30 "/>
   <polygon class="fil5" points="15,46 18,46 18,30 15,30 "/>
   <polygon class="fil8" points="19,34 20,34 20,32 19,32 "/>
   <polygon class="fil11" points="20,34 20,34 20,32 19,32 19,32 20,32 "/>
   <polygon class="fil0" points="19,34 20,34 20,34 19,34 "/>
   <polygon class="fil0" points="19,32 20,32 20,32 19,32 "/>
   <polygon class="fil0" points="21,34 23,34 23,34 21,34 "/>
   <polygon class="fil0" points="21,32 23,32 23,32 21,32 "/>
   <polygon class="fil8" points="21,34 23,34 23,32 21,32 "/>
   <polygon class="fil11" points="23,34 22,34 22,32 21,32 21,32 23,32 "/>
   <polygon class="fil8" points="19,37 20,37 20,35 19,35 "/>
   <polygon class="fil11" points="20,37 20,37 20,35 19,35 19,35 20,35 "/>
   <polygon class="fil0" points="19,37 20,37 20,37 19,37 "/>
   <polygon class="fil0" points="19,35 20,35 20,35 19,35 "/>
   <polygon class="fil0" points="21,37 23,37 23,37 21,37 "/>
   <polygon class="fil0" points="21,35 23,35 23,35 21,35 "/>
   <polygon class="fil8" points="21,37 23,37 23,35 21,35 "/>
   <polygon class="fil11" points="23,37 22,37 22,35 21,35 21,35 23,35 "/>
   <polygon class="fil8" points="19,40 20,40 20,38 19,38 "/>
   <polygon class="fil11" points="20,40 20,40 20,38 19,38 19,38 20,38 "/>
   <polygon class="fil0" points="19,40 20,40 20,40 19,40 "/>
   <polygon class="fil0" points="19,38 20,38 20,38 19,38 "/>
   <polygon class="fil0" points="21,40 23,40 23,40 21,40 "/>
   <polygon class="fil0" points="21,38 23,38 23,38 21,38 "/>
   <polygon class="fil8" points="21,40 23,40 23,38 21,38 "/>
   <polygon class="fil11" points="23,40 22,40 22,38 21,38 21,38 23,38 "/>
   <polygon class="fil8" points="19,43 20,43 20,41 19,41 "/>
   <polygon class="fil11" points="20,43 20,43 20,41 19,41 19,41 20,41 "/>
   <polygon class="fil0" points="19,43 20,43 20,43 19,43 "/>
   <polygon class="fil0" points="19,41 20,41 20,41 19,41 "/>
   <polygon class="fil0" points="21,43 23,43 23,43 21,43 "/>
   <polygon class="fil0" points="21,41 23,41 23,41 21,41 "/>
   <polygon class="fil8" points="21,43 23,43 23,41 21,41 "/>
   <polygon class="fil11" points="23,43 22,43 22,41 21,41 21,41 23,41 "/>
   <polygon class="fil13" points="17,34 17,34 17,32 17,32 "/>
   <polygon class="fil0" points="16,34 17,34 17,34 16,34 "/>
   <polygon class="fil13" points="16,34 16,34 16,32 16,32 "/>
   <polygon class="fil0" points="15,34 16,34 16,34 15,34 "/>
   <polygon class="fil13" points="17,37 17,37 17,35 17,35 "/>
   <polygon class="fil0" points="16,37 17,37 17,37 16,37 "/>
   <polygon class="fil13" points="16,37 16,37 16,35 16,35 "/>
   <polygon class="fil0" points="15,37 16,37 16,37 15,37 "/>
   <polygon class="fil13" points="17,40 17,40 17,38 17,38 "/>
   <polygon class="fil0" points="16,40 17,40 17,40 16,40 "/>
   <polygon class="fil13" points="16,40 16,40 16,38 16,38 "/>
   <polygon class="fil0" points="15,40 16,40 16,40 15,40 "/>
   <polygon class="fil8" points="19,46 20,46 20,44 19,44 "/>
   <polygon class="fil11" points="20,46 20,46 20,44 19,44 19,44 20,44 "/>
   <polygon class="fil8" points="21,46 23,46 23,44 21,44 "/>
   <polygon class="fil11" points="23,46 22,46 22,44 21,44 21,44 23,44 "/>
   <polygon class="fil13" points="17,43 17,43 17,41 17,41 "/>
   <polygon class="fil0" points="16,43 17,43 17,43 16,43 "/>
   <polygon class="fil13" points="16,43 16,43 16,41 16,41 "/>
   <polygon class="fil0" points="15,43 16,43 16,43 15,43 "/>
   <polygon class="fil13" points="17,45 17,45 17,44 17,44 "/>
   <polygon class="fil0" points="16,46 17,46 17,45 16,45 "/>
   <polygon class="fil13" points="16,45 16,45 16,44 16,44 "/>
   <polygon class="fil0" points="15,46 16,46 16,45 15,45 "/>
   <polygon class="fil16" points="18,46 15,46 15,46 15,46 15,46 "/>
   <polygon class="fil24" points="15,46 15,46 15,30 15,30 "/>
   <path class="fil6" d="M18 46l-3 0 0 -16 3 0 0 16zm-1 -1l0 0 1 0 0 0 -1 0zm-1 0l0 0 1 0 0 0 -1 0zm1 -2l0 2 0 0 0 -2 0 0zm-1 0l0 2 0 0 0 -2 0 0zm1 -1l0 0 1 0 0 0 -1 0zm-1 0l0 0 1 0 0 0 -1 0zm1 -2l0 2 0 0 0 -2 0 0zm-1 0l0 2 0 0 0 -2 0 0zm1 -1l0 0 1 0 0 0 -1 0zm-1 0l0 0 1 0 0 0 -1 0zm1 -2l0 2 0 0 0 -2 0 0zm-1 0l0 2 0 0 0 -2 0 0zm1 -1l0 0 1 0 0 0 -1 0zm-1 0l0 0 1 0 0 0 -1 0zm1 -2l0 2 0 0 0 -2 0 0zm-1 0l0 2 0 0 0 -2 0 0zm1 -1l0 0 1 0 0 0 -1 0zm-1 0l0 0 1 0 0 0 -1 0zm1 -2l0 2 0 0 0 -2 0 0zm-1 0l0 2 0 0 0 -2 0 0z"/>
   <polygon class="fil17" points="17,34 17,34 17,32 17,32 "/>
   <polygon class="fil16" points="16,34 17,34 17,34 16,34 "/>
   <polygon class="fil17" points="16,34 16,34 16,32 16,32 "/>
   <polygon class="fil16" points="15,34 16,34 16,34 15,34 "/>
   <polygon class="fil17" points="17,37 17,37 17,35 17,35 "/>
   <polygon class="fil16" points="16,37 17,37 17,37 16,37 "/>
   <polygon class="fil17" points="16,37 16,37 16,35 16,35 "/>
   <polygon class="fil16" points="15,37 16,37 16,37 15,37 "/>
   <polygon class="fil17" points="17,40 17,40 17,38 17,38 "/>
   <polygon class="fil16" points="16,40 17,40 17,40 16,40 "/>
   <polygon class="fil17" points="16,40 16,40 16,38 16,38 "/>
   <polygon class="fil16" points="15,40 16,40 16,40 15,40 "/>
   <polygon class="fil17" points="17,43 17,43 17,41 17,41 "/>
   <polygon class="fil16" points="16,43 17,43 17,43 16,43 "/>
   <polygon class="fil17" points="16,43 16,43 16,41 16,41 "/>
   <polygon class="fil16" points="15,43 16,43 16,43 15,43 "/>
   <polygon class="fil17" points="17,45 17,45 17,44 17,44 "/>
   <polygon class="fil16" points="16,46 17,46 17,45 16,45 "/>
   <polygon class="fil17" points="16,45 16,45 16,44 16,44 "/>
   <polygon class="fil16" points="15,46 16,46 16,45 15,45 "/>
   <polygon class="fil7" points="49,46 61,46 61,40 49,40 "/>
   <polygon class="fil1" points="48,40 61,40 61,40 48,40 "/>
   <polygon class="fil8" points="50,45 51,45 51,41 50,41 "/>
   <polygon class="fil8" points="49,45 50,45 50,41 49,41 "/>
   <polygon class="fil1" points="49,46 61,46 61,45 49,45 "/>
   <polygon class="fil8" points="53,46 54,46 54,44 53,44 "/>
   <polygon class="fil8" points="53,42 54,42 54,41 53,41 "/>
   <polygon class="fil11" points="54,42 53,42 53,42 53,42 53,41 54,41 "/>
   <polygon class="fil8" points="55,42 56,42 56,41 55,41 "/>
   <polygon class="fil11" points="56,42 56,42 56,42 55,42 55,41 56,41 "/>
   <polygon class="fil8" points="57,42 58,42 58,41 57,41 "/>
   <polygon class="fil11" points="58,42 58,42 58,42 57,42 57,41 58,41 "/>
   <polygon class="fil8" points="59,42 60,42 60,41 59,41 "/>
   <polygon class="fil11" points="60,42 60,42 60,42 59,42 59,41 60,41 "/>
   <polygon class="fil8" points="55,44 56,44 56,43 55,43 "/>
   <polygon class="fil11" points="56,44 56,44 56,43 55,43 55,43 56,43 "/>
   <polygon class="fil8" points="57,44 58,44 58,43 57,43 "/>
   <polygon class="fil11" points="58,44 58,44 58,43 57,43 57,43 58,43 "/>
   <polygon class="fil8" points="59,44 60,44 60,43 59,43 "/>
   <polygon class="fil11" points="60,44 60,44 60,43 59,43 59,43 60,43 "/>
   <polygon class="fil6" points="52,45 51,45 51,41 50,41 50,45 50,45 50,41 49,41 49,45 49,45 49,40 52,40 "/>
   <polygon class="fil11" points="50,45 51,45 51,41 50,41 "/>
   <polygon class="fil11" points="49,45 50,45 50,41 49,41 "/>
   <polygon class="fil25" points="52,46 49,46 49,45 52,45 "/>
   <polygon class="fil7" points="34,46 49,46 49,27 34,27 "/>
   <polygon class="fil8" points="37,30 38,30 38,28 37,28 "/>
   <polygon class="fil11" points="38,30 38,30 38,28 37,28 37,28 38,28 "/>
   <polygon class="fil8" points="39,30 40,30 40,28 39,28 "/>
   <polygon class="fil11" points="40,30 40,30 40,28 39,28 39,28 40,28 "/>
   <polygon class="fil8" points="41,30 42,30 42,28 41,28 "/>
   <polygon class="fil11" points="42,30 42,30 42,28 41,28 41,28 42,28 "/>
   <polygon class="fil8" points="43,30 44,30 44,28 43,28 "/>
   <polygon class="fil11" points="44,30 44,30 44,28 43,28 43,28 44,28 "/>
   <polygon class="fil8" points="45,30 46,30 46,28 45,28 "/>
   <polygon class="fil11" points="46,30 46,30 46,28 45,28 45,28 46,28 "/>
   <polygon class="fil8" points="47,30 48,30 48,28 47,28 "/>
   <polygon class="fil11" points="48,30 48,30 48,28 47,28 47,28 48,28 "/>
   <polygon class="fil8" points="37,33 38,33 38,32 37,32 "/>
   <polygon class="fil11" points="38,33 38,33 38,32 37,32 37,32 38,32 "/>
   <polygon class="fil8" points="39,33 40,33 40,32 39,32 "/>
   <polygon class="fil11" points="40,33 40,33 40,32 39,32 39,32 40,32 "/>
   <polygon class="fil8" points="41,33 42,33 42,32 41,32 "/>
   <polygon class="fil11" points="42,33 42,33 42,32 41,32 41,32 42,32 "/>
   <polygon class="fil8" points="43,33 44,33 44,32 43,32 "/>
   <polygon class="fil11" points="44,33 44,33 44,32 43,32 43,32 44,32 "/>
   <polygon class="fil8" points="45,33 46,33 46,32 45,32 "/>
   <polygon class="fil11" points="46,33 46,33 46,32 45,32 45,32 46,32 "/>
   <polygon class="fil8" points="47,33 48,33 48,32 47,32 "/>
   <polygon class="fil11" points="48,33 48,33 48,32 47,32 47,32 48,32 "/>
   <polygon class="fil8" points="37,37 38,37 38,35 37,35 "/>
   <polygon class="fil11" points="38,37 38,37 38,36 37,36 37,35 38,35 "/>
   <polygon class="fil8" points="39,37 40,37 40,35 39,35 "/>
   <polygon class="fil11" points="40,37 40,37 40,36 39,36 39,35 40,35 "/>
   <polygon class="fil8" points="41,37 42,37 42,35 41,35 "/>
   <polygon class="fil11" points="42,37 42,37 42,36 41,36 41,35 42,35 "/>
   <polygon class="fil8" points="43,37 44,37 44,35 43,35 "/>
   <polygon class="fil11" points="44,37 44,37 44,36 43,36 43,35 44,35 "/>
   <polygon class="fil8" points="45,37 46,37 46,35 45,35 "/>
   <polygon class="fil11" points="46,37 46,37 46,36 45,36 45,35 46,35 "/>
   <polygon class="fil8" points="47,37 48,37 48,35 47,35 "/>
   <polygon class="fil11" points="48,37 48,37 48,36 47,36 47,35 48,35 "/>
   <polygon class="fil8" points="37,41 38,41 38,39 37,39 "/>
   <polygon class="fil11" points="38,41 38,41 38,39 37,39 37,39 38,39 "/>
   <polygon class="fil8" points="39,41 40,41 40,39 39,39 "/>
   <polygon class="fil11" points="40,41 40,41 40,39 39,39 39,39 40,39 "/>
   <polygon class="fil8" points="41,41 42,41 42,39 41,39 "/>
   <polygon class="fil11" points="42,41 42,41 42,39 41,39 41,39 42,39 "/>
   <polygon class="fil8" points="38,46 41,46 41,43 38,43 "/>
   <polygon class="fil11" points="41,46 40,46 40,44 38,44 38,43 41,43 "/>
   <polygon class="fil8" points="41,46 43,46 43,43 41,43 "/>
   <polygon class="fil11" points="43,46 43,46 43,44 41,44 41,43 43,43 "/>
   <polygon class="fil8" points="46,46 48,46 48,43 46,43 "/>
   <polygon class="fil11" points="48,46 48,46 48,44 46,44 46,43 48,43 "/>
   <polygon class="fil8" points="43,41 44,41 44,39 43,39 "/>
   <polygon class="fil11" points="44,41 44,41 44,39 43,39 43,39 44,39 "/>
   <polygon class="fil8" points="45,41 46,41 46,39 45,39 "/>
   <polygon class="fil11" points="46,41 46,41 46,39 45,39 45,39 46,39 "/>
   <polygon class="fil8" points="47,41 48,41 48,39 47,39 "/>
   <polygon class="fil11" points="48,41 48,41 48,39 47,39 47,39 48,39 "/>
   <polygon class="fil26" points="34,27 49,27 49,26 34,26 "/>
   <polygon class="fil26" points="34,31 49,31 49,30 34,30 "/>
   <polygon class="fil26" points="34,35 49,35 49,34 34,34 "/>
   <polygon class="fil26" points="34,38 49,38 49,38 34,38 "/>
   <polygon class="fil5" points="34,42 49,42 49,41 34,41 "/>
   <polygon class="fil13" points="35,29 35,29 35,28 35,28 "/>
   <polygon class="fil13" points="36,29 36,29 36,28 36,28 "/>
   <polygon class="fil13" points="35,33 35,33 35,31 35,31 "/>
   <polygon class="fil13" points="36,33 36,33 36,31 36,31 "/>
   <polygon class="fil13" points="35,37 35,37 35,35 35,35 "/>
   <polygon class="fil13" points="36,37 36,37 36,35 36,35 "/>
   <polygon class="fil13" points="35,40 35,40 35,39 35,39 "/>
   <polygon class="fil13" points="36,40 36,40 36,39 36,39 "/>
   <polygon class="fil13" points="35,46 35,46 35,43 35,43 "/>
   <polygon class="fil13" points="36,46 36,46 36,43 36,43 "/>
   <polygon class="fil26" points="34,42 49,42 49,42 34,42 "/>
   <polygon class="fil24" points="35,46 34,46 "/>
   <path class="fil6" d="M37 46l-1 0 0 -3 0 0 0 3 -1 0 0 -3 0 0 0 3 -1 0 0 -4 3 0 0 4zm0 -5l-3 0 0 -3 3 0 0 3zm-1 -2l0 2 0 0 0 -2 0 0zm-1 0l0 2 0 0 0 -2 0 0zm2 -1l-3 0 0 -3 3 0 0 3zm-1 -2l0 2 0 0 0 -2 0 0zm-1 0l0 2 0 0 0 -2 0 0zm2 -1l-3 0 0 -1 0 0 0 -1 0 0 0 -1 3 0 0 3zm-1 -2l0 2 0 0 0 -2 0 0zm-1 0l0 2 0 0 0 -2 0 0zm2 -1l-3 0 0 -3 3 0 0 3zm-1 -2l0 2 0 0 0 -2 0 0zm-1 0l0 2 0 0 0 -2 0 0z"/>
   <polygon class="fil27" points="34,27 37,27 37,26 34,26 "/>
   <polygon class="fil27" points="34,31 37,31 37,30 34,30 "/>
   <polygon class="fil27" points="34,35 37,35 37,34 34,34 "/>
   <polygon class="fil27" points="34,38 37,38 37,38 34,38 "/>
   <polygon class="fil24" points="34,42 37,42 37,41 34,41 "/>
   <polygon class="fil17" points="35,29 35,29 35,28 35,28 "/>
   <polygon class="fil17" points="36,29 36,29 36,28 36,28 "/>
   <polygon class="fil17" points="35,33 35,33 35,31 35,31 "/>
   <polygon class="fil17" points="36,33 36,33 36,31 36,31 "/>
   <polygon class="fil17" points="35,37 35,37 35,35 35,35 "/>
   <polygon class="fil17" points="36,37 36,37 36,35 36,35 "/>
   <polygon class="fil17" points="35,40 35,40 35,39 35,39 "/>
   <polygon class="fil17" points="36,40 36,40 36,39 36,39 "/>
   <polygon class="fil17" points="35,46 35,46 35,43 35,43 "/>
   <polygon class="fil17" points="36,46 36,46 36,43 36,43 "/>
   <polygon class="fil27" points="34,42 37,42 37,42 34,42 "/>
   <polygon class="fil24" points="37,38 49,38 49,38 37,38 "/>
   <polygon class="fil24" points="37,42 49,42 49,42 37,42 "/>
   <polygon class="fil24" points="37,35 49,35 49,35 37,35 "/>
   <polygon class="fil24" points="37,31 49,31 49,31 37,31 "/>
   <polygon class="fil24" points="37,27 49,27 49,27 37,27 "/>
   <polygon class="fil6" points="44,46 46,46 46,44 44,44 "/>
   <polygon class="fil26" points="38,26 41,26 41,25 38,25 "/>
   <polygon class="fil27" points="38,26 39,26 39,25 38,25 "/>
   <path class="fil0" d="M38 41c0,0 0,0 -1,0 0,0 -1,0 -1,0 0,0 0,0 1,0 0,0 1,0 1,0z"/>
   <path class="fil0" d="M40 41c0,0 0,0 -1,0 0,0 -1,0 -1,0 0,0 0,0 1,0 0,0 1,0 1,0z"/>
   <path class="fil0" d="M42 41c0,0 0,0 -1,0 0,0 -1,0 -1,0 0,0 0,0 1,0 0,0 1,0 1,0z"/>
   <path class="fil0" d="M44 41c0,0 0,0 -1,0 0,0 -1,0 -1,0 0,0 0,0 1,0 0,0 1,0 1,0z"/>
   <path class="fil0" d="M46 41c0,0 0,0 -1,0 0,0 -1,0 -1,0 0,0 0,0 1,0 0,0 1,0 1,0z"/>
   <path class="fil0" d="M48 41c0,0 0,0 -1,0 0,0 -1,0 -1,0 0,0 0,0 1,0 0,0 1,0 1,0z"/>
   <path class="fil0" d="M38 37c0,0 0,0 -1,0 0,0 -1,0 -1,0 0,0 0,0 1,0 0,0 1,0 1,0z"/>
   <path class="fil0" d="M40 37c0,0 0,0 -1,0 0,0 -1,0 -1,0 0,0 0,0 1,0 0,0 1,0 1,0z"/>
   <path class="fil0" d="M42 37c0,0 0,0 -1,0 0,0 -1,0 -1,0 0,0 0,0 1,0 0,0 1,0 1,0z"/>
   <path class="fil0" d="M44 37c0,0 0,0 -1,0 0,0 -1,0 -1,0 0,0 0,0 1,0 0,0 1,0 1,0z"/>
   <path class="fil0" d="M46 37c0,0 0,0 -1,0 0,0 -1,0 -1,0 0,0 0,0 1,0 0,0 1,0 1,0z"/>
   <path class="fil0" d="M48 37c0,0 0,0 -1,0 0,0 -1,0 -1,0 0,0 0,0 1,0 0,0 1,0 1,0z"/>
   <path class="fil0" d="M38 33c0,0 0,0 -1,0 0,0 -1,0 -1,0 0,0 0,0 1,0 0,0 1,0 1,0z"/>
   <path class="fil0" d="M40 33c0,0 0,0 -1,0 0,0 -1,0 -1,0 0,0 0,0 1,0 0,0 1,0 1,0z"/>
   <path class="fil0" d="M42 33c0,0 0,0 -1,0 0,0 -1,0 -1,0 0,0 0,0 1,0 0,0 1,0 1,0z"/>
   <path class="fil0" d="M44 33c0,0 0,0 -1,0 0,0 -1,0 -1,0 0,0 0,0 1,0 0,0 1,0 1,0z"/>
   <path class="fil0" d="M46 33c0,0 0,0 -1,0 0,0 -1,0 -1,0 0,0 0,0 1,0 0,0 1,0 1,0z"/>
   <path class="fil0" d="M48 33c0,0 0,0 -1,0 0,0 -1,0 -1,0 0,0 0,0 1,0 0,0 1,0 1,0z"/>
   <path class="fil0" d="M38 30c0,0 0,0 -1,0 0,0 -1,0 -1,0 0,0 0,0 1,0 0,0 1,0 1,0z"/>
   <path class="fil0" d="M40 30c0,0 0,0 -1,0 0,0 -1,0 -1,0 0,0 0,0 1,0 0,0 1,0 1,0z"/>
   <path class="fil0" d="M42 30c0,0 0,0 -1,0 0,0 -1,0 -1,0 0,0 0,0 1,0 0,0 1,0 1,0z"/>
   <path class="fil0" d="M44 30c0,0 0,0 -1,0 0,0 -1,0 -1,0 0,0 0,0 1,0 0,0 1,0 1,0z"/>
   <path class="fil0" d="M46 30c0,0 0,0 -1,0 0,0 -1,0 -1,0 0,0 0,0 1,0 0,0 1,0 1,0z"/>
   <path class="fil0" d="M48 30c0,0 0,0 -1,0 0,0 -1,0 -1,0 0,0 0,0 1,0 0,0 1,0 1,0z"/>
   <polygon class="fil7" points="25,46 34,46 34,33 25,33 "/>
   <polygon class="fil8" points="29,43 30,43 30,41 29,41 "/>
   <polygon class="fil11" points="30,43 29,43 29,42 29,42 29,41 30,41 "/>
   <polygon class="fil0" points="29,43 30,43 30,43 29,43 "/>
   <polygon class="fil8" points="29,46 30,46 30,44 29,44 "/>
   <polygon class="fil11" points="30,46 29,46 29,44 29,44 29,44 30,44 "/>
   <polygon class="fil0" points="29,46 30,46 30,46 29,46 "/>
   <polygon class="fil8" points="29,41 30,41 30,39 29,39 "/>
   <polygon class="fil11" points="30,41 29,41 29,39 29,39 29,39 30,39 "/>
   <polygon class="fil0" points="29,41 30,41 30,41 29,41 "/>
   <polygon class="fil8" points="28,39 30,39 30,37 28,37 "/>
   <polygon class="fil11" points="30,39 29,39 29,37 28,37 28,37 30,37 "/>
   <polygon class="fil0" points="28,39 30,39 30,39 28,39 "/>
   <polygon class="fil8" points="28,36 30,36 30,35 28,35 "/>
   <polygon class="fil11" points="30,36 29,36 29,35 28,35 28,35 30,35 "/>
   <polygon class="fil0" points="28,37 30,37 30,36 28,36 "/>
   <polygon class="fil8" points="31,43 32,43 32,41 31,41 "/>
   <polygon class="fil11" points="32,43 32,43 32,42 31,42 31,41 32,41 "/>
   <polygon class="fil0" points="31,43 33,43 33,43 31,43 "/>
   <polygon class="fil8" points="31,41 32,41 32,39 31,39 "/>
   <polygon class="fil11" points="32,41 32,41 32,39 31,39 31,39 32,39 "/>
   <polygon class="fil0" points="31,41 33,41 33,41 31,41 "/>
   <polygon class="fil8" points="31,39 32,39 32,37 31,37 "/>
   <polygon class="fil11" points="32,39 32,39 32,37 31,37 31,37 32,37 "/>
   <polygon class="fil0" points="31,39 33,39 33,39 31,39 "/>
   <polygon class="fil8" points="31,36 32,36 32,35 31,35 "/>
   <polygon class="fil11" points="32,36 32,36 32,35 31,35 31,35 32,35 "/>
   <polygon class="fil0" points="31,37 33,37 33,36 31,36 "/>
   <polygon class="fil13" points="25,36 26,36 26,35 25,35 "/>
   <polygon class="fil0" points="25,37 26,37 26,36 25,36 "/>
   <polygon class="fil13" points="25,39 26,39 26,37 25,37 "/>
   <polygon class="fil0" points="25,39 26,39 26,39 25,39 "/>
   <polygon class="fil13" points="25,41 26,41 26,40 25,40 "/>
   <polygon class="fil0" points="25,41 26,41 26,41 25,41 "/>
   <polygon class="fil13" points="25,44 26,44 26,42 25,42 "/>
   <polygon class="fil0" points="25,44 26,44 26,44 25,44 "/>
   <polygon class="fil13" points="25,46 26,46 26,44 25,44 "/>
   <polygon class="fil0" points="25,46 26,46 26,46 25,46 "/>
   <polygon class="fil4" points="24,33 34,33 34,32 24,32 "/>
   <polygon class="fil1" points="24,33 34,33 34,33 24,33 "/>
   <polygon class="fil1" points="31,46 33,46 33,44 31,44 "/>
   <polygon class="fil13" points="31,46 33,46 33,44 31,44 "/>
   <polygon class="fil20" points="25,46 25,46 25,46 25,46 "/>
   <polygon class="fil24" points="25,46 27,46 27,46 25,46 "/>
   <polygon class="fil25" points="27,46 25,46 25,46 27,46 "/>
   <path class="fil28" d="M27 46l-2 0 0 -13 2 0 0 13zm-2 0l0 0 1 0 0 0 -1 0zm0 -2l0 2 0 0 0 -2 0 0zm0 -1l0 0 1 0 0 0 -1 0zm0 -2l0 2 0 0 0 -2 0 0zm0 -1l0 0 1 0 0 0 -1 0zm0 -2l0 2 0 0 0 -2 0 0zm0 -1l0 0 1 0 0 0 -1 0zm0 -2l0 2 0 0 0 -2 0 0zm0 -1l0 0 1 0 0 0 -1 0zm0 -2l0 2 0 0 0 -2 0 0z"/>
   <polygon class="fil17" points="25,36 26,36 26,35 25,35 "/>
   <polygon class="fil16" points="25,37 26,37 26,36 25,36 "/>
   <polygon class="fil17" points="25,39 26,39 26,37 25,37 "/>
   <polygon class="fil16" points="25,39 26,39 26,39 25,39 "/>
   <polygon class="fil17" points="25,41 26,41 26,40 25,40 "/>
   <polygon class="fil16" points="25,41 26,41 26,41 25,41 "/>
   <polygon class="fil17" points="25,44 26,44 26,42 25,42 "/>
   <polygon class="fil16" points="25,44 26,44 26,44 25,44 "/>
   <polygon class="fil28" points="27,33 25,33 25,33 27,33 "/>
   <polygon class="fil17" points="25,46 26,46 26,44 25,44 "/>
   <polygon class="fil16" points="25,46 26,46 26,46 25,46 "/>
   <polygon class="fil25" points="25,33 27,33 27,33 25,33 "/>
   <polygon class="fil15" points="24,33 26,33 26,32 24,32 "/>
   <polygon class="fil14" points="0,46 15,46 15,28 0,28 "/>
   <polygon class="fil7" points="0,28 15,28 15,28 0,28 "/>
   <polygon class="fil7" points="0,30 15,30 15,29 0,29 "/>
   <polygon class="fil7" points="0,29 15,29 15,29 0,29 "/>
   <polygon class="fil7" points="10,43 13,43 13,30 10,30 "/>
   <polygon class="fil7" points="3,43 7,43 7,30 3,30 "/>
   <polygon class="fil12" points="0,43 15,43 15,43 0,43 "/>
   <polygon class="fil12" points="7,46 9,46 9,44 7,44 "/>
   <polygon class="fil8" points="10,45 12,45 12,44 10,44 "/>
   <polygon class="fil11" points="12,45 11,45 11,44 10,44 10,44 12,44 "/>
   <polygon class="fil0" points="10,46 12,46 12,45 10,45 "/>
   <polygon class="fil8" points="13,45 14,45 14,44 13,44 "/>
   <polygon class="fil11" points="14,45 14,45 14,44 13,44 13,44 14,44 "/>
   <polygon class="fil0" points="13,46 14,46 14,45 13,45 "/>
   <polygon class="fil8" points="1,45 2,45 2,44 1,44 "/>
   <polygon class="fil0" points="1,46 2,46 2,45 1,45 "/>
   <polygon class="fil8" points="4,46 6,46 6,44 4,44 "/>
   <polygon class="fil11" points="6,46 5,46 5,44 4,44 4,44 6,44 "/>
   <polygon class="fil0" points="4,46 6,46 6,46 4,46 "/>
   <polygon class="fil8" points="8,42 9,42 9,40 8,40 "/>
   <polygon class="fil11" points="9,42 9,42 9,41 8,41 8,40 9,40 "/>
   <polygon class="fil8" points="8,39 9,39 9,37 8,37 "/>
   <polygon class="fil11" points="9,39 9,39 9,37 8,37 8,37 9,37 "/>
   <polygon class="fil8" points="8,36 9,36 9,34 8,34 "/>
   <polygon class="fil11" points="9,36 9,36 9,34 8,34 8,34 9,34 "/>
   <polygon class="fil8" points="8,33 9,33 9,31 8,31 "/>
   <polygon class="fil9" points="9,33 8,33 8,31 9,31 8,31 8,31 9,31 "/>
   <polygon class="fil10" points="9,33 9,33 9,31 8,31 8,31 9,31 "/>
   <polygon class="fil8" points="4,42 6,42 6,40 4,40 "/>
   <polygon class="fil11" points="6,42 5,42 5,41 4,41 4,40 6,40 "/>
   <polygon class="fil8" points="4,39 6,39 6,37 4,37 "/>
   <polygon class="fil11" points="6,39 5,39 5,37 4,37 4,37 6,37 "/>
   <polygon class="fil8" points="4,36 6,36 6,34 4,34 "/>
   <polygon class="fil9" points="5,36 4,36 4,34 6,34 4,34 4,34 5,34 "/>
   <polygon class="fil10" points="6,36 5,36 5,34 4,34 4,34 6,34 "/>
   <polygon class="fil8" points="4,33 6,33 6,31 4,31 "/>
   <polygon class="fil9" points="5,33 4,33 4,31 6,31 4,31 4,31 5,31 "/>
   <polygon class="fil10" points="6,33 5,33 5,31 4,31 4,31 6,31 "/>
   <polygon class="fil8" points="11,42 12,42 12,40 11,40 "/>
   <polygon class="fil11" points="12,42 12,42 12,41 11,41 11,40 12,40 "/>
   <polygon class="fil8" points="11,39 12,39 12,37 11,37 "/>
   <polygon class="fil11" points="12,39 12,39 12,37 11,37 11,37 12,37 "/>
   <polygon class="fil8" points="11,36 12,36 12,34 11,34 "/>
   <polygon class="fil9" points="12,36 11,36 11,34 12,34 11,34 11,34 12,34 "/>
   <polygon class="fil10" points="12,36 12,36 12,34 11,34 11,34 12,34 "/>
   <polygon class="fil8" points="11,33 12,33 12,31 11,31 "/>
   <polygon class="fil9" points="12,33 11,33 11,31 12,31 11,31 11,31 12,31 "/>
   <polygon class="fil10" points="12,33 12,33 12,31 11,31 11,31 12,31 "/>
   <polygon class="fil13" points="1,33 2,33 2,31 1,31 "/>
   <polygon class="fil0" points="1,33 2,33 2,33 1,33 "/>
   <polygon class="fil13" points="1,36 2,36 2,34 1,34 "/>
   <polygon class="fil0" points="1,36 2,36 2,36 1,36 "/>
   <polygon class="fil13" points="1,39 2,39 2,37 1,37 "/>
   <polygon class="fil0" points="1,39 2,39 2,39 1,39 "/>
   <polygon class="fil13" points="1,42 2,42 2,40 1,40 "/>
   <polygon class="fil0" points="1,42 2,42 2,42 1,42 "/>
   <path class="fil14" d="M3 46l-3 0 0 -3 3 0 0 3zm-2 -1l0 0 1 0 0 0 -1 0zm1 0l0 0 0 -2 -1 0 0 2 1 0zm1 -3l-3 0 0 -13 3 0 0 13zm-2 -1l0 0 1 0 0 0 -1 0zm0 -2l0 2 0 0 0 -2 0 0zm0 -1l0 0 1 0 0 0 -1 0zm0 -2l0 2 0 0 0 -2 0 0zm0 -1l0 0 1 0 0 0 -1 0zm0 -2l0 2 0 0 0 -2 0 0zm0 -1l0 0 1 0 0 0 -1 0zm0 -2l0 2 0 0 0 -2 0 0zm2 -2l-3 0 0 0 3 0 0 0zm0 -1l-3 0 0 0 3 0 0 0z"/>
   <polygon class="fil28" points="0,30 3,30 3,29 0,29 "/>
   <polygon class="fil28" points="0,29 3,29 3,29 0,29 "/>
   <polygon class="fil28" points="0,43 3,43 3,43 0,43 "/>
   <polygon class="fil11" points="2,45 1,45 1,44 2,44 1,44 1,44 2,44 "/>
   <polygon class="fil21" points="2,45 2,45 2,44 1,44 1,44 2,44 "/>
   <polygon class="fil16" points="1,46 2,46 2,45 1,45 "/>
   <polygon class="fil17" points="1,33 2,33 2,31 1,31 "/>
   <polygon class="fil16" points="1,33 2,33 2,33 1,33 "/>
   <polygon class="fil17" points="1,36 2,36 2,34 1,34 "/>
   <polygon class="fil16" points="1,36 2,36 2,36 1,36 "/>
   <polygon class="fil17" points="1,39 2,39 2,37 1,37 "/>
   <polygon class="fil16" points="1,39 2,39 2,39 1,39 "/>
   <polygon class="fil17" points="1,42 2,42 2,40 1,40 "/>
   <polygon class="fil16" points="1,42 2,42 2,42 1,42 "/>
   <polygon class="fil13" points="7,46 9,46 9,44 7,44 "/>
   <polygon class="fil28" points="0,28 2,28 2,28 0,28 "/>
   <path class="fil0" d="M5 33c0,0 0,0 -1,0 0,0 -1,0 -1,0 0,0 0,0 1,0 0,0 1,0 1,0z"/>
   <path class="fil0" d="M9 33c0,0 0,0 -1,0 0,0 -1,0 -1,0 0,0 0,0 1,0 0,0 1,0 1,0z"/>
   <path class="fil0" d="M12 33c0,0 0,0 -1,0 0,0 -1,0 -1,0 0,0 0,0 1,0 0,0 1,0 1,0z"/>
   <path class="fil0" d="M12 36c0,0 0,0 -1,0 0,0 -1,0 -1,0 0,0 0,0 1,0 0,0 1,0 1,0z"/>
   <path class="fil0" d="M9 36c0,0 0,0 -1,0 0,0 -1,0 -1,0 0,0 0,0 1,0 0,0 1,0 1,0z"/>
   <path class="fil0" d="M9 39c0,0 0,0 -1,0 0,0 -1,0 -1,0 0,0 0,0 1,0 0,0 1,0 1,0z"/>
   <path class="fil0" d="M12 39c0,0 0,0 -1,0 0,0 -1,0 -1,0 0,0 0,0 1,0 0,0 1,0 1,0z"/>
   <path class="fil0" d="M5 39c0,0 0,0 -1,0 0,0 -1,0 -1,0 0,0 0,0 1,0 0,0 1,0 1,0z"/>
   <path class="fil0" d="M6 42c0,0 0,0 -1,0 0,0 -1,0 -1,0 0,0 0,0 1,0 0,0 1,0 1,0z"/>
   <path class="fil0" d="M9 42c0,0 0,0 -1,0 0,0 -1,0 -1,0 0,0 0,0 1,0 0,0 1,0 1,0z"/>
   <path class="fil0" d="M12 42c0,0 0,0 -1,0 0,0 -1,0 -1,0 0,0 0,0 1,0 0,0 1,0 1,0z"/>
   <path class="fil0" d="M5 36c0,0 0,0 -1,0 0,0 -1,0 -1,0 0,0 0,0 1,0 0,0 1,0 1,0z"/>
   <path class="fil8" d="M26 44c0,0 0,-1 0,-1 0,0 0,-1 -1,-1l0 0c0,0 0,0 0,0 0,0 0,0 0,0l0 0c0,0 -1,0 -1,1 0,0 0,1 0,1 0,0 0,1 0,1 0,0 0,1 0,1 0,0 1,0 1,0 0,0 1,0 1,0 0,0 0,-1 0,-1 0,0 0,-1 0,-1z"/>
   <path class="fil8" d="M1 44c0,0 0,1 -1,2 0,0 0,0 0,0 0,0 1,0 1,0 0,0 0,0 0,0 0,-1 0,-2 -1,-2z"/>
   <path class="fil8" d="M34 42c0,0 -1,2 -1,3 0,0 0,1 0,1 1,0 1,0 1,0 0,0 0,0 0,-1 0,-1 -1,-4 -1,-3z"/>
   <path class="fil8" d="M35 44c0,0 0,1 -1,2 0,0 0,0 0,0 0,0 1,0 1,0 0,0 0,0 0,0 0,-1 0,-2 -1,-2z"/>
   <path class="fil8" d="M49 42c0,0 -1,2 -1,3 0,0 0,1 0,1 1,0 1,0 1,0 0,0 0,0 0,-1 0,-1 -1,-3 -1,-3z"/>
   <path class="fil8" d="M6 44c0,0 0,1 -1,2 0,0 0,0 0,0 0,0 1,0 1,0 0,0 0,0 0,0 0,-1 0,-2 -1,-2z"/>
   <path class="fil8" d="M10 44c0,0 0,1 -1,2 0,0 0,0 0,0 0,0 1,0 1,0 0,0 0,0 0,0 0,-1 0,-2 -1,-2z"/>
  </g>
 </g>
</svg>
