<?xml version="1.0" encoding="UTF-8"?>
<!DOCTYPE svg PUBLIC "-//W3C//DTD SVG 1.1//EN" "http://www.w3.org/Graphics/SVG/1.1/DTD/svg11.dtd">
<!-- Creator: CorelDRAW 2020 (64-Bit) -->
<svg xmlns="http://www.w3.org/2000/svg" xml:space="preserve" width="2217px" height="4770px" version="1.1" style="shape-rendering:geometricPrecision; text-rendering:geometricPrecision; image-rendering:optimizeQuality; fill-rule:evenodd; clip-rule:evenodd"
viewBox="0 0 760 1635"
 xmlns:xlink="http://www.w3.org/1999/xlink"
 xmlns:xodm="http://www.corel.com/coreldraw/odm/2003">
 <defs>
  <style type="text/css">
   <![CDATA[
    .str0 {stroke:darkorange;stroke-width:1;stroke-miterlimit:22.9256}
    .fil1 {fill:#C86C3F}
    .fil0 {fill:darkorange}
   ]]>
  </style>
 </defs>
 <g id="Capa_x0020_1">
  <metadata id="CorelCorpID_0Corel-Layer"/>
  <g id="_3091253209552">
   <path class="fil0 str0" d="M244 10l-39 12 -55 8c0,0 -60,-1 -69,4 -9,5 -28,20 -28,20l-4 6 -6 14 2 33 14 115 -10 142 -37 207 6 292 -4 197 37 207 10 142 -14 115 -2 33 6 14 4 6c0,0 19,15 28,20 9,5 69,4 69,4l55 8 39 12 514 12 0 -1620 -516 -6z"/>
   <path class="fil1" d="M241 1633c0,0 -71,-17 -111,-24 -40,-8 -57,14 -78,-24 -21,-38 -12,-86 -7,-122 5,-36 5,-118 -2,-158 -6,-40 -5,-89 -18,-129 -12,-41 -27,-125 -23,-153 9,-58 1,-393 -2,-414 -4,-28 10,-112 23,-153 12,-41 11,-90 18,-129 6,-40 7,-122 2,-158 -5,-36 -14,-84 7,-122 21,-38 39,-16 78,-24 40,-8 111,-24 111,-24l37 15c0,0 -126,22 -148,24 -22,1 -60,7 -76,23 -16,17 18,112 18,179 0,68 -10,182 -27,237 -16,56 -15,121 -13,151 6,77 13,136 10,212 2,52 -4,107 -8,161 -2,30 -4,96 13,151 16,56 26,170 27,237 0,68 -34,163 -18,179 16,17 54,22 76,23 22,1 148,24 148,24l-37 15z"/>
  </g>
 </g>
</svg>
