<?xml version="1.0" encoding="UTF-8"?>
<!DOCTYPE svg PUBLIC "-//W3C//DTD SVG 1.1//EN" "http://www.w3.org/Graphics/SVG/1.1/DTD/svg11.dtd">
<!-- Creator: CorelDRAW 2020 (64-Bit) -->
<svg xmlns="http://www.w3.org/2000/svg" xml:space="preserve" width="2217px" height="4770px" version="1.1" style="shape-rendering:geometricPrecision; text-rendering:geometricPrecision; image-rendering:optimizeQuality; fill-rule:evenodd; clip-rule:evenodd"
viewBox="0 0 307 660"
 xmlns:xlink="http://www.w3.org/1999/xlink"
 xmlns:xodm="http://www.corel.com/coreldraw/odm/2003">
 <defs>
  <style type="text/css">
   <![CDATA[
    .str0 {stroke:darkorange;stroke-width:0;stroke-miterlimit:22.9256}
    .fil1 {fill:#C86C3F}
    .fil0 {fill:darkorange}
   ]]>
  </style>
 </defs>
 <g id="Capa_x0020_1">
  <metadata id="CorelCorpID_0Corel-Layer"/>
  <g id="_3090990599552">
   <path class="fil0 str0" d="M208 4l16 5 22 3c0,0 24,0 28,2 4,2 11,8 11,8l2 3 3 6 -1 13 -6 47 4 58 15 84 -2 118 2 80 -15 84 -4 58 6 47 1 13 -3 6 -2 3c0,0 -8,6 -11,8 -4,2 -28,2 -28,2l-22 3 -16 5 -207 5 0 -654 208 -2z"/>
   <path class="fil1" d="M210 659c0,0 29,-7 45,-10 16,-3 23,6 32,-10 9,-15 5,-35 3,-49 -2,-15 -2,-48 1,-64 3,-16 2,-36 7,-52 5,-16 11,-50 9,-62 -3,-24 0,-159 1,-167 2,-11 -4,-45 -9,-62 -5,-16 -5,-36 -7,-52 -3,-16 -3,-49 -1,-64 2,-15 6,-34 -3,-49 -9,-15 -16,-6 -32,-10 -16,-3 -45,-10 -45,-10l-15 6c0,0 51,9 60,10 9,0 24,3 31,9 6,7 -7,45 -7,72 0,27 4,73 11,96 7,22 6,49 5,61 -2,31 -5,55 -4,85 -1,21 1,43 3,65 1,12 2,39 -5,61 -7,22 -11,68 -11,96 0,27 14,66 7,72 -6,7 -22,9 -31,9 -9,0 -60,10 -60,10l15 6z"/>
  </g>
 </g>
</svg>
