<?xml version="1.0" encoding="UTF-8"?>
<!DOCTYPE svg PUBLIC "-//W3C//DTD SVG 1.1//EN" "http://www.w3.org/Graphics/SVG/1.1/DTD/svg11.dtd">
<!-- Creator: CorelDRAW 2020 (64-Bit) -->
<svg xmlns="http://www.w3.org/2000/svg" xml:space="preserve" width="1000px" height="687px" version="1.1" style="shape-rendering:geometricPrecision; text-rendering:geometricPrecision; image-rendering:optimizeQuality; fill-rule:evenodd; clip-rule:evenodd"
viewBox="0 0 989 679"
 xmlns:xlink="http://www.w3.org/1999/xlink"
 xmlns:xodm="http://www.corel.com/coreldraw/odm/2003">
 <defs>
  <style type="text/css">
   <![CDATA[
    .fil0 {fill:#E6E6E6}
   ]]>
  </style>
 </defs>
 <g id="Capa_x0020_1">
  <metadata id="CorelCorpID_0Corel-Layer"/>
  <g id="_1302240258576">
   <path class="fil0" d="M365 431c0,0 -5,-1 -2,6 2,4 4,3 6,1 4,-4 1,-8 -4,-7z"/>
   <path class="fil0" d="M6 69c-7,1 -8,6 -3,8 4,2 3,1 5,-2 3,-6 -1,-5 -2,-6z"/>
   <path class="fil0" d="M242 263c2,2 -2,4 5,2 3,0 5,0 3,-5 -2,-5 -8,-5 -8,3z"/>
   <path class="fil0" d="M198 195c-1,-7 -6,-8 -8,-3 -2,4 -1,3 2,5 6,3 5,-1 6,-2z"/>
   <path class="fil0" d="M142 69c-3,2 -4,-3 -4,5 0,5 8,5 8,0 0,-8 0,-3 -4,-5z"/>
   <path class="fil0" d="M366 499c-3,2 -5,-3 -4,5 0,5 8,5 8,0 0,-8 0,-3 -4,-5z"/>
   <path class="fil0" d="M129 193c-2,-3 3,-4 -5,-4 -5,0 -5,8 0,8 8,0 3,0 5,-4z"/>
   <path class="fil0" d="M439 145c-1,-9 3,-6 -6,-7 0,0 -6,2 -1,7 3,3 4,1 7,0z"/>
   <path class="fil0" d="M198 329c-2,-2 2,-3 -5,-2 -7,1 -5,9 2,7 5,-1 2,1 3,-5z"/>
   <path class="fil0" d="M505 430c-7,1 -8,6 -3,8 3,1 4,1 5,-2 3,-6 -1,-5 -2,-6z"/>
   <path class="fil0" d="M310 54c1,7 -2,4 3,5 4,1 4,1 5,-2 1,-3 1,-4 -2,-5 -7,-3 -6,2 -6,2z"/>
   <path class="fil0" d="M379 262c1,1 -1,7 6,4 5,-2 2,-5 1,-8 -12,1 -2,-1 -7,4z"/>
   <path class="fil0" d="M433 318c12,-2 2,-14 -2,-6 -3,6 1,5 2,6z"/>
   <path class="fil0" d="M483 266c11,-1 4,2 7,-4 -1,-1 1,-7 -6,-4 -5,2 -2,5 -1,8z"/>
   <path class="fil0" d="M809 554c1,1 -1,7 6,4 5,-2 2,-5 1,-8 -11,1 -3,-1 -7,4z"/>
   <path class="fil0" d="M552 404c11,-1 4,2 7,-4 -1,-1 0,-6 -6,-3 -5,2 -2,5 -1,8z"/>
   <path class="fil0" d="M198 57c-1,-7 -6,-8 -8,-3 -1,4 -1,3 2,5 6,3 5,-1 6,-2z"/>
   <path class="fil0" d="M559 262c-2,-3 3,-4 -5,-4 -5,0 -5,8 0,8 8,0 3,0 5,-4z"/>
   <path class="fil0" d="M367 317c2,-2 3,2 2,-5 0,-3 0,-5 -5,-3 -5,2 -5,7 3,8z"/>
   <path class="fil0" d="M435 249c6,-3 3,4 4,-7 -2,-1 -4,-3 -7,0 -6,6 1,6 3,7z"/>
   <path class="fil0" d="M3 25c14,0 -1,-15 -2,-5 -1,6 0,2 2,5z"/>
   <path class="fil0" d="M198 123c-2,-2 1,-3 -5,-2 -3,0 -5,1 -3,5 2,5 7,4 8,-3z"/>
   <path class="fil0" d="M367 386c2,-2 3,1 2,-5 -1,-3 -1,-5 -5,-3 -3,1 -3,1 -2,5 1,4 -1,2 5,3z"/>
   <path class="fil0" d="M242 195c2,2 -1,3 5,2 3,-1 5,-1 3,-5 -2,-4 -8,-5 -8,3z"/>
   <path class="fil0" d="M122 265c0,0 -1,4 4,1 4,-2 2,1 3,-5 0,0 0,-5 -6,-2 -4,2 -2,3 -1,6z"/>
   <path class="fil0" d="M433 386c5,1 8,-2 4,-7 -2,-2 -3,-2 -5,0 -5,5 1,6 1,7z"/>
   <path class="fil0" d="M73 69c-5,2 -3,-2 -4,3 -1,7 7,7 7,1 1,-7 0,-3 -4,-5z"/>
   <path class="fil0" d="M559 554c-2,-5 2,-3 -3,-4 -7,-1 -7,7 -1,7 7,1 3,0 5,-4z"/>
   <path class="fil0" d="M6 0c-7,0 -6,2 -5,5 1,5 7,5 7,0 1,-7 0,-2 -2,-5z"/>
   <path class="fil0" d="M72 25l3 0c2,-2 3,1 2,-5 0,-2 0,-3 -4,-3 -4,0 -3,1 -4,3 -1,7 0,2 2,5z"/>
   <path class="fil0" d="M506 506c2,-7 3,-4 -3,-7 -1,1 -7,-1 -4,6 2,5 3,2 6,1z"/>
   <path class="fil0" d="M310 123c1,5 -2,6 4,5 6,-1 3,-3 3,-6 -5,-2 -4,-3 -7,1z"/>
   <path class="fil0" d="M740 554c2,5 -2,3 3,4 4,1 5,0 5,-4 0,-6 -7,-7 -8,0z"/>
   <path class="fil0" d="M364 293c0,0 -5,-1 -2,6 1,2 4,3 6,1 5,-4 1,-7 -4,-6z"/>
   <path class="fil0" d="M293 242c0,10 1,4 2,7 11,-2 6,-11 -2,-7z"/>
   <path class="fil0" d="M335 195c-1,-7 -6,-8 -8,-3 -1,3 0,3 2,5 6,3 5,-1 6,-2z"/>
   <path class="fil0" d="M433 362c0,0 -5,-1 -2,6 1,3 4,3 6,1 5,-4 1,-7 -4,-6z"/>
   <path class="fil0" d="M572 318c6,-3 3,4 4,-7 -2,-1 -4,-3 -7,0 -5,5 1,6 3,7z"/>
   <path class="fil0" d="M435 430c-5,2 -3,-2 -4,3 -1,7 7,7 7,1 1,-7 0,-3 -4,-5z"/>
   <path class="fil0" d="M585 242c0,10 1,4 2,7 11,-3 6,-11 -2,-7z"/>
   <path class="fil0" d="M404 470c-1,-7 2,-4 -3,-5 -6,-2 -5,6 -3,7 8,3 5,-1 6,-2z"/>
   <path class="fil0" d="M139 59c8,1 7,1 7,-7 -6,-1 -10,-2 -7,7z"/>
   <path class="fil0" d="M432 517c0,0 -5,-1 -1,5 1,3 4,1 5,1 0,0 5,1 2,-6 -2,-4 -4,-2 -5,-1z"/>
   <path class="fil0" d="M672 553l0 3c3,2 -4,4 5,2 6,-1 3,-6 1,-7 -8,-3 -5,2 -5,2z"/>
   <path class="fil0" d="M105 192c-1,5 2,9 6,4 1,-2 2,-3 0,-5 -5,-5 -6,1 -7,1z"/>
   <path class="fil0" d="M366 69c-5,2 -3,-2 -4,3 -1,7 7,7 7,1 1,-6 0,-3 -4,-5z"/>
   <path class="fil0" d="M104 177c0,0 -1,5 6,2 2,-1 2,-2 1,-5 -2,-6 -6,-4 -8,3z"/>
   <path class="fil0" d="M637 556c8,5 8,2 7,-5 -6,0 -7,-2 -7,5z"/>
   <path class="fil0" d="M628 417c-3,-6 4,-3 -7,-4 -1,2 -2,4 0,7 5,5 5,0 7,-3z"/>
   <path class="fil0" d="M863 523l3 0c1,-2 3,3 2,-5 -1,-6 -6,-3 -7,-1 -3,7 1,6 2,6z"/>
   <path class="fil0" d="M53 213c1,0 2,3 5,0 3,-4 1,-2 2,-7 -4,0 -4,-2 -7,2 -4,4 0,5 0,5z"/>
   <path class="fil0" d="M431 334l7 0c0,-7 3,-4 -4,-8 -5,3 -5,1 -4,8z"/>
   <path class="fil0" d="M881 430c0,0 -5,-2 -2,5 4,8 14,-6 2,-5z"/>
   <path class="fil0" d="M173 278c1,6 5,10 7,3 1,-2 1,-4 -2,-5 -7,-3 -5,1 -6,2z"/>
   <path class="fil0" d="M266 263l0 -3c-3,-2 4,-4 -5,-2 -6,1 -3,6 -1,7 7,3 5,-2 6,-2z"/>
   <path class="fil0" d="M404 539c-1,-6 -5,-9 -7,-3 -1,2 0,4 1,5 8,3 5,-1 6,-2z"/>
   <path class="fil0" d="M585 310c0,10 1,4 2,7 11,-3 5,-10 -2,-7z"/>
   <path class="fil0" d="M519 163c6,-1 10,-4 3,-7 -2,-1 -4,-1 -4,1 -3,8 1,5 2,6z"/>
   <path class="fil0" d="M765 625l0 -3c-3,-2 4,-3 -4,-2 -2,0 -3,0 -3,4 0,2 0,2 2,3 7,3 5,-2 6,-2z"/>
   <path class="fil0" d="M404 109c-1,-6 -5,-9 -8,-3 -1,2 0,4 1,5 8,3 5,-1 6,-2z"/>
   <path class="fil0" d="M574 293c-5,-1 -9,2 -4,6 2,1 3,2 5,0 5,-5 -1,-6 -1,-7z"/>
   <path class="fil0" d="M501 575c7,1 6,1 7,-7 -8,0 -10,-2 -7,7z"/>
   <path class="fil0" d="M18 54c2,8 -2,5 7,6l1 -8c-11,0 -5,1 -8,2z"/>
   <path class="fil0" d="M519 293c0,0 -5,-1 -2,6 1,2 2,2 5,1 7,-3 3,-6 -3,-7z"/>
   <path class="fil0" d="M517 553c2,8 -2,5 7,6l1 -8c-11,0 -5,1 -7,2z"/>
   <path class="fil0" d="M173 193c4,10 7,2 7,2l1 -4c-2,-1 2,-3 -5,-1 -4,1 -2,-4 -3,3z"/>
   <path class="fil0" d="M138 241c1,12 -2,4 4,8 6,-3 3,4 4,-7l-8 -1z"/>
   <path class="fil0" d="M415 438c2,0 4,1 5,-2 3,-8 -1,-5 -2,-5 -7,0 -6,3 -4,8z"/>
   <path class="fil0" d="M696 539c-2,-6 -5,-9 -8,-3 -1,2 0,4 2,5 8,3 5,-1 6,-2z"/>
   <path class="fil0" d="M335 126l0 -3c-3,-2 3,-4 -5,-2 -6,1 -3,6 -1,7 7,3 5,-1 5,-2z"/>
   <path class="fil0" d="M765 556l0 -3c-3,-2 3,-3 -5,-2 -6,1 -2,6 -1,7 7,3 5,-2 5,-2z"/>
   <path class="fil0" d="M344 437c3,1 4,3 7,0 5,-5 -1,-6 -1,-7 -7,2 -4,-1 -6,7z"/>
   <path class="fil0" d="M517 448c0,11 0,4 2,7 11,-3 6,-9 -2,-7z"/>
   <path class="fil0" d="M310 263c3,3 -2,2 3,2 7,1 2,0 4,-1 3,-10 -7,-9 -7,-1z"/>
   <path class="fil0" d="M576 575c0,-10 -1,-4 -2,-7 -10,2 -7,10 2,7z"/>
   <path class="fil0" d="M603 415c0,2 0,3 2,4 7,3 5,-1 5,-1l1 -4c0,0 -3,-6 -8,1z"/>
   <path class="fil0" d="M93 76c0,-1 3,-2 0,-5 -4,-4 -2,-1 -7,-2 0,4 -2,4 2,7 4,3 5,0 5,0z"/>
   <path class="fil0" d="M382 524c5,-1 10,-4 3,-7 -2,-1 -4,-1 -5,1 -3,8 1,5 2,6z"/>
   <path class="fil0" d="M362 241c1,12 -2,4 4,8 6,-3 3,4 4,-7l-8 -1z"/>
   <path class="fil0" d="M156 317c9,0 6,2 8,-6 -6,-2 -8,-2 -8,6z"/>
   <path class="fil0" d="M58 94c0,0 5,1 2,-6 -1,-2 -2,-2 -5,-1 -7,3 -2,6 3,7z"/>
   <path class="fil0" d="M415 213c1,0 2,3 5,0 3,-4 1,-2 2,-7 -4,0 -3,-2 -7,2 -4,4 0,5 0,5z"/>
   <path class="fil0" d="M917 524c0,0 5,1 2,-6 -1,-2 -2,-2 -5,-1 -7,3 -2,6 3,7z"/>
   <path class="fil0" d="M949 455c4,0 8,-2 4,-6 -1,-1 -3,-2 -5,0 -5,5 1,6 1,7z"/>
   <path class="fil0" d="M800 556c-1,-7 1,-6 -7,-5 -1,8 0,10 7,5z"/>
   <path class="fil0" d="M552 483c-1,3 -4,4 1,6 6,3 5,-1 6,-3 -2,-5 -2,-4 -7,-3z"/>
   <path class="fil0" d="M24 76c0,0 4,-1 0,-5 -4,-4 -2,-1 -7,-2 0,4 -2,4 2,7 4,3 4,0 5,0z"/>
   <path class="fil0" d="M266 109c-1,-6 -5,-9 -8,-3 -1,2 -1,4 2,5 8,3 5,-1 6,-2z"/>
   <path class="fil0" d="M913 483c-1,3 -3,4 1,6 7,3 5,-3 6,-5 0,0 -1,-1 -1,-1 0,0 -1,-1 -1,-1 -6,-1 -3,0 -4,1z"/>
   <path class="fil0" d="M266 193c-2,-4 2,-3 -3,-4 -4,-1 -5,0 -5,4 0,4 1,3 3,4 6,1 3,0 5,-4z"/>
   <path class="fil0" d="M483 534c0,1 -3,2 0,5 4,3 2,1 7,2 0,-4 2,-4 -2,-7 -4,-3 -5,0 -5,0z"/>
   <path class="fil0" d="M809 541c4,0 4,2 7,-2 3,-4 0,-5 0,-5 0,0 -2,-3 -5,0 -3,3 -2,2 -2,7z"/>
   <path class="fil0" d="M696 607c-2,-5 -5,-10 -8,-3 -1,2 -1,4 2,4 8,3 5,-1 6,-2z"/>
   <path class="fil0" d="M878 448c0,12 0,4 2,7 11,-3 6,-9 -2,-7z"/>
   <path class="fil0" d="M523 574c0,-1 3,-2 0,-5 -4,-3 -2,-1 -7,-1 0,4 -2,3 2,6 4,3 5,0 5,0z"/>
   <path class="fil0" d="M792 626c7,1 4,3 8,-3 -5,-6 -1,-4 -8,-3l0 7z"/>
   <path class="fil0" d="M448 180c4,0 4,2 7,-2 3,-4 0,-5 0,-5 -1,0 -2,-3 -5,0 -3,3 -2,2 -2,7z"/>
   <path class="fil0" d="M499 214l8 1c0,-10 -1,-5 -2,-7 -8,2 -4,-2 -6,7z"/>
   <path class="fil0" d="M122 42c11,0 4,-1 7,-2 -3,-10 -9,-7 -7,2z"/>
   <path class="fil0" d="M844 627c12,-1 4,2 8,-4 -3,-6 4,-3 -7,-4l-1 8z"/>
   <path class="fil0" d="M364 368l4 1c0,-1 6,-1 -1,-8 -2,0 -3,0 -4,2 -4,7 1,5 1,5z"/>
   <path class="fil0" d="M53 104c0,0 -3,2 0,5 4,4 2,1 6,2 0,-4 2,-3 -1,-7 -4,-3 -5,0 -5,0z"/>
   <path class="fil0" d="M628 539c-2,-7 1,-4 -7,-6 -1,3 -2,4 0,7 5,5 6,-1 7,-1z"/>
   <path class="fil0" d="M455 213c0,-1 3,-2 0,-5 -4,-4 -2,-1 -7,-2 0,4 -2,3 2,7 4,3 5,0 5,0z"/>
   <path class="fil0" d="M158 94c6,-1 9,-5 3,-7 -2,-1 -4,0 -4,2 -3,7 1,5 2,6z"/>
   <path class="fil0" d="M456 506c-1,-8 1,-6 -8,-7 1,8 0,9 8,7z"/>
   <path class="fil0" d="M517 541c4,0 4,2 7,-2 3,-4 0,-5 0,-5 -1,0 -2,-3 -5,0 -3,3 -2,2 -2,7z"/>
   <path class="fil0" d="M71 7l5 1c0,-1 6,-1 -1,-8 -2,0 -3,0 -4,2 -3,7 1,5 1,5z"/>
   <path class="fil0" d="M448 558c7,-1 4,2 8,-4 -4,-6 -1,-3 -8,-4l0 8z"/>
   <path class="fil0" d="M499 241c1,12 -2,4 4,8 6,-3 3,4 4,-7l-8 0z"/>
   <path class="fil0" d="M156 248c4,0 4,2 7,-1 3,-4 0,-5 0,-5 -1,0 -2,-3 -5,0 -3,3 -2,2 -2,6z"/>
   <path class="fil0" d="M156 266c4,0 4,2 6,-2 3,-3 0,-4 0,-5 -7,-2 -7,-2 -7,7z"/>
   <path class="fil0" d="M517 248c4,0 3,2 6,-1 3,-4 0,-5 0,-5 -1,0 -2,-3 -5,0 -3,3 -2,2 -2,6z"/>
   <path class="fil0" d="M569 534c0,0 -3,2 0,5 3,3 2,1 7,1 0,-4 2,-3 -1,-6 -3,-3 -5,0 -5,0z"/>
   <path class="fil0" d="M379 180c4,0 4,2 7,-2 3,-4 0,-5 0,-5 -1,0 -2,-3 -5,0 -3,3 -2,2 -2,7z"/>
   <path class="fil0" d="M122 213c0,0 2,4 5,0 3,-4 1,-2 2,-7 -5,0 -10,0 -7,7z"/>
   <path class="fil0" d="M431 172c1,12 -2,4 4,8 6,-3 3,4 4,-7l-8 -1z"/>
   <path class="fil0" d="M52 76c8,2 8,2 8,-7 -8,0 -7,-2 -8,7z"/>
   <path class="fil0" d="M430 506l8 1c-1,-12 2,-4 -4,-8 -6,3 -3,-2 -4,7z"/>
   <path class="fil0" d="M519 361c0,0 -5,-1 -2,6 1,2 2,3 5,2 6,-2 3,-6 -3,-7z"/>
   <path class="fil0" d="M379 415c2,8 -2,4 7,6l1 -8c-11,0 -5,1 -7,2z"/>
   <path class="fil0" d="M293 310c1,12 -2,4 4,8 6,-3 3,4 4,-7l-8 -1z"/>
   <path class="fil0" d="M551 197c12,-1 4,2 8,-4 -4,-6 3,-3 -7,-4l-1 8z"/>
   <path class="fil0" d="M346 259c0,0 -3,2 0,5 4,3 2,1 6,2 0,-8 1,-9 -6,-6z"/>
   <path class="fil0" d="M844 558c12,-1 4,2 8,-4 -3,-6 4,-3 -7,-4l0 8z"/>
   <path class="fil0" d="M519 431c0,0 -6,-1 -2,5 2,4 3,2 5,2 3,-5 3,-8 -3,-7z"/>
   <path class="fil0" d="M484 506c7,2 6,0 6,-6 -4,0 -4,-2 -7,2 -5,6 0,5 0,5z"/>
   <path class="fil0" d="M224 241c0,10 1,5 2,8 8,-2 4,2 6,-7l-8 -1z"/>
   <path class="fil0" d="M482 558c12,-1 4,2 8,-4 -3,-6 4,-3 -7,-4l-1 8z"/>
   <path class="fil0" d="M52 42c10,0 5,-1 8,-3 -2,-7 1,-4 -7,-6l-1 8z"/>
   <path class="fil0" d="M344 506l8 1c0,-11 -1,-5 -3,-8 -7,2 -4,-1 -6,7z"/>
   <path class="fil0" d="M162 145c0,0 3,-2 0,-5 -3,-3 -2,-1 -6,-2 0,4 -2,3 1,7 4,3 5,0 5,0z"/>
   <path class="fil0" d="M455 419c0,0 3,-2 0,-5 -4,-3 -2,-1 -6,-2 0,4 -2,4 1,7 4,3 5,0 5,0z"/>
   <path class="fil0" d="M311 248c8,0 9,0 6,-8 -7,1 -7,0 -6,8z"/>
   <path class="fil0" d="M260 282c1,0 -2,5 5,1 2,-1 2,-3 1,-4 -1,0 2,-5 -5,-2 -4,2 -2,4 -1,5z"/>
   <path class="fil0" d="M592 574c0,-1 3,-2 0,-5 -4,-3 -2,-1 -7,-1 0,4 -2,3 2,6 4,3 4,0 5,0z"/>
   <path class="fil0" d="M482 197c12,-1 4,2 8,-4 -3,-6 4,-3 -7,-4l-1 8z"/>
   <path class="fil0" d="M414 420c0,0 2,3 5,0 3,-3 1,-2 1,-7 -6,0 -10,0 -7,7z"/>
   <path class="fil0" d="M448 248c4,0 3,2 7,-2 3,-4 0,-4 0,-5 -1,0 -2,-3 -5,0 -3,3 -2,2 -2,7z"/>
   <path class="fil0" d="M637 506l8 1c0,-10 -1,-5 -2,-8 -8,2 -4,-2 -6,7z"/>
   <path class="fil0" d="M860 506l8 0c-1,-12 2,-4 -4,-8 -6,4 -3,-4 -4,7z"/>
   <path class="fil0" d="M519 386c7,1 6,-3 3,-7 -2,0 -4,-2 -5,2 -3,7 1,5 2,5z"/>
   <path class="fil0" d="M878 484c2,8 -2,5 7,6l1 -8c-10,0 -5,1 -7,2z"/>
   <path class="fil0" d="M242 278c3,10 9,7 7,-2 -10,0 -5,1 -7,2z"/>
   <path class="fil0" d="M122 53c-1,3 -3,4 1,6 7,3 5,-2 6,-5 -4,-2 -4,-2 -7,-1z"/>
   <path class="fil0" d="M620 403c10,0 5,-1 7,-2 -2,-11 -9,-7 -7,2z"/>
   <path class="fil0" d="M964 430c0,3 0,12 6,6 6,-6 -3,-6 -6,-6z"/>
   <path class="fil0" d="M482 335c11,0 5,-1 7,-2 -1,-8 2,-4 -7,-6l-1 8z"/>
   <path class="fil0" d="M293 172c0,9 1,5 2,7 8,-2 4,2 6,-7l-8 -1z"/>
   <path class="fil0" d="M386 144c0,-1 3,-2 0,-5 -4,-4 -2,-1 -7,-2 0,4 -2,4 2,7 4,3 5,0 5,0z"/>
   <path class="fil0" d="M523 420c0,0 3,-2 0,-5 -4,-3 -2,-1 -6,-2 0,4 -2,4 1,6 4,3 5,0 5,0z"/>
   <path class="fil0" d="M414 488c0,0 2,3 5,0 3,-3 1,-2 1,-7 -6,0 -10,0 -7,7z"/>
   <path class="fil0" d="M207 145l8 1c0,-11 0,-4 -2,-7 -8,1 -4,-2 -6,7z"/>
   <path class="fil0" d="M209 94l3 0c1,-1 4,0 1,-7 -2,0 -3,-2 -5,1 -3,6 0,5 2,6z"/>
   <path class="fil0" d="M568 554c4,6 1,4 8,4l0 -7c-9,-1 -4,-1 -8,4z"/>
   <path class="fil0" d="M523 145c0,0 3,-2 0,-5 -4,-3 -2,-1 -6,-1 0,4 -2,3 2,7 3,3 5,0 5,0z"/>
   <path class="fil0" d="M224 172c0,10 1,5 2,8 8,-2 4,1 6,-7l-8 -1z"/>
   <path class="fil0" d="M157 76c6,1 2,1 7,0 -1,-8 2,-5 -6,-7 -1,2 -4,0 -1,7z"/>
   <path class="fil0" d="M231 213c0,-1 3,-2 0,-5 -3,-3 -2,-1 -6,-1 0,4 -2,3 2,6 4,3 5,0 5,0z"/>
   <path class="fil0" d="M362 145l8 0c-1,-11 1,-4 -4,-8 -6,3 -2,-4 -4,7z"/>
   <path class="fil0" d="M317 215c2,-8 2,-7 -6,-8 0,9 -2,6 6,8z"/>
   <path class="fil0" d="M776 672c0,0 -3,2 0,5 4,4 2,1 7,1 0,-4 2,-3 -2,-6 -4,-3 -5,0 -5,0z"/>
   <path class="fil0" d="M69 145l8 1c-1,-12 2,-4 -4,-8 -6,3 -2,-4 -4,7z"/>
   <path class="fil0" d="M53 129c10,-1 6,3 7,-6 0,0 -1,-2 -1,-1 0,0 -1,-1 -2,-1 -6,-2 6,1 -4,-1l-1 8z"/>
   <path class="fil0" d="M346 76c0,0 2,3 5,0 3,-4 1,-2 2,-6 -6,0 -10,-1 -6,6z"/>
   <path class="fil0" d="M559 362c-3,0 -12,0 -6,6 6,6 6,-2 6,-6z"/>
   <path class="fil0" d="M723 602c0,10 1,5 2,7 8,-2 5,2 6,-7l-8 -1z"/>
   <path class="fil0" d="M534 140c1,4 4,10 7,3 1,-2 1,-4 -1,-4 -8,-3 -5,1 -6,2z"/>
   <path class="fil0" d="M656 602c0,1 -6,3 3,8 5,-3 2,2 4,-7l-7 -1z"/>
   <path class="fil0" d="M94 59c2,-7 1,-6 -7,-7 0,8 -1,9 7,7z"/>
   <path class="fil0" d="M379 278c2,7 -1,4 7,6l1 -8c-11,0 -5,1 -8,3z"/>
   <path class="fil0" d="M346 466c0,1 -3,2 0,5 4,3 2,1 7,2 0,-4 2,-4 -2,-7 -4,-3 -5,0 -5,0z"/>
   <path class="fil0" d="M982 472c9,0 5,-1 7,-2 -2,-10 -9,-7 -7,2z"/>
   <path class="fil0" d="M379 209c2,7 -1,4 7,6l1 -8c-11,0 -5,1 -8,3z"/>
   <path class="fil0" d="M517 317c9,0 7,2 8,-6 -7,-2 -8,-2 -8,6z"/>
   <path class="fil0" d="M568 506l8 1c-1,-12 2,-4 -4,-8 -6,3 -2,-4 -4,7z"/>
   <path class="fil0" d="M741 541c4,0 3,2 6,-2 3,-3 0,-4 0,-5 -1,0 -2,-3 -5,0 -3,3 -2,2 -1,7z"/>
   <path class="fil0" d="M379 470c6,5 -1,2 7,2l0 -8c-8,1 -6,-2 -7,6z"/>
   <path class="fil0" d="M500 265l7 1c1,-7 2,-3 -2,-8 -5,1 -7,-1 -5,7z"/>
   <path class="fil0" d="M224 76l8 0c-1,-9 2,-6 -6,-7 -4,5 -2,3 -2,7z"/>
   <path class="fil0" d="M346 104c0,1 -3,2 0,5 4,4 2,1 6,1 0,-4 2,-3 -2,-6 -4,-3 -5,0 -5,0z"/>
   <path class="fil0" d="M552 574c0,0 2,4 5,0 4,-4 1,-2 2,-7 -5,0 -10,0 -7,6z"/>
   <path class="fil0" d="M603 622l0 3c1,1 0,4 7,1l1 -4c0,0 -3,-6 -8,1z"/>
   <path class="fil0" d="M242 123c0,2 0,3 2,4 7,3 5,-1 5,-1l1 -5c-2,-1 2,-3 -5,-1 -5,1 0,-2 -3,2z"/>
   <path class="fil0" d="M776 603c0,1 -4,2 0,5 4,4 2,1 6,1 0,-4 2,-3 -2,-6 -4,-3 -5,0 -5,0z"/>
   <path class="fil0" d="M431 214l8 0c-1,-11 1,-4 -4,-8 -6,3 -2,-4 -4,7z"/>
   <path class="fil0" d="M552 603c-2,7 0,6 7,6 0,-4 2,-4 -2,-7 -4,-4 -5,0 -5,0z"/>
   <path class="fil0" d="M53 145c8,3 6,-1 6,-6 -4,0 -4,-2 -7,2 -4,4 0,5 0,5z"/>
   <path class="fil0" d="M276 76l8 1c0,-10 -1,-5 -2,-8 -7,2 -4,-2 -6,7z"/>
   <path class="fil0" d="M499 145l8 1c-1,-12 2,-4 -4,-8 -6,3 -3,-4 -4,7z"/>
   <path class="fil0" d="M94 127c1,-7 1,-6 -7,-7 0,4 -2,4 1,7 3,3 5,0 5,0z"/>
   <path class="fil0" d="M586 541c4,0 3,2 6,-1 3,-4 0,-5 0,-5 -1,0 -2,-3 -5,0 -3,3 -2,2 -1,6z"/>
   <path class="fil0" d="M448 317c4,0 4,2 7,-2 3,-4 0,-5 0,-5 -6,-2 -6,-1 -6,7z"/>
   <path class="fil0" d="M293 76l8 0c-1,-11 1,-4 -4,-8 -6,3 -3,-4 -4,7z"/>
   <path class="fil0" d="M214 197l0 -7c-11,-1 -12,8 0,7z"/>
   <path class="fil0" d="M70 110l8 1c-1,-8 2,-4 -4,-8 -5,3 -4,1 -4,8z"/>
   <path class="fil0" d="M362 111c4,0 4,2 7,-1 3,-3 0,-5 0,-5 -6,-1 -7,-1 -7,7z"/>
   <path class="fil0" d="M501 534c0,0 -3,2 0,5 3,3 2,1 7,1 -1,-8 0,-8 -7,-7z"/>
   <path class="fil0" d="M947 472c4,0 3,2 6,-1 3,-4 0,-5 0,-5 0,0 -2,-3 -5,0 -3,3 -2,2 -1,6z"/>
   <path class="fil0" d="M775 558c9,-1 6,2 7,-6 -4,-3 -2,-2 -7,-2l-1 8z"/>
   <path class="fil0" d="M860 534c1,11 -2,4 4,8 6,-3 3,3 4,-7l-8 -1z"/>
   <path class="fil0" d="M792 602c0,10 1,5 2,7 8,-1 5,2 6,-7l-8 -1z"/>
   <path class="fil0" d="M209 362c0,0 -5,-1 -2,6 2,4 3,2 5,1 2,-4 2,4 1,-4 -1,-4 0,-1 -2,-3l-3 0z"/>
   <path class="fil0" d="M552 282c0,0 2,4 5,0 3,-4 1,-2 1,-7 -6,1 -10,0 -7,6z"/>
   <path class="fil0" d="M300 213c2,-8 2,-7 -6,-6 0,4 -2,3 1,6 3,3 4,0 5,0z"/>
   <path class="fil0" d="M627 610c0,-9 2,-6 -6,-8 -2,8 -2,7 6,8z"/>
   <path class="fil0" d="M310 193c2,6 1,5 7,3l1 -5c-2,0 2,-3 -5,-1 -3,1 -2,-3 -3,3z"/>
   <path class="fil0" d="M87 25c19,0 0,-18 0,0z"/>
   <path class="fil0" d="M483 419c0,0 2,4 5,0 3,-3 1,-2 1,-7 -6,0 -10,0 -6,6z"/>
   <path class="fil0" d="M276 145l8 1c0,-10 -1,-5 -2,-8 -7,2 -4,-2 -6,7z"/>
   <path class="fil0" d="M346 488c8,2 7,2 7,-7 -6,0 -9,0 -7,7z"/>
   <path class="fil0" d="M415 282c1,0 2,3 5,0 3,-4 1,-2 1,-6 -4,0 -3,-2 -6,2 -4,4 0,5 0,5z"/>
   <path class="fil0" d="M576 266l0 -7c-11,-1 -12,8 0,7z"/>
   <path class="fil0" d="M517 180c4,0 3,2 6,-1 3,-4 0,-5 0,-5 -1,0 -2,-3 -5,0 -3,3 -2,2 -1,6z"/>
   <path class="fil0" d="M362 265l7 0c1,-8 1,-8 -7,-7l-1 7z"/>
   <path class="fil0" d="M455 282c0,-1 3,-2 0,-5 -4,-3 -2,-1 -6,-2 0,4 -2,4 1,6 4,3 5,0 5,0z"/>
   <path class="fil0" d="M346 351c0,0 2,3 5,0 3,-4 1,-2 1,-6 -6,0 -10,0 -7,7z"/>
   <path class="fil0" d="M73 215c6,-4 3,0 4,-8l-8 0c0,7 -2,4 4,8z"/>
   <path class="fil0" d="M122 242c-2,7 -1,6 7,6 0,-4 2,-4 -2,-7 -4,-3 -5,0 -5,0z"/>
   <path class="fil0" d="M310 332c3,3 -2,2 3,2 8,1 2,0 4,-1l0 -5c-1,0 0,-4 -6,0 -2,1 -2,2 -2,4z"/>
   <path class="fil0" d="M379 347c2,7 -1,4 7,6l1 -8c-10,0 -5,1 -8,2z"/>
   <path class="fil0" d="M379 248c4,0 4,2 7,-2 3,-4 0,-5 0,-5 -6,-2 -7,-1 -7,6z"/>
   <path class="fil0" d="M191 311c0,0 -4,1 0,5 4,4 2,1 7,2 0,-4 2,-4 -2,-7 -4,-3 -4,0 -5,0z"/>
   <path class="fil0" d="M87 248c4,0 4,2 7,-1 3,-4 0,-5 0,-5 -6,-2 -7,0 -6,6z"/>
   <path class="fil0" d="M138 173c1,9 -2,6 6,7 3,-4 2,-2 2,-7l-8 0z"/>
   <path class="fil0" d="M346 420c0,0 2,3 5,0 3,-3 1,-2 1,-6 -6,0 -10,0 -7,7z"/>
   <path class="fil0" d="M723 541c8,0 9,1 7,-7 -6,-1 -7,-1 -7,7z"/>
   <path class="fil0" d="M414 397c0,0 -3,2 0,5 4,3 2,1 7,2 0,-7 1,-9 -7,-7z"/>
   <path class="fil0" d="M413 241c2,8 -2,5 6,7 4,-4 2,-3 3,-7l-8 0z"/>
   <path class="fil0" d="M52 193c4,6 0,3 8,4l0 -8c-10,1 -5,1 -8,4z"/>
   <path class="fil0" d="M414 534c-2,7 1,6 7,7 0,-4 2,-4 -2,-7 -4,-3 -5,0 -5,0z"/>
   <path class="fil0" d="M414 127c0,0 2,4 5,0 3,-3 1,-2 1,-7 -6,0 -9,0 -6,6z"/>
   <path class="fil0" d="M638 282c0,0 2,3 5,0 3,-4 1,-2 1,-6 -6,0 -10,0 -6,7z"/>
   <path class="fil0" d="M362 179c4,0 4,2 7,-1 3,-4 0,-5 0,-5 -6,-1 -7,-1 -7,6z"/>
   <path class="fil0" d="M483 242c-3,8 1,6 7,7 0,-4 2,-4 -2,-7 -4,-3 -5,0 -5,0z"/>
   <path class="fil0" d="M415 506c7,2 6,1 6,-7 -4,0 -4,-2 -7,2 -4,4 0,5 0,5z"/>
   <path class="fil0" d="M448 193c3,6 -4,3 7,4l1 -8c-12,1 -3,-1 -8,4z"/>
   <path class="fil0" d="M277 282c0,0 2,3 5,0 3,-4 1,-2 1,-6 -6,0 -10,0 -6,6z"/>
   <path class="fil0" d="M517 472c4,0 3,2 6,-1 3,-4 0,-5 0,-5 -1,0 -2,-3 -5,0 -3,3 -2,2 -1,6z"/>
   <path class="fil0" d="M912 472c10,0 5,-1 8,-2 -2,-7 1,-4 -7,-6l-1 8z"/>
   <path class="fil0" d="M448 264c4,3 3,2 7,2l0 -8c-9,1 -6,-3 -7,6z"/>
   <path class="fil0" d="M94 213c0,0 3,-2 0,-5 -4,-3 -2,-1 -7,-2 0,6 -1,9 7,7z"/>
   <path class="fil0" d="M328 109c8,6 7,1 7,0 1,-7 -7,-9 -7,0z"/>
   <path class="fil0" d="M191 346l0 5c1,0 0,4 6,1 2,-1 1,-2 2,-4 -3,-3 2,-2 -3,-2 -8,-1 -1,0 -4,1z"/>
   <path class="fil0" d="M413 145l8 1c0,-10 -1,-5 -3,-8 -7,2 -4,-1 -6,7z"/>
   <path class="fil0" d="M438 482l-7 -1c-1,12 8,11 7,1z"/>
   <path class="fil0" d="M552 534c-2,7 1,6 7,7 0,-4 2,-4 -2,-7 -4,-3 -5,0 -5,0z"/>
   <path class="fil0" d="M552 213c1,0 2,4 5,0 4,-4 1,-2 2,-7 -6,0 -10,0 -6,6z"/>
   <path class="fil0" d="M483 490c9,-1 6,3 7,-6 -4,-3 -2,-2 -7,-2l0 8z"/>
   <path class="fil0" d="M431 265l6 0c2,-12 -9,-10 -6,0z"/>
   <path class="fil0" d="M346 328c-2,7 -1,6 7,7 0,-4 2,-4 -1,-7 -4,-3 -5,0 -5,0z"/>
   <path class="fil0" d="M139 104c-2,8 -2,7 7,7 0,-8 0,-8 -7,-7z"/>
   <path class="fil0" d="M87 180c4,0 3,2 7,-1 3,-4 0,-5 0,-5 -6,-2 -7,0 -6,6z"/>
   <path class="fil0" d="M621 621l-1 5c1,0 0,5 6,1 2,-1 2,-3 2,-4 -1,-1 0,-4 -7,-1z"/>
   <path class="fil0" d="M483 213c1,0 2,3 5,0 3,-4 1,-2 2,-7 -6,0 -10,0 -7,6z"/>
   <path class="fil0" d="M328 209c0,9 8,7 7,0 0,0 1,-6 -7,0z"/>
   <path class="fil0" d="M379 125c3,6 -4,3 7,4l1 -8c-12,1 -3,-1 -8,4z"/>
   <path class="fil0" d="M816 574c2,-8 -1,-6 -7,-7 0,4 -2,3 2,7 3,3 5,0 5,0z"/>
   <path class="fil0" d="M379 486c3,6 -3,3 7,4l1 -8c-12,1 -3,-1 -8,4z"/>
   <path class="fil0" d="M930 506l7 0c-1,-12 2,-4 -4,-8 -5,3 -6,1 -3,7z"/>
   <path class="fil0" d="M414 351c0,0 2,3 5,0 3,-4 1,-2 1,-6 -6,0 -10,0 -6,6z"/>
   <path class="fil0" d="M379 87c0,12 0,4 3,7 11,-3 5,-9 -3,-7z"/>
   <path class="fil0" d="M448 541c4,0 3,2 6,-1 3,-4 0,-5 0,-5 -6,-2 -7,-1 -6,6z"/>
   <path class="fil0" d="M94 145c2,-7 0,-6 -6,-7 0,4 -2,3 1,7 4,3 5,0 5,0z"/>
   <path class="fil0" d="M603 261c0,2 0,4 2,4 7,3 5,-1 5,-1l1 -4c-3,-1 3,-3 -4,-1 -4,1 -1,-1 -3,2z"/>
   <path class="fil0" d="M386 196c1,-6 1,-6 -6,-6 0,4 -2,4 1,7 3,3 5,0 5,0z"/>
   <path class="fil0" d="M432 447c0,1 -6,1 1,8l3 0c1,-1 4,0 1,-7l-4 0z"/>
   <path class="fil0" d="M845 506c7,2 6,1 6,-6 -4,0 -4,-2 -7,2 -4,4 0,4 0,5z"/>
   <path class="fil0" d="M414 173c-2,7 0,6 7,7 0,-4 2,-4 -2,-7 -4,-3 -5,0 -5,0z"/>
   <path class="fil0" d="M414 104c-2,7 1,6 7,7 0,-4 2,-3 -2,-7 -4,-3 -5,0 -5,0z"/>
   <path class="fil0" d="M860 465c1,10 -1,4 4,8 6,-3 3,2 4,-7l-8 0z"/>
   <path class="fil0" d="M912 554c4,6 1,3 8,4l0 -8c-10,1 -4,1 -8,4z"/>
   <path class="fil0" d="M482 472c10,0 5,-1 8,-2 -2,-7 1,-4 -7,-6l-1 8z"/>
   <path class="fil0" d="M747 576c2,-8 2,-7 -6,-8 0,8 -1,6 6,8z"/>
   <path class="fil0" d="M587 379c-1,2 -3,-3 -1,4 1,5 -1,0 2,3 8,-2 8,-9 -1,-7z"/>
   <path class="fil0" d="M318 140c-16,-12 -3,19 0,0z"/>
   <path class="fil0" d="M483 145c1,0 2,3 5,0 3,-4 1,-2 2,-7 -6,0 -10,0 -6,6z"/>
   <path class="fil0" d="M448 437c9,2 13,-4 2,-7 -4,5 -2,3 -2,7z"/>
   <path class="fil0" d="M448 472c4,0 3,2 6,-2 3,-4 0,-5 0,-5 -6,-2 -7,-1 -6,6z"/>
   <path class="fil0" d="M740 623c3,6 -4,3 7,4l1 -8c-12,1 -3,0 -8,4z"/>
   <path class="fil0" d="M878 554c3,6 -4,3 7,4l1 -8c-12,1 -3,-1 -8,4z"/>
   <path class="fil0" d="M276 310c2,9 -2,5 6,7 4,-4 2,-3 2,-7l-8 0z"/>
   <path class="fil0" d="M930 465c0,0 -4,2 0,5 3,3 2,1 7,1 -1,-7 0,-8 -7,-7z"/>
   <path class="fil0" d="M568 193c4,6 1,4 8,3l0 -7c-9,-1 -4,-1 -8,3z"/>
   <path class="fil0" d="M156 335c8,0 8,0 7,-7 -7,-2 -7,-2 -7,7z"/>
   <path class="fil0" d="M415 311c0,1 -4,2 0,5 4,4 2,1 7,2 0,-7 1,-8 -6,-7z"/>
   <path class="fil0" d="M317 282c2,-6 0,-6 -6,-6 0,4 -2,4 1,7 4,4 5,0 5,-1z"/>
   <path class="fil0" d="M620 283c9,-1 5,2 7,-6 -5,-4 -2,-2 -7,-2l0 8z"/>
   <path class="fil0" d="M350 386c3,-4 2,-4 2,-7 -9,-2 -13,4 -2,7z"/>
   <path class="fil0" d="M569 214c6,1 6,1 7,-7 -7,0 -10,-1 -7,7z"/>
   <path class="fil0" d="M366 215c8,-6 5,-8 -4,-8 0,7 -2,4 4,8z"/>
   <path class="fil0" d="M620 483l0 5c1,0 0,4 6,1 2,-1 2,-3 2,-4 -3,-3 2,-2 -3,-2 -7,-1 -2,0 -4,1z"/>
   <path class="fil0" d="M414 328c-2,7 1,6 6,7 0,-4 2,-4 -1,-7 -4,-3 -5,0 -5,0z"/>
   <path class="fil0" d="M930 534c0,0 -3,2 0,5 3,3 2,1 7,1 -1,-7 0,-8 -7,-7z"/>
   <path class="fil0" d="M587 437l5 0c0,0 8,-5 -4,-8 0,0 -4,0 -1,7z"/>
   <path class="fil0" d="M142 215c6,-4 3,-1 4,-8l-7 0c0,7 -2,4 4,8z"/>
   <path class="fil0" d="M87 111c4,0 3,2 6,-2 3,-4 0,-5 0,-5 -6,-2 -7,0 -6,6z"/>
   <path class="fil0" d="M379 317c8,0 6,2 8,-6 -6,-2 -8,-3 -8,6z"/>
   <path class="fil0" d="M346 145c0,0 2,3 5,0 3,-4 1,-2 2,-6 -6,0 -10,0 -6,6z"/>
   <path class="fil0" d="M53 60c9,-1 6,2 7,-6l-3 -2c-7,-2 6,1 -4,-1l0 8z"/>
   <path class="fil0" d="M311 180c7,-1 9,1 7,-6 0,0 -2,-4 -5,0 -3,3 -2,2 -2,7z"/>
   <path class="fil0" d="M654 541c4,0 4,2 6,-1 3,-3 0,-5 0,-5 -6,-1 -7,-1 -6,7z"/>
   <path class="fil0" d="M776 643c0,0 2,4 5,0 3,-4 1,-2 1,-6 -6,0 -10,0 -6,6z"/>
   <path class="fil0" d="M431 541c8,0 12,-2 4,-8 -5,3 -4,1 -4,8z"/>
   <path class="fil0" d="M208 213c7,2 6,1 6,-6 -7,0 -10,-1 -6,6z"/>
   <path class="fil0" d="M483 351c7,2 6,0 6,-6 -4,0 -3,-2 -6,1 -4,4 0,5 0,5z"/>
   <path class="fil0" d="M884 506c0,0 4,-2 0,-5 -4,-3 -2,-1 -7,-1 0,7 0,8 6,7z"/>
   <path class="fil0" d="M18 8c9,1 13,-4 3,-7 -5,5 -2,3 -3,7z"/>
   <path class="fil0" d="M569 603c-2,7 0,7 7,7 0,-4 2,-3 -2,-6 -4,-3 -4,0 -5,0z"/>
   <path class="fil0" d="M866 558c4,-5 2,-1 1,-7l-6 -1c-1,8 -2,7 5,8z"/>
   <path class="fil0" d="M809 516c0,12 0,4 3,7 11,-4 4,-9 -3,-7z"/>
   <path class="fil0" d="M448 484c1,7 1,6 7,4l0 -7c-10,0 -5,1 -7,2z"/>
   <path class="fil0" d="M517 506l8 0c-1,-8 2,-5 -6,-7 -4,5 -2,2 -2,7z"/>
   <path class="fil0" d="M414 260c1,7 0,5 7,6 0,-7 1,-11 -7,-6z"/>
   <path class="fil0" d="M379 401l3 2c6,2 -6,-1 4,1l0 -8c-8,1 -6,-2 -7,6z"/>
   <path class="fil0" d="M603 401c0,0 0,4 7,1l0 -4c-1,0 0,-5 -6,-1 -2,1 -2,3 -2,4z"/>
   <path class="fil0" d="M671 624c3,3 -2,2 3,2 8,1 0,1 4,-1l1 -5c-1,0 0,-5 -6,-1 -2,1 -2,3 -2,4z"/>
   <path class="fil0" d="M483 574c7,2 6,0 7,-7 -6,0 -10,0 -7,7z"/>
   <path class="fil0" d="M483 173c-3,7 0,6 6,6 0,-4 2,-4 -2,-7 -4,-3 -5,0 -5,0z"/>
   <path class="fil0" d="M385 506c0,-1 4,-2 1,-5 -4,-3 -2,-1 -7,-2 0,7 -1,9 6,6z"/>
   <path class="fil0" d="M448 386c19,0 0,-17 0,0z"/>
   <path class="fil0" d="M191 174c-2,6 0,5 6,6 0,-4 2,-4 -2,-7 -4,-4 -5,1 -5,1z"/>
   <path class="fil0" d="M678 574c2,-6 0,-6 -6,-6 0,4 -2,4 2,7 4,3 5,0 5,-1z"/>
   <path class="fil0" d="M592 282c0,0 3,-2 0,-5 -4,-3 -2,-1 -6,-1 0,4 -2,3 1,6 4,3 4,0 5,0z"/>
   <path class="fil0" d="M362 472c19,0 0,-18 0,0z"/>
   <path class="fil0" d="M413 193c4,6 1,3 8,4l0 -8c-10,1 -5,1 -8,4z"/>
   <path class="fil0" d="M792 643l8 1c-1,-9 3,-6 -6,-7 -3,4 -2,3 -2,7z"/>
   <path class="fil0" d="M277 213c1,0 2,3 5,0 4,-4 1,-2 1,-6 -6,0 -10,0 -6,6z"/>
   <path class="fil0" d="M455 351c2,-7 -1,-6 -6,-6 0,4 -2,4 1,6 4,3 5,0 5,0z"/>
   <path class="fil0" d="M346 59c7,2 6,2 7,-7 -6,0 -9,0 -7,7z"/>
   <path class="fil0" d="M484 311c0,0 -4,2 0,5 4,4 2,1 7,2 -1,-7 1,-8 -6,-7z"/>
   <path class="fil0" d="M792 541c8,0 12,-2 4,-8 -5,3 -4,1 -4,8z"/>
   <path class="fil0" d="M503 283c6,-4 3,0 4,-8 -8,0 -12,2 -4,8z"/>
   <path class="fil0" d="M368 283c5,-8 1,-7 -6,-7 0,8 -1,6 6,7z"/>
   <path class="fil0" d="M122 173c-2,8 1,6 6,6 0,-4 2,-4 -2,-7 -4,-3 -4,0 -5,0z"/>
   <path class="fil0" d="M156 111c4,0 3,2 6,-1 3,-4 0,-5 0,-5 -5,-2 -7,-1 -6,6z"/>
   <path class="fil0" d="M913 534c-2,7 -1,6 6,6 0,-4 2,-3 -1,-7 -4,-3 -5,0 -5,0z"/>
   <path class="fil0" d="M415 466c-2,7 1,6 6,6 0,-4 2,-4 -1,-6 -4,-3 -5,0 -5,0z"/>
   <path class="fil0" d="M162 58c0,0 3,-2 0,-5 -4,-3 -2,-1 -6,-1 0,6 -1,9 6,6z"/>
   <path class="fil0" d="M501 465c-2,8 -2,7 7,7 0,-8 0,-8 -7,-7z"/>
   <path class="fil0" d="M225 111c8,0 9,1 7,-7 -6,-1 -7,-1 -7,7z"/>
   <path class="fil0" d="M517 195c0,0 1,0 1,1l6 1 1 -8c-9,1 -6,-2 -7,6z"/>
   <path class="fil0" d="M878 472c4,0 3,2 6,-2 3,-4 0,-5 0,-5 -6,-2 -7,-1 -6,6z"/>
   <path class="fil0" d="M603 539c4,4 2,2 7,2 2,-9 -5,-13 -7,-2z"/>
   <path class="fil0" d="M792 575l7 1c2,-7 3,-6 -4,-8 -3,4 -2,3 -2,7z"/>
   <path class="fil0" d="M208 351c7,2 6,1 7,-7 -6,0 -10,0 -7,7z"/>
   <path class="fil0" d="M586 335c8,0 8,0 7,-7 0,0 -2,-3 -5,0 -3,3 -2,2 -1,6z"/>
   <path class="fil0" d="M809 609c4,0 3,2 6,-2 3,-4 0,-5 0,-5 -6,-2 -7,0 -6,6z"/>
   <path class="fil0" d="M552 346l-1 5c0,0 5,6 8,-4 -2,-3 1,-2 -3,-2 -8,-1 -1,0 -4,1z"/>
   <path class="fil0" d="M947 437c9,2 13,-4 2,-7 -3,4 -2,3 -2,7z"/>
   <path class="fil0" d="M638 534c0,0 -3,2 0,5 3,3 2,1 6,1 0,-7 0,-8 -7,-7z"/>
   <path class="fil0" d="M809 623c3,6 -3,3 7,4l1 -8c-12,1 -3,-1 -8,4z"/>
   <path class="fil0" d="M551 421c9,-1 6,2 7,-6l-3 -2c-7,-2 6,1 -4,-1l0 8z"/>
   <path class="fil0" d="M346 242c0,1 -3,2 0,5 4,3 2,1 7,1 0,-7 0,-8 -6,-6z"/>
   <path class="fil0" d="M225 266c19,0 -2,-17 0,0z"/>
   <path class="fil0" d="M878 541c4,0 3,2 6,-1 3,-4 0,-5 0,-5 -6,-2 -7,0 -6,6z"/>
   <path class="fil0" d="M231 351c0,0 3,-2 0,-5 -4,-3 -2,-1 -6,-1 0,6 -1,8 7,7z"/>
   <path class="fil0" d="M642 317c0,0 1,-2 1,-1 0,0 1,-1 1,-2 2,-7 0,7 0,-4 -10,-2 -13,5 -2,7z"/>
   <path class="fil0" d="M552 174c-2,6 0,6 6,6 0,-4 2,-4 -2,-7 -4,-4 -5,0 -5,0z"/>
   <path class="fil0" d="M569 465c-2,8 -2,7 7,7 0,-8 0,-8 -7,-7z"/>
   <path class="fil0" d="M947 558c7,0 4,2 8,-3 -4,-6 -1,-3 -8,-4l0 7z"/>
   <path class="fil0" d="M231 282c2,-7 1,-6 -7,-7 0,8 0,8 7,7z"/>
   <path class="fil0" d="M638 574c8,2 6,-1 6,-6 -6,0 -10,0 -6,6z"/>
   <path class="fil0" d="M517 264c4,3 3,2 7,2l1 -7c-7,-2 -7,-3 -8,4z"/>
   <path class="fil0" d="M707 534c-2,7 0,6 6,6 0,-4 2,-3 -1,-6 -4,-3 -5,0 -5,0z"/>
   <path class="fil0" d="M413 554c4,6 0,3 8,4l1 -8c-10,1 -5,1 -8,4z"/>
   <path class="fil0" d="M586 609c7,0 9,1 6,-6 -1,0 -2,-3 -5,0 -3,3 -2,2 -2,6z"/>
   <path class="fil0" d="M519 516c-2,5 -2,4 0,7 13,2 4,-6 4,-7l-4 -1z"/>
   <path class="fil0" d="M300 282c2,-7 2,-7 -7,-7 0,8 0,8 7,7z"/>
   <path class="fil0" d="M844 534c-2,7 -1,6 7,6 0,-4 2,-3 -2,-6 -4,-3 -5,0 -5,0z"/>
   <path class="fil0" d="M569 282c7,2 6,1 6,-6 -7,0 -10,-1 -6,6z"/>
   <path class="fil0" d="M953 506c0,-1 3,-2 0,-5 -3,-3 -2,-1 -6,-2 0,7 0,9 6,7z"/>
   <path class="fil0" d="M672 541c18,-1 -1,-18 0,0z"/>
   <path class="fil0" d="M448 401l3 2c7,2 -7,-1 4,1l0 -8c-8,1 -6,-2 -7,6z"/>
   <path class="fil0" d="M346 282c7,2 6,0 6,-6 -4,0 -3,-2 -6,1 -4,4 0,5 0,5z"/>
   <path class="fil0" d="M346 173c-2,7 0,6 6,6 0,-4 2,-3 -2,-6 -4,-3 -5,0 -5,0z"/>
   <path class="fil0" d="M592 213c2,-7 0,-6 -6,-6 0,4 -2,3 1,6 4,3 5,0 5,0z"/>
   <path class="fil0" d="M294 334c19,0 -2,-17 0,0z"/>
   <path class="fil0" d="M277 104c-2,7 0,6 6,6 0,-4 2,-3 -2,-6 -4,-3 -5,0 -5,0z"/>
   <path class="fil0" d="M385 76c0,-1 4,-1 0,-5 -4,-4 -2,-1 -7,-2 0,7 -1,9 6,6z"/>
   <path class="fil0" d="M311 111c7,-1 9,0 6,-6 0,0 -1,-4 -5,-1 -3,3 -2,2 -1,7z"/>
   <path class="fil0" d="M483 283c8,-1 5,2 7,-6 -4,-4 -2,-2 -7,-3l0 8z"/>
   <path class="fil0" d="M523 213c2,-7 0,-6 -6,-6 0,4 -2,3 1,6 4,3 5,0 5,0z"/>
   <path class="fil0" d="M776 574c8,2 6,-1 6,-6 -6,0 -10,0 -6,6z"/>
   <path class="fil0" d="M776 534c-2,7 1,6 6,6 0,-4 2,-3 -2,-6 -4,-3 -4,0 -5,0z"/>
   <path class="fil0" d="M364 517l-1 3c1,4 0,2 2,4l3 0c0,0 5,1 2,-6 -2,-4 -3,-2 -5,-1z"/>
   <path class="fil0" d="M672 610c18,-1 -1,-17 0,0z"/>
   <path class="fil0" d="M346 397c0,0 -3,2 0,5 4,3 2,1 6,1 0,-7 1,-8 -6,-6z"/>
   <path class="fil0" d="M293 111c8,0 9,1 7,-7 -6,-1 -7,-1 -7,7z"/>
   <path class="fil0" d="M435 284c8,-6 4,-8 -4,-8 1,7 -2,4 4,8z"/>
   <path class="fil0" d="M844 603c-2,7 1,6 6,6 0,-4 2,-3 -2,-6 -4,-3 -5,0 -5,0z"/>
   <path class="fil0" d="M574 368c2,-3 3,4 1,-4 -1,-5 1,0 -2,-3 -9,1 -8,9 1,7z"/>
   <path class="fil0" d="M173 264c3,2 3,2 7,1 2,-10 -9,-9 -7,-1z"/>
   <path class="fil0" d="M499 172c1,9 -2,6 6,7 0,0 1,-1 1,-1l1 -6 -8 0z"/>
   <path class="fil0" d="M552 471c0,0 1,0 1,1 1,2 5,-1 6,-2 -2,-8 1,-4 -7,-6 -2,4 -2,1 0,7z"/>
   <path class="fil0" d="M379 109c0,0 1,0 1,1 0,1 1,1 2,1 7,2 -7,-1 4,1l0 -8c-7,1 -6,-2 -7,6z"/>
   <path class="fil0" d="M638 465c-2,7 0,6 6,7 0,-4 2,-3 -1,-6 -3,-3 -5,0 -5,0z"/>
   <path class="fil0" d="M328 177c8,6 7,0 7,0 1,-7 -7,-8 -7,0z"/>
   <path class="fil0" d="M523 351c0,0 3,-2 0,-5 -4,-3 -2,-1 -6,-2 0,7 -1,9 6,6z"/>
   <path class="fil0" d="M741 610c18,-1 -1,-18 0,0z"/>
   <path class="fil0" d="M162 282c2,-7 0,-6 -6,-6 0,4 -2,3 1,6 4,3 5,0 5,0z"/>
   <path class="fil0" d="M506 196l1 -6c-11,-2 -11,8 -1,6z"/>
   <path class="fil0" d="M328 333c4,2 4,2 7,0 1,-9 -9,-8 -7,0z"/>
   <path class="fil0" d="M592 351c0,0 3,-2 0,-5 -4,-3 -2,-1 -6,-2 0,6 -1,8 7,7z"/>
   <path class="fil0" d="M379 386c18,-1 0,-17 0,0z"/>
   <path class="fil0" d="M415 368l4 1c4,-11 0,-5 -1,-7 -1,0 -2,-1 -3,1 -5,7 0,6 0,6z"/>
   <path class="fil0" d="M346 191c0,0 -3,2 0,5 4,3 2,1 6,2 0,-7 0,-9 -6,-6z"/>
   <path class="fil0" d="M242 180c18,-2 -1,-17 0,0z"/>
   <path class="fil0" d="M774 623c4,6 1,3 8,4l0 -7c-10,0 -4,1 -8,4z"/>
   <path class="fil0" d="M723 575l7 1c2,-7 3,-6 -4,-8 0,0 -1,0 -1,1 0,1 -1,1 -1,2 -2,7 1,-7 -1,4z"/>
   <path class="fil0" d="M276 241c1,9 -2,6 6,7 0,0 1,-2 1,-1l1 -6 -8 0z"/>
   <path class="fil0" d="M501 378c0,1 -6,6 4,8 3,-3 2,2 2,-3 1,-8 1,-1 -1,-4l-5 -1z"/>
   <path class="fil0" d="M517 334c7,0 8,0 6,-6 -6,-2 -7,-2 -6,6z"/>
   <path class="fil0" d="M573 386l2 -3c1,-6 0,-3 -1,-4 -10,-2 -9,8 -1,7z"/>
   <path class="fil0" d="M18 40c0,0 1,0 1,1l6 1 0 -8c-8,1 -6,-2 -7,6z"/>
   <path class="fil0" d="M379 332c0,0 1,0 1,1l6 1 0 -8c-9,1 -6,-3 -7,6z"/>
   <path class="fil0" d="M328 246c8,6 7,0 7,0 1,-7 -7,-8 -7,0z"/>
   <path class="fil0" d="M953 488c2,-7 1,-6 -7,-7 0,8 -1,9 7,7z"/>
   <path class="fil0" d="M328 466l-1 4c4,2 -4,3 5,1 3,-1 1,0 3,-2 0,-2 0,-4 -2,-5 -7,-3 -5,1 -5,1z"/>
   <path class="fil0" d="M844 490c9,-1 6,3 7,-6 0,0 -1,-1 -1,-1l-6 -1 -1 8z"/>
   <path class="fil0" d="M225 195c16,10 2,-19 0,0z"/>
   <path class="fil0" d="M523 282c2,-7 -1,-6 -6,-6 0,4 -2,3 1,6 4,3 5,0 5,0z"/>
   <path class="fil0" d="M18 25c19,-1 0,-17 0,0z"/>
   <path class="fil0" d="M414 299l6 1c0,-1 5,0 -1,-8 -5,1 -5,0 -5,6z"/>
   <path class="fil0" d="M592 420c2,-7 0,-6 -6,-6 0,4 -2,4 1,6 3,3 5,0 5,0z"/>
   <path class="fil0" d="M654 506l8 0c-1,-9 2,-6 -6,-7 0,0 -1,0 -1,1l-1 6z"/>
   <path class="fil0" d="M58 25c1,-1 6,1 0,-7 -10,2 -5,8 0,7z"/>
   <path class="fil0" d="M637 602c1,9 -2,6 6,7 0,0 1,-1 1,-1l1 -6 -8 0z"/>
   <path class="fil0" d="M551 333c1,0 2,0 2,1 0,0 1,0 1,0 4,-1 2,0 4,-2 -2,-8 2,-4 -7,-6l-1 7z"/>
   <path class="fil0" d="M344 125c4,6 1,4 8,3l1 -7c-10,1 -4,1 -8,4z"/>
   <path class="fil0" d="M627 472c0,-18 -17,-2 0,0z"/>
   <path class="fil0" d="M224 145l8 0c-1,-9 2,-6 -6,-7 0,0 -1,0 -1,1l-1 6z"/>
   <path class="fil0" d="M765 570c-5,-4 -2,-2 -7,-2 -1,8 4,13 7,2z"/>
   <path class="fil0" d="M311 317c18,-1 -1,-17 0,0z"/>
   <path class="fil0" d="M226 369c9,2 9,-6 1,-7 -1,1 -2,0 -2,3 0,3 0,2 1,4z"/>
   <path class="fil0" d="M575 437c3,-7 -5,-11 -6,-4 -2,7 5,4 6,4z"/>
   <path class="fil0" d="M207 173c1,10 -1,4 4,7 4,-2 2,1 3,-3 2,-8 0,-2 -1,-4l-7 0z"/>
   <path class="fil0" d="M706 602c1,9 -2,5 6,7 0,0 1,-2 1,-1l1 -6 -8 0z"/>
   <path class="fil0" d="M586 403c6,0 8,1 6,-6 -2,-1 -7,-5 -6,6z"/>
   <path class="fil0" d="M346 213c7,2 6,-1 6,-6 -6,0 -10,0 -6,6z"/>
   <path class="fil0" d="M364 447l-1 3c1,4 0,2 2,4 1,0 3,1 4,0 5,-6 0,-6 0,-6l-4 -1z"/>
   <path class="fil0" d="M586 472c6,0 9,1 6,-6 -2,-1 -7,-5 -6,6z"/>
   <path class="fil0" d="M519 592c7,1 10,-6 0,-7 -1,1 -2,0 -2,3 0,4 0,2 2,4z"/>
   <path class="fil0" d="M643 300c1,-2 2,-5 -1,-7 -8,-2 -9,8 1,7z"/>
   <path class="fil0" d="M214 76c1,-4 1,-4 -1,-7 -10,2 -8,9 1,7z"/>
   <path class="fil0" d="M87 197l8 -1c-1,-7 0,-6 -7,-6l-1 7z"/>
   <path class="fil0" d="M87 42c6,0 9,1 7,-7 -5,-1 -7,-2 -7,7z"/>
   <path class="fil0" d="M432 465c0,0 -4,-1 -1,4 3,4 -1,2 5,2 4,-6 2,-8 -4,-7z"/>
   <path class="fil0" d="M586 558c7,0 4,2 8,-3 -4,-6 -1,-4 -7,-3l0 7z"/>
   <path class="fil0" d="M1 42l7 0c0,-12 -8,-10 -7,0z"/>
   <path class="fil0" d="M466 470c4,3 4,2 7,0 2,-9 -9,-8 -7,0z"/>
   <path class="fil0" d="M849 524c3,-4 2,-3 2,-7 -8,-1 -13,4 -2,7z"/>
   <path class="fil0" d="M173 332c3,3 3,2 7,1 2,-10 -9,-9 -7,-1z"/>
   <path class="fil0" d="M328 54c-2,9 8,9 7,1 -3,-2 -3,-2 -7,-1z"/>
   <path class="fil0" d="M328 346c-2,10 8,9 7,0l-3 -2c-3,0 -3,0 -4,1z"/>
   <path class="fil0" d="M895 539c2,1 -3,5 7,1 1,-10 -8,-7 -7,-1z"/>
   <path class="fil0" d="M436 352c5,-8 1,-7 -5,-7 0,8 -1,6 5,7z"/>
   <path class="fil0" d="M517 403c6,0 8,1 6,-6 -2,-1 -7,-4 -6,6z"/>
   <path class="fil0" d="M465 277c-1,9 8,9 7,0 0,0 -1,-1 -1,-1 0,0 -1,-1 -1,-1 -3,0 -2,0 -4,1z"/>
   <path class="fil0" d="M226 156c-2,4 -2,4 0,7l4 0c0,-1 5,1 1,-6 -2,-3 -4,-1 -5,-1z"/>
   <path class="fil0" d="M350 455c0,0 1,-2 1,-1l1 -6c-9,-1 -13,5 -2,7z"/>
   <path class="fil0" d="M947 541c6,0 9,1 7,-7 -4,-1 -7,-2 -7,7z"/>
   <path class="fil0" d="M104 40c0,0 1,0 1,1 1,2 5,-1 5,-1 2,-9 -8,-8 -7,0z"/>
   <path class="fil0" d="M421 386c-1,-18 -18,-1 0,0z"/>
   <path class="fil0" d="M379 300c8,1 13,-4 2,-7 -4,5 -2,3 -2,7z"/>
   <path class="fil0" d="M140 310c0,1 -4,0 0,6 2,4 5,0 5,0 0,0 2,0 0,-5l-5 -1z"/>
   <path class="fil0" d="M293 197c7,0 4,2 8,-3 -4,-5 0,-4 -7,-3l0 7z"/>
   <path class="fil0" d="M300 351c2,-7 0,-6 -7,-7 0,6 0,8 7,7z"/>
   <path class="fil0" d="M466 401c4,2 4,2 7,0 2,-9 -9,-8 -7,0z"/>
   <path class="fil0" d="M450 455c7,1 9,-8 -1,-7 -4,9 0,5 1,7z"/>
   <path class="fil0" d="M603 610c18,-2 -1,-17 0,0z"/>
   <path class="fil0" d="M266 209c0,0 -1,-2 -1,-1l-6 -1c-2,9 4,13 7,2z"/>
   <path class="fil0" d="M608 524l3 -3c-2,-5 -1,-4 -6,-6 -4,6 -3,7 3,9z"/>
   <path class="fil0" d="M281 162c0,0 1,-2 1,-1 0,0 1,-1 1,-1 0,-4 0,-2 -1,-4 -9,-2 -9,8 0,7z"/>
   <path class="fil0" d="M603 332c0,0 1,0 1,1 1,2 5,0 5,0 2,-10 -9,-8 -7,-1z"/>
   <path class="fil0" d="M156 128c11,0 11,-7 0,-7l0 7z"/>
   <path class="fil0" d="M501 310c0,2 -3,-2 -1,5 1,3 1,2 3,3 6,-3 3,-3 3,-6 0,0 0,-1 -1,-1l-5 -1z"/>
   <path class="fil0" d="M70 42l7 0c0,-12 -8,-10 -7,0z"/>
   <path class="fil0" d="M603 347c-2,11 6,3 6,3l1 -4c-1,0 -2,-1 -2,-1 0,1 -1,0 -1,0 -4,1 -1,0 -4,2z"/>
   <path class="fil0" d="M158 155l-1 3c0,3 0,2 1,4 9,1 9,-8 0,-7z"/>
   <path class="fil0" d="M466 346c-1,9 8,9 7,0 0,0 -1,-1 -1,-1 0,0 -1,-1 -1,-1 -4,0 -2,0 -4,2z"/>
   <path class="fil0" d="M362 482c0,18 18,-1 0,0z"/>
   <path class="fil0" d="M500 334l7 1c0,-7 2,-4 -3,-8 -4,3 -5,1 -3,7z"/>
   <path class="fil0" d="M294 145l7 0c-1,-9 2,-6 -6,-7 -2,3 -2,4 -1,7z"/>
   <path class="fil0" d="M129 69c-17,1 -1,18 0,0z"/>
   <path class="fil0" d="M568 241c1,9 -2,6 6,7l2 -3c0,-4 0,-3 -1,-4l-7 0z"/>
   <path class="fil0" d="M156 42c7,0 8,0 6,-6 -6,-2 -7,-1 -6,6z"/>
   <path class="fil0" d="M60 1c-18,0 -1,17 0,0z"/>
   <path class="fil0" d="M362 413c0,17 18,-1 0,0z"/>
   <path class="fil0" d="M501 516c0,1 -5,-1 -1,6 2,4 6,1 6,-1 0,-3 0,-2 -1,-4l-4 0z"/>
   <path class="fil0" d="M465 570c2,9 8,7 7,0 -3,-2 4,-3 -4,-1 -4,1 -1,0 -3,2z"/>
   <path class="fil0" d="M139 42l7 1 -1 -8c-6,1 -7,-1 -6,7z"/>
   <path class="fil0" d="M483 397c-2,7 1,6 6,6 0,-7 0,-9 -6,-6z"/>
   <path class="fil0" d="M433 300l4 1c2,-4 3,4 1,-4 -1,-5 1,-1 -2,-3l-3 0c0,0 -4,0 -1,7z"/>
   <path class="fil0" d="M191 110c4,2 4,1 7,-1 -3,-10 -9,-6 -7,1z"/>
   <path class="fil0" d="M173 54c-1,8 9,9 7,-1 -4,-2 -4,-2 -7,1z"/>
   <path class="fil0" d="M328 72c2,9 8,6 7,0 -1,0 1,-6 -7,0z"/>
   <path class="fil0" d="M276 173c2,8 -2,5 6,7 0,0 1,-1 1,-1l1 -6 -8 0z"/>
   <path class="fil0" d="M705 574l7 1c1,-5 2,-3 -1,-8 -7,2 -4,-1 -6,7z"/>
   <path class="fil0" d="M283 266c0,-18 -17,0 0,0z"/>
   <path class="fil0" d="M747 643c2,-7 -1,-6 -6,-6 0,6 -1,9 6,6z"/>
   <path class="fil0" d="M87 1c1,17 18,1 0,0z"/>
   <path class="fil0" d="M215 111c-1,-18 -17,0 0,0z"/>
   <path class="fil0" d="M534 401c4,2 3,2 7,0 1,-10 -9,-8 -7,0z"/>
   <path class="fil0" d="M603 470l3 2c8,1 1,0 4,-1l0 -5c-1,0 1,-4 -6,-1 -2,1 -2,3 -1,4z"/>
   <path class="fil0" d="M931 437l5 1c0,-2 3,2 1,-5 -1,-4 -7,-4 -7,1 0,0 0,1 0,1 0,0 0,1 1,1z"/>
   <path class="fil0" d="M507 403c0,-17 -18,1 0,0z"/>
   <path class="fil0" d="M158 224l-1 3c0,4 0,2 1,4 9,1 9,-8 0,-7z"/>
   <path class="fil0" d="M585 506l8 0c-1,-8 2,-5 -6,-7 0,0 -1,0 -1,1l-1 6z"/>
   <path class="fil0" d="M655 626c7,0 4,2 8,-3 -4,-5 -1,-4 -7,-3l0 7z"/>
   <path class="fil0" d="M864 490c5,-4 4,-1 3,-7l-6 0c-1,7 -2,4 3,8z"/>
   <path class="fil0" d="M173 249c18,-2 -1,-17 0,0z"/>
   <path class="fil0" d="M627 568c-17,1 -1,18 0,0z"/>
   <path class="fil0" d="M335 140c-5,-4 -2,-2 -7,-2 -1,8 4,13 7,2z"/>
   <path class="fil0" d="M36 71c0,8 7,9 7,0 -9,-5 -6,0 -7,0z"/>
   <path class="fil0" d="M36 40c0,0 1,0 1,1 0,1 1,1 1,1 4,0 2,0 4,-1 1,-8 -1,-5 -4,-6 -1,1 -4,1 -3,6z"/>
   <path class="fil0" d="M283 121c-17,0 1,17 0,0z"/>
   <path class="fil0" d="M574 523l2 -3c0,-4 0,-2 -1,-4 -9,-2 -9,8 0,7z"/>
   <path class="fil0" d="M586 627c11,0 11,-7 0,-7l0 7z"/>
   <path class="fil0" d="M266 180c-1,-18 -17,-2 0,0z"/>
   <path class="fil0" d="M215 334c0,-17 -17,0 0,0z"/>
   <path class="fil0" d="M146 276l-7 0c0,10 7,11 7,0z"/>
   <path class="fil0" d="M586 266c11,0 11,-7 1,-7l-1 7z"/>
   <path class="fil0" d="M224 126c5,3 1,4 7,0 -1,-7 1,-6 -7,-5l-1 5z"/>
   <path class="fil0" d="M350 317l2 -3c0,-5 0,-3 -1,-4 -9,-1 -11,5 -1,7z"/>
   <path class="fil0" d="M295 293c-2,4 -2,4 0,7l4 0c0,-1 5,1 1,-6 -1,-3 -4,-2 -5,-1z"/>
   <path class="fil0" d="M964 470c0,0 1,0 1,1 1,2 6,0 6,0 2,-10 -8,-8 -7,-1z"/>
   <path class="fil0" d="M242 249c18,-2 -1,-17 0,0z"/>
   <path class="fil0" d="M379 455c18,-1 0,-17 0,0z"/>
   <path class="fil0" d="M242 207c1,18 17,2 0,0z"/>
   <path class="fil0" d="M104 209c1,9 8,7 7,-1 -4,-2 4,-3 -4,-1 -4,1 -1,0 -3,2z"/>
   <path class="fil0" d="M145 265l0 -7 -7 0c-1,8 -1,7 6,7z"/>
   <path class="fil0" d="M283 335c-1,-17 -17,-1 0,0z"/>
   <path class="fil0" d="M574 455c2,-3 2,-3 1,-7 -9,-2 -9,8 -1,7z"/>
   <path class="fil0" d="M895 470l3 2c4,0 2,0 4,-2 2,-9 -8,-8 -7,0z"/>
   <path class="fil0" d="M586 482c0,17 17,1 0,0z"/>
   <path class="fil0" d="M350 162c0,0 1,-2 1,-1 0,0 2,-1 -1,-5 -9,-2 -9,8 0,7z"/>
   <path class="fil0" d="M448 332c4,3 4,2 7,1l0 -7c-8,1 -6,-2 -7,6z"/>
   <path class="fil0" d="M603 278c-1,8 9,9 7,-1 -4,-2 -4,-1 -7,1z"/>
   <path class="fil0" d="M656 575c0,0 1,0 1,1 0,0 1,0 1,0l3 -1c0,0 4,1 1,-4 -2,-4 1,-1 -5,-3 -3,5 -2,5 -1,7z"/>
   <path class="fil0" d="M534 195c0,0 1,0 1,1 1,2 5,-1 5,-1l0 -4c-1,0 1,-5 -6,-1 -3,1 -2,4 -1,5z"/>
   <path class="fil0" d="M347 299l4 1c0,-1 1,-2 1,-2 0,0 2,-1 -1,-5 -12,-1 -3,6 -3,6z"/>
   <path class="fil0" d="M711 592c0,0 1,-2 1,-1 0,0 1,-1 1,-1 0,-4 0,-1 -2,-4 -8,-2 -9,8 0,7z"/>
   <path class="fil0" d="M173 109l3 2c3,0 3,0 4,-1 1,-10 -8,-7 -7,-1z"/>
   <path class="fil0" d="M295 224c-2,4 -2,4 0,7l4 0c0,-1 5,1 1,-6 -1,-3 -4,-1 -5,-1z"/>
   <path class="fil0" d="M397 415l0 4c1,0 -1,5 6,1 3,-1 1,-4 1,-5 -4,-2 -3,-2 -7,0z"/>
   <path class="fil0" d="M158 293c-2,3 -2,4 -1,7l4 0c0,-1 5,1 1,-6 -1,-3 -4,-2 -5,-1z"/>
   <path class="fil0" d="M620 346l0 5c1,0 -1,4 6,0 3,-2 1,-6 0,-5 0,0 -1,-1 -1,-1 -8,-1 -1,-1 -4,1z"/>
   <path class="fil0" d="M534 470c0,0 1,0 1,1 1,2 5,0 6,-1l0 -4c-1,0 2,-5 -6,-1 -3,1 -2,3 -1,5z"/>
   <path class="fil0" d="M559 249c-1,-18 -17,-1 0,0z"/>
   <path class="fil0" d="M534 347c-2,8 8,9 7,-1 -4,-2 -4,-2 -7,1z"/>
   <path class="fil0" d="M656 585l-2 3c0,4 0,2 1,4 9,1 9,-8 0,-7z"/>
   <path class="fil0" d="M36 109c4,3 4,2 7,0 1,-9 -8,-8 -7,0z"/>
   <path class="fil0" d="M431 403l7 0c1,-12 -8,-10 -7,0z"/>
   <path class="fil0" d="M656 517c-2,4 -2,4 0,7 8,1 9,-8 0,-7z"/>
   <path class="fil0" d="M534 539c0,0 1,0 1,1 1,2 5,0 6,0 1,-10 -8,-7 -7,-1z"/>
   <path class="fil0" d="M645 335c0,-17 -17,-1 0,0z"/>
   <path class="fil0" d="M534 332c4,2 3,2 7,0l0 -4c-1,0 1,-5 -6,-1 -3,1 -2,4 -1,5z"/>
   <path class="fil0" d="M362 334l7 0c1,-11 -8,-10 -7,0z"/>
   <path class="fil0" d="M603 484c0,0 -2,3 1,5 7,3 4,0 5,-1l1 -4c-5,-1 -3,-3 -7,1z"/>
   <path class="fil0" d="M827 539c2,1 0,2 4,1 4,-1 1,0 3,-2 -1,-10 -8,-6 -7,0z"/>
   <path class="fil0" d="M281 231l2 -3c0,-4 0,-2 -2,-4 -9,-1 -9,8 0,7z"/>
   <path class="fil0" d="M104 249c18,-2 -1,-17 0,0z"/>
   <path class="fil0" d="M351 231l1 -3c-1,-4 0,-2 -2,-4 -8,-1 -9,8 0,7z"/>
   <path class="fil0" d="M575 482c-17,-1 1,17 0,0z"/>
   <path class="fil0" d="M713 627l0 -7c-11,0 -11,7 0,7z"/>
   <path class="fil0" d="M295 156c0,0 -1,1 -1,1 0,5 -1,2 1,5l4 0c0,-1 5,1 1,-6 -2,-3 -4,-1 -5,-1z"/>
   <path class="fil0" d="M930 488c7,1 7,1 6,-6 -5,0 -9,-2 -6,6z"/>
   <path class="fil0" d="M644 482c-17,0 1,17 0,0z"/>
   <path class="fil0" d="M587 517l-1 3c1,4 0,2 2,4 8,1 9,-8 0,-7z"/>
   <path class="fil0" d="M105 54c0,0 -2,3 1,5 7,3 4,0 5,-1l1 -4c-1,0 -2,-1 -2,-1 0,0 -1,-1 -1,0 -4,0 -2,0 -4,2z"/>
   <path class="fil0" d="M438 557l0 -6 -7 0c-1,8 -1,8 6,7z"/>
   <path class="fil0" d="M713 558l0 -7c-11,0 -11,7 0,7z"/>
   <path class="fil0" d="M472 208c-6,-3 -1,-2 -7,0 0,9 7,9 7,0z"/>
   <path class="fil0" d="M448 362c2,17 18,1 0,0z"/>
   <path class="fil0" d="M466 539c4,2 4,2 7,0 1,-9 -8,-8 -7,0z"/>
   <path class="fil0" d="M328 277l0 4c1,0 -2,5 6,1 2,-1 2,-3 2,-5 -3,-2 -3,-2 -7,-1z"/>
   <path class="fil0" d="M576 344c-17,0 -1,17 0,0z"/>
   <path class="fil0" d="M576 413c-17,0 -1,17 0,0z"/>
   <path class="fil0" d="M696 568c-17,1 -1,17 0,0z"/>
   <path class="fil0" d="M500 557l6 1 1 -7 -5 -1c-3,4 -3,0 -1,7z"/>
   <path class="fil0" d="M507 345l-7 0c0,11 7,11 7,0z"/>
   <path class="fil0" d="M190 208l0 5c1,0 -1,4 6,1 2,-1 2,-3 2,-4 0,0 -1,-2 -1,-1 -1,2 1,-3 -6,0z"/>
   <path class="fil0" d="M862 447c-2,3 -3,-3 -1,5 1,6 10,4 5,-4l-4 -1z"/>
   <path class="fil0" d="M570 585c0,1 -5,-1 -1,6 1,3 4,1 5,1 2,-4 2,-3 0,-7l-3 0z"/>
   <path class="fil0" d="M639 585c0,1 -5,-1 -1,6 1,3 4,2 5,1 0,0 1,-2 1,-1 0,0 2,-1 -1,-5l-3 0z"/>
   <path class="fil0" d="M501 447c0,1 -5,-1 -1,6 1,2 3,2 5,1 3,-2 1,-5 1,-7l-4 -1z"/>
   <path class="fil0" d="M173 315c6,3 0,3 7,1 0,-10 -8,-8 -7,-1z"/>
   <path class="fil0" d="M931 447c0,1 -5,-1 -1,6 1,2 3,1 5,1 3,-2 1,-5 1,-7l-4 0z"/>
   <path class="fil0" d="M104 140c2,9 8,7 7,-1 -4,-2 5,-3 -4,-1 -3,1 -1,0 -3,2z"/>
   <path class="fil0" d="M465 177c1,1 -1,2 3,2 3,0 3,-1 4,-1 0,-9 -7,-8 -7,-1z"/>
   <path class="fil0" d="M89 156c-3,4 -2,4 0,7 8,1 8,-8 0,-7z"/>
   <path class="fil0" d="M283 197l0 -7c-11,0 -11,7 0,7z"/>
   <path class="fil0" d="M242 108l3 2c3,0 3,0 4,-1l0 -5c-1,0 2,-4 -6,-1 -2,1 -2,2 -2,4z"/>
   <path class="fil0" d="M639 516c0,1 -5,-1 -1,6 1,3 4,1 5,1 0,0 1,-2 1,-1 0,0 2,-1 -1,-5l-4 0z"/>
   <path class="fil0" d="M588 293c-3,3 -2,4 -1,7l4 0c0,-1 5,1 1,-6 -1,-2 -3,-2 -4,-1z"/>
   <path class="fil0" d="M213 128c4,-5 2,-1 2,-7 -10,0 -11,6 -2,7z"/>
   <path class="fil0" d="M281 93l2 -3c0,-3 0,-2 -1,-4 -9,-1 -9,8 0,7z"/>
   <path class="fil0" d="M293 266c11,0 11,-8 1,-7l-1 7z"/>
   <path class="fil0" d="M757 539l3 1c4,-1 2,0 4,-2 0,-5 0,-5 -6,-6l-1 6z"/>
   <path class="fil0" d="M829 576c6,-2 8,-5 0,-8 -5,5 -4,4 0,8z"/>
   <path class="fil0" d="M89 86c0,1 -1,1 -1,2 0,1 -1,1 0,1 1,4 0,2 2,4 1,0 3,1 4,-1 5,-6 0,-6 -4,-7z"/>
   <path class="fil0" d="M534 278c-1,7 8,9 7,0 -4,-2 -4,-2 -7,0z"/>
   <path class="fil0" d="M77 53l-7 0c-1,11 7,11 7,0z"/>
   <path class="fil0" d="M89 224l-2 3c0,4 0,2 1,4 9,1 9,-8 0,-7z"/>
   <path class="fil0" d="M379 430c1,17 17,1 0,0z"/>
   <path class="fil0" d="M559 499c-17,1 -1,17 0,0z"/>
   <path class="fil0" d="M507 413l-7 0c-1,10 7,11 7,0z"/>
   <path class="fil0" d="M559 317c-1,-17 -17,-1 0,0z"/>
   <path class="fil0" d="M196 300c2,-4 3,4 1,-4 -1,-4 0,-1 -2,-3 -8,2 -7,8 1,7z"/>
   <path class="fil0" d="M145 197l0 -6 -6 0c-1,8 -1,7 6,7z"/>
   <path class="fil0" d="M603 317c18,-2 -1,-17 0,0z"/>
   <path class="fil0" d="M723 626c7,1 8,1 7,-6l-6 -1 0 7z"/>
   <path class="fil0" d="M419 523c2,-3 2,-3 0,-7 -9,-1 -8,8 0,7z"/>
   <path class="fil0" d="M209 379c0,1 -6,0 1,8l5 -3c1,-7 0,-2 -1,-4l-5 0z"/>
   <path class="fil0" d="M242 138c1,17 17,2 0,0z"/>
   <path class="fil0" d="M244 163c5,-2 4,0 6,-5l-6 -4c-3,5 -3,4 0,9z"/>
   <path class="fil0" d="M129 0c-17,1 -1,17 0,0z"/>
   <path class="fil0" d="M519 224c-2,3 -2,4 -1,7l4 0c0,-1 5,2 1,-5 -1,-3 -4,-2 -5,-1z"/>
   <path class="fil0" d="M849 592c3,-6 2,-1 0,-7 -9,-1 -9,7 0,7z"/>
   <path class="fil0" d="M139 126c5,3 1,2 6,1l1 -6c-6,0 -7,-2 -7,5z"/>
   <path class="fil0" d="M487 524c1,-1 2,1 2,-3 0,-3 -1,-3 -1,-4 -8,-1 -9,6 -1,7z"/>
   <path class="fil0" d="M173 177l3 2c3,0 3,0 4,-1 1,-10 -8,-7 -7,-1z"/>
   <path class="fil0" d="M575 334l0 -7c-10,-1 -11,7 0,7z"/>
   <path class="fil0" d="M294 128c10,1 11,-7 0,-6l0 6z"/>
   <path class="fil0" d="M450 231c8,1 9,-8 0,-7 -1,2 -2,-3 -1,3 0,4 0,2 1,4z"/>
   <path class="fil0" d="M381 155c0,1 -6,0 1,7l6 -2c-2,-5 -1,-5 -6,-5z"/>
   <path class="fil0" d="M190 139c-1,7 4,11 7,1l-3 -2c-7,-1 -2,0 -4,1z"/>
   <path class="fil0" d="M397 178c4,2 4,2 7,-1 1,-8 -8,-7 -7,1z"/>
   <path class="fil0" d="M369 59l1 -6 -7 -1c0,7 -1,8 6,7z"/>
   <path class="fil0" d="M794 654c0,1 -1,1 -1,2 0,3 -2,1 1,5 1,0 2,2 4,0 5,-5 -1,-6 -1,-6l-3 0z"/>
   <path class="fil0" d="M8 53l-6 0c-1,11 7,11 6,0z"/>
   <path class="fil0" d="M758 638c-1,10 8,8 7,1l-3 -2c-3,0 -3,0 -4,1z"/>
   <path class="fil0" d="M419 455c0,0 1,-2 1,-1 0,0 1,-1 1,-1 0,-3 0,-3 -1,-4 -10,-1 -7,8 -1,7z"/>
   <path class="fil0" d="M559 430c-17,1 -1,17 0,0z"/>
   <path class="fil0" d="M173 347c0,0 -2,4 2,5 8,1 1,0 4,-1l1 -4c-1,0 -2,-1 -2,-1 0,0 -1,-1 -1,0 -4,1 -1,0 -4,2z"/>
   <path class="fil0" d="M655 489c10,1 11,-7 0,-7l0 7z"/>
   <path class="fil0" d="M258 157c2,5 0,4 6,6 3,-4 3,-4 0,-8l-6 3z"/>
   <path class="fil0" d="M362 196l7 0c1,-7 1,-7 -6,-7l-1 6z"/>
   <path class="fil0" d="M920 499c-17,1 -1,17 0,0z"/>
   <path class="fil0" d="M811 592c8,0 9,-7 0,-7 -2,5 -4,0 0,7z"/>
   <path class="fil0" d="M487 386l2 -3c0,-6 0,-3 -1,-4 -7,-1 -11,4 -1,7z"/>
   <path class="fil0" d="M964 484c0,0 -1,3 1,5 7,3 4,0 5,-1l1 -4c-4,-1 -2,-3 -7,0z"/>
   <path class="fil0" d="M346 368l4 1c2,-5 3,-3 -1,-7 -1,0 -2,-1 -4,1 -5,6 0,6 0,6z"/>
   <path class="fil0" d="M244 94c8,0 9,-7 0,-7 -2,6 -3,1 0,7z"/>
   <path class="fil0" d="M363 352c10,-2 9,-8 -1,-7l1 7z"/>
   <path class="fil0" d="M311 69c1,17 17,1 0,0z"/>
   <path class="fil0" d="M758 608c0,0 1,0 1,1 1,2 5,-1 5,-1 1,-8 -8,-8 -7,1z"/>
   <path class="fil0" d="M438 414l-6 0c-1,11 7,11 6,0z"/>
   <path class="fil0" d="M266 138c-17,2 0,17 0,0z"/>
   <path class="fil0" d="M588 362c0,0 -1,0 -1,1 0,1 -1,1 -1,1 0,3 0,2 1,4l4 0c0,-1 4,2 1,-6 -1,-2 -3,-2 -4,-1z"/>
   <path class="fil0" d="M488 592c3,-6 2,-1 0,-7 -9,0 -9,7 0,7z"/>
   <path class="fil0" d="M362 128l6 0c1,-8 1,-7 -6,-7l0 6z"/>
   <path class="fil0" d="M328 260l-1 4c4,1 2,3 7,0 0,0 2,-4 -3,-5 -8,-1 -1,0 -4,1z"/>
   <path class="fil0" d="M655 558l7 -1c-1,-7 1,-6 -7,-6l0 7z"/>
   <path class="fil0" d="M506 482l-6 0c-1,10 7,11 6,0z"/>
   <path class="fil0" d="M587 447c-4,7 2,9 4,7 5,-6 0,-6 0,-6l-4 -1z"/>
   <path class="fil0" d="M524 484l-7 -3c0,12 6,11 7,3z"/>
   <path class="fil0" d="M259 122l-1 4c1,0 -1,5 6,1 2,-1 1,-3 1,-4 -6,-5 7,-1 -3,-2 -3,0 -2,0 -4,1z"/>
   <path class="fil0" d="M501 368l4 1c0,-1 1,-2 1,-2 0,0 2,-1 -1,-5 0,0 -3,-1 -4,1 -3,7 0,4 1,5z"/>
   <path class="fil0" d="M207 53c2,10 7,9 8,-1l-8 1z"/>
   <path class="fil0" d="M397 277l0 6c6,-1 7,0 6,-6 0,0 -1,-2 -1,-1 0,0 -1,-1 -1,-1 -3,0 -2,0 -4,1z"/>
   <path class="fil0" d="M450 516c0,1 -1,1 -1,2 0,1 -1,1 0,1 1,4 0,2 2,4 5,0 5,0 6,-6l-6 -1z"/>
   <path class="fil0" d="M362 403l7 0c1,-8 2,-6 -5,-7l-2 7z"/>
   <path class="fil0" d="M780 592l2 -3c0,-4 0,-2 -2,-4 -9,-1 -8,8 0,7z"/>
   <path class="fil0" d="M603 568c0,17 17,2 0,0z"/>
   <path class="fil0" d="M265 300c2,-7 2,-1 -1,-7 -8,0 -8,7 1,7z"/>
   <path class="fil0" d="M140 300l4 1c1,-4 3,-3 0,-7 0,0 -5,-2 -5,2 -1,8 -1,1 1,4z"/>
   <path class="fil0" d="M603 455c17,-1 0,-16 0,0z"/>
   <path class="fil0" d="M397 501c0,5 -1,2 3,6 4,-2 4,0 4,-6 0,0 0,-4 -7,0z"/>
   <path class="fil0" d="M197 69c-17,1 -1,17 0,0z"/>
   <path class="fil0" d="M742 592c9,1 8,-7 0,-7 -3,5 -4,0 0,7z"/>
   <polygon class="fil0" points="70,196 77,197 77,190 71,190 "/>
   <path class="fil0" d="M920 455c-2,-17 -17,-1 0,0z"/>
   <path class="fil0" d="M541 501c-7,-3 -1,-2 -7,0 0,9 7,9 7,0z"/>
   <path class="fil0" d="M490 430c-17,0 -1,17 0,0z"/>
   <path class="fil0" d="M918 437l1 -3c-1,-4 0,-1 -2,-4 -6,0 -9,8 1,7z"/>
   <path class="fil0" d="M344 87c1,6 0,7 6,6 2,-3 2,-4 1,-7l-6 0z"/>
   <path class="fil0" d="M242 69c1,17 17,1 0,0z"/>
   <path class="fil0" d="M397 209l1 6c7,-1 6,1 7,-5 -1,-1 0,-2 -3,-2 -3,0 -2,0 -4,1z"/>
   <path class="fil0" d="M637 621c1,7 -1,6 7,6l0 -7 -7 1z"/>
   <path class="fil0" d="M311 347c0,0 -1,4 3,5 8,2 1,0 4,-1l1 -5c-1,0 -2,-1 -2,-1 0,1 -1,0 -1,0 -4,1 -1,0 -4,2z"/>
   <path class="fil0" d="M312 94c8,0 9,-7 0,-7 -2,5 -3,1 0,7z"/>
   <path class="fil0" d="M482 158c2,5 -1,3 5,5 1,-1 4,-1 1,-7 -2,0 -5,-1 -6,3z"/>
   <path class="fil0" d="M949 516l-1 3c1,4 0,1 2,4 5,1 5,-1 6,-6l-6 -1z"/>
   <path class="fil0" d="M534 607c1,1 1,4 7,1l-1 -6c-5,1 -7,0 -7,5z"/>
   <path class="fil0" d="M36 54c0,0 -2,5 3,5 9,1 0,1 4,-2l1 -4c-4,-1 -2,-3 -7,0z"/>
   <path class="fil0" d="M627 499c-17,1 -1,17 0,0z"/>
   <path class="fil0" d="M397 140c-1,7 5,9 7,0 -1,-1 0,-2 -3,-2 -3,0 -2,0 -4,1z"/>
   <path class="fil0" d="M551 588c2,4 1,4 6,4 3,-6 2,-1 0,-7 -3,0 -5,0 -6,3z"/>
   <path class="fil0" d="M604 300c9,0 8,-7 0,-7 -3,5 -4,0 0,7z"/>
   <path class="fil0" d="M121 160c3,3 1,3 6,3 0,0 3,0 0,-7 -3,0 -5,0 -6,4z"/>
   <path class="fil0" d="M534 316c2,1 -2,2 3,1 3,0 2,0 4,-1 1,-9 -8,-8 -7,0z"/>
   <path class="fil0" d="M243 300c5,0 3,0 6,-3 -2,-4 -1,-4 -6,-4 -3,5 -3,0 0,7z"/>
   <path class="fil0" d="M265 231c3,-6 2,-1 0,-7 -9,0 -8,7 0,7z"/>
   <path class="fil0" d="M536 155c-2,2 -2,-1 -2,3 0,4 0,1 2,4 5,0 4,0 6,-4 -4,-4 -2,-3 -5,-3z"/>
   <path class="fil0" d="M278 299l4 1c1,-4 3,-3 0,-7 0,0 -4,-2 -5,3 -1,8 -1,1 1,4z"/>
   <path class="fil0" d="M104 23c6,3 1,3 7,0 0,-10 -8,-7 -7,0z"/>
   <path class="fil0" d="M173 69c1,17 17,1 0,0z"/>
   <path class="fil0" d="M827 608c0,0 1,0 1,1 1,2 5,-1 5,-1 1,-8 -8,-7 -7,0z"/>
   <path class="fil0" d="M226 86c-3,5 -1,5 0,7 0,0 5,2 5,-2 1,-9 1,0 -2,-4l-4 -1z"/>
   <path class="fil0" d="M490 362c-17,1 -2,17 0,0z"/>
   <path class="fil0" d="M559 455c-1,-17 -17,-1 0,0z"/>
   <path class="fil0" d="M413 158c1,4 0,5 6,4l2 -3c0,-3 0,-2 -1,-4 -2,0 -5,-1 -6,3z"/>
   <path class="fil0" d="M603 384c6,3 1,3 7,1 0,-10 -8,-7 -7,-1z"/>
   <path class="fil0" d="M534 453c6,3 0,3 7,0 0,-10 -8,-7 -7,0z"/>
   <path class="fil0" d="M379 362c1,17 17,1 0,0z"/>
   <path class="fil0" d="M465 453c4,3 3,3 7,0 0,-4 0,-3 -3,-6 -4,1 -5,1 -4,6z"/>
   <path class="fil0" d="M266 249c-1,-17 -17,-1 0,0z"/>
   <path class="fil0" d="M313 231c5,0 2,1 6,-3 -2,-4 -1,-4 -6,-4 0,0 -4,1 0,7z"/>
   <path class="fil0" d="M534 246c4,3 4,2 7,1 1,-10 -8,-7 -7,-1z"/>
   <path class="fil0" d="M312 300c5,0 3,0 6,-3 -2,-4 -1,-4 -6,-4 -3,5 -3,0 0,7z"/>
   <path class="fil0" d="M190 89c2,4 1,4 6,4 0,0 3,0 0,-7 -2,0 -5,0 -6,3z"/>
   <path class="fil0" d="M490 455c-2,-16 -17,-1 0,0z"/>
   <path class="fil0" d="M626 523c3,-6 3,-1 0,-7 -9,0 -9,7 0,7z"/>
   <path class="fil0" d="M576 403l-1 -7c-10,2 -8,7 1,7z"/>
   <path class="fil0" d="M827 522l7 2c0,-6 1,-6 -4,-8 -2,2 -3,2 -3,6z"/>
   <path class="fil0" d="M534 588c2,7 5,7 8,0 -2,-2 -6,-5 -8,0z"/>
   <path class="fil0" d="M988 430c-17,1 -1,17 0,0z"/>
   <path class="fil0" d="M534 177l3 2c3,0 3,0 4,-1 0,-9 -8,-7 -7,-1z"/>
   <path class="fil0" d="M450 293c-2,3 -2,4 -1,7 9,1 8,-7 1,-7z"/>
   <path class="fil0" d="M551 160c3,3 1,3 6,2 0,0 4,0 0,-7 -3,0 -5,0 -6,4z"/>
   <path class="fil0" d="M328 385c7,2 1,2 7,0 0,-5 0,-4 -4,-6 -2,2 -3,2 -3,6z"/>
   <path class="fil0" d="M264 94c3,-6 3,-1 0,-7 -9,0 -8,7 0,7z"/>
   <path class="fil0" d="M173 297c3,4 0,2 6,3 2,-4 2,-4 0,-8 -4,0 -5,1 -6,4z"/>
   <path class="fil0" d="M129 25c-2,-17 -17,-1 0,0z"/>
   <path class="fil0" d="M987 455c3,-6 3,0 0,-7 -10,0 -8,7 0,7z"/>
   <path class="fil0" d="M173 138c0,17 17,2 0,0z"/>
   <path class="fil0" d="M190 158c2,5 0,4 5,5 1,-1 2,0 2,-3 0,-4 0,-2 -1,-4 -2,0 -5,0 -6,3z"/>
   <path class="fil0" d="M621 328l-1 5c11,2 8,-5 5,-6 -8,-2 -1,0 -4,1z"/>
   <polygon class="fil0" points="70,127 76,128 77,121 70,121 "/>
   <path class="fil0" d="M466 384c0,0 0,3 7,0 0,-4 0,-4 -4,-6 -3,3 -3,2 -3,6z"/>
   <path class="fil0" d="M38 8c4,-2 4,-1 4,-6 -6,-3 -1,-3 -7,0 0,5 -1,3 3,6z"/>
   <path class="fil0" d="M673 523c5,0 4,0 6,-4 -3,-3 -1,-3 -6,-3 -2,5 -3,1 0,7z"/>
   <path class="fil0" d="M335 363c-6,-3 -1,-3 -7,0 0,9 7,8 7,0z"/>
   <path class="fil0" d="M534 209c0,5 0,5 6,5l1 -6c-5,-2 -3,-3 -7,0z"/>
   <path class="fil0" d="M673 592c5,0 4,0 6,-4 -3,-3 -1,-3 -6,-3 -2,5 -4,0 0,7z"/>
   <path class="fil0" d="M826 591l7 2c0,-6 0,-5 -3,-8 -4,1 -5,1 -5,6z"/>
   <path class="fil0" d="M466 247c0,0 0,4 7,0 0,-5 0,-4 -4,-6 -3,3 -3,1 -2,6z"/>
   <path class="fil0" d="M895 484c0,0 -2,4 1,5 0,0 1,0 1,0 9,1 1,1 4,-2l0 -4c-1,0 -1,-1 -2,-1 0,0 -1,-1 -1,-1 -4,0 -2,0 -4,1z"/>
   <path class="fil0" d="M694 523c3,-6 3,-1 0,-7 -9,0 -8,7 0,7z"/>
   <path class="fil0" d="M964 455c17,-1 0,-16 0,0z"/>
   <path class="fil0" d="M466 316c0,0 0,3 7,0 0,-5 1,-2 -3,-6 -4,2 -5,1 -4,6z"/>
   <path class="fil0" d="M109 8c3,-3 3,-1 3,-6 -7,-3 -1,-3 -7,0 0,5 0,4 4,6z"/>
   <path class="fil0" d="M311 362c1,17 17,1 0,0z"/>
   <path class="fil0" d="M723 558c8,1 6,2 7,-5l-7 -2 -1 7z"/>
   <path class="fil0" d="M198 362c-17,1 -1,16 0,0z"/>
   <path class="fil0" d="M121 228c4,4 0,3 6,3 2,-3 2,-3 0,-7 -4,0 -6,0 -6,4z"/>
   <path class="fil0" d="M244 231c4,0 3,0 6,-3 -2,-4 -1,-4 -6,-4 0,0 -4,1 0,7z"/>
   <path class="fil0" d="M109 77c4,-4 3,0 3,-6 -3,-2 -3,-2 -7,0 0,5 0,4 4,6z"/>
   <path class="fil0" d="M559 523c-2,-16 -17,0 0,0z"/>
   <path class="fil0" d="M295 86l-1 3c1,6 5,5 6,4 3,-4 0,-6 0,-6l-4 -1z"/>
   <path class="fil0" d="M588 585c-5,7 3,9 5,6 2,-5 -2,-5 -5,-6z"/>
   <path class="fil0" d="M399 438c4,-2 4,-1 4,-6 -6,-3 -1,-3 -7,0 0,5 -1,3 3,6z"/>
   <path class="fil0" d="M266 69c-16,1 -1,17 0,0z"/>
   <path class="fil0" d="M364 86c-4,7 2,9 4,7l1 -2c1,-9 1,-1 -2,-4l-4 -1z"/>
   <path class="fil0" d="M610 363c-7,-3 -1,-3 -7,0 0,8 7,8 7,0z"/>
   <path class="fil0" d="M488 300l1 -3c-1,-4 0,-2 -2,-4 -10,3 -6,8 1,7z"/>
   <path class="fil0" d="M620 588c2,4 1,4 6,4 3,-6 3,-1 0,-7 -3,0 -5,0 -6,3z"/>
   <path class="fil0" d="M40 25c4,-4 4,-4 0,-8 -7,3 -7,5 0,8z"/>
   <path class="fil0" d="M333 94c3,-6 3,0 0,-7 -9,0 -8,7 0,7z"/>
   <path class="fil0" d="M603 588c3,7 5,7 8,0 -2,-2 -1,-2 -4,-3 -2,0 -4,2 -4,3z"/>
   <path class="fil0" d="M450 155l-1 3c0,4 0,2 2,4 5,0 3,1 6,-3 -2,-5 -1,-5 -6,-4z"/>
   <path class="fil0" d="M627 455c-1,-16 -17,-1 0,0z"/>
   <path class="fil0" d="M627 430c-16,1 -1,17 0,0z"/>
   <path class="fil0" d="M381 231l6 -1c-1,-6 -1,-6 -6,-6 -1,2 -2,-2 -1,3 0,3 0,2 1,4z"/>
   <path class="fil0" d="M397 364c0,5 -1,2 3,6 4,-2 4,-1 4,-6 0,0 -1,-3 -7,0z"/>
   <path class="fil0" d="M534 384c6,3 0,3 7,0 0,-5 0,-3 -3,-6 -3,2 -5,1 -4,6z"/>
   <path class="fil0" d="M551 297c4,4 0,3 6,3l1 -3c0,-3 0,-2 -1,-4 -4,0 -5,0 -6,4z"/>
   <path class="fil0" d="M396 91c6,4 6,3 9,-2l-4 -4 -4 6z"/>
   <path class="fil0" d="M198 386c-1,-16 -16,-1 0,0z"/>
   <path class="fil0" d="M534 570c0,4 1,5 6,5l1 -6c-5,-2 -3,-3 -7,0z"/>
   <path class="fil0" d="M397 247c3,2 3,2 7,0 0,-5 1,-3 -2,-6 -4,2 -5,1 -4,6z"/>
   <path class="fil0" d="M470 438c3,-4 3,-1 3,-6 -3,-2 -3,-2 -7,0 0,5 0,4 4,6z"/>
   <path class="fil0" d="M473 364c-3,-2 -3,-2 -7,0 0,9 7,8 7,0z"/>
   <path class="fil0" d="M964 499c1,17 16,2 0,0z"/>
   <path class="fil0" d="M627 293c-17,1 -1,16 0,0z"/>
   <path class="fil0" d="M175 155c-4,5 -4,4 0,8 4,0 4,0 5,-4l-5 -3z"/>
   <path class="fil0" d="M482 230l5 1c1,-3 2,-3 0,-7 -5,0 -6,1 -6,6z"/>
   <path class="fil0" d="M465 297l4 4 4 -6c-5,-3 -8,-3 -9,2z"/>
   <path class="fil0" d="M173 89c1,4 1,3 5,5 3,-3 3,-1 3,-6 -2,-1 -6,-3 -7,1z"/>
   <path class="fil0" d="M327 159l5 4c5,-6 3,-6 -2,-9l-4 5z"/>
   <path class="fil0" d="M38 94c4,-1 3,-1 5,-5l-4 -4c-5,4 -4,5 0,8z"/>
   <path class="fil0" d="M688 590c4,4 6,4 8,-2 -3,-3 -7,-5 -8,2z"/>
   <path class="fil0" d="M551 228c3,3 1,3 6,3 2,-3 2,-3 0,-7 -4,0 -5,0 -6,4z"/>
   <path class="fil0" d="M900 438c3,-3 3,-1 2,-6 -6,-3 -1,-3 -7,0 0,5 0,4 4,6z"/>
   <path class="fil0" d="M104 228l4 4 4 -3 -3 -5c-3,1 -5,1 -5,5z"/>
   <path class="fil0" d="M329 300c4,0 4,-1 6,-3 -2,-4 -1,-4 -6,-4 -2,3 -2,4 0,7z"/>
   <path class="fil0" d="M559 386c-1,-16 -16,-1 0,0z"/>
   <path class="fil0" d="M539 438c3,-3 3,-1 3,-6 0,0 -1,-1 -1,-1 0,0 -1,-1 -1,-1 -3,0 -2,0 -4,1 0,5 0,4 4,6z"/>
   <path class="fil0" d="M72 155c-3,5 -2,5 0,7l4 0c1,-4 3,-2 0,-7l-4 0z"/>
   <path class="fil0" d="M396 519l3 5c4,-2 3,-1 5,-5l-4 -4 -4 4z"/>
   <path class="fil0" d="M335 317c0,-16 -16,-2 0,0z"/>
   <path class="fil0" d="M501 585c0,1 -1,1 -1,2 0,1 -1,1 -1,1 0,4 0,2 1,4l4 0c1,-4 3,-2 0,-7l-4 0z"/>
   <path class="fil0" d="M104 158c2,4 1,4 6,5l2 -3 -3 -5 -5 3z"/>
   <path class="fil0" d="M627 317c-1,-16 -16,-1 0,0z"/>
   <path class="fil0" d="M964 519c1,3 1,3 5,5 2,-2 2,-2 3,-6 -2,-1 -6,-3 -7,1z"/>
   <polygon class="fil0" points="431,196 438,196 438,190 433,189 "/>
   <path class="fil0" d="M534 297l4 4 4 -4 -3 -5c-3,1 -4,1 -5,5z"/>
   <path class="fil0" d="M534 228l4 3 4 -3 -3 -5c-3,1 -5,1 -5,5z"/>
   <path class="fil0" d="M465 519l3 5c4,-2 3,-1 5,-5l-4 -4 -3 4z"/>
   <path class="fil0" d="M364 155l-1 3c0,4 0,2 1,4l4 0c1,-4 3,-2 0,-7l-4 0z"/>
   <path class="fil0" d="M140 224c-3,5 -2,5 0,7l4 0c1,-4 3,-2 0,-7l-3 0z"/>
   <path class="fil0" d="M501 155c-2,4 -2,4 0,7l4 0c0,-1 1,-2 1,-2 0,0 2,-1 -1,-5l-4 0z"/>
   <path class="fil0" d="M757 588l2 5c5,-1 4,-1 6,-5 -2,-2 -6,-5 -8,0z"/>
   <path class="fil0" d="M465 228l5 4 3 -3c-2,-4 -1,-3 -5,-5l-3 4z"/>
   <path class="fil0" d="M36 123l0 4c1,0 1,0 2,1 1,2 5,-1 5,-1l0 -4c-4,-1 -2,-3 -7,0z"/>
   <path class="fil0" d="M895 449c1,4 1,4 5,6 4,-4 4,-3 0,-8l-5 2z"/>
   <path class="fil0" d="M227 224c-3,4 -2,4 0,7l4 0c0,-1 1,-2 1,-2 0,0 1,-1 1,-1 0,-4 0,-1 -2,-4l-3 -1z"/>
   <path class="fil0" d="M399 300l5 -3c-2,-4 -1,-4 -5,-5 -4,4 -4,3 0,8z"/>
   <path class="fil0" d="M397 123l0 4c4,1 2,3 7,0l0 -3c-1,0 -1,-1 -2,-1 0,0 -1,-1 -1,-1 -4,0 -2,0 -4,1z"/>
   <path class="fil0" d="M603 499c1,16 16,2 0,0z"/>
   <path class="fil0" d="M466 484l0 4c4,1 2,3 7,0l0 -4c-1,0 -1,-1 -2,-1 0,0 -1,-1 -1,-1 -4,0 -2,0 -4,1z"/>
   <path class="fil0" d="M466 553l0 4c4,1 2,3 7,0l0 -4c-4,-1 -2,-3 -7,0z"/>
   <path class="fil0" d="M397 329l-1 4c5,1 2,3 7,0l0 -3c-1,0 -1,-1 -2,-1 0,0 -1,-1 -1,-1 -4,0 -1,0 -4,2z"/>
   <path class="fil0" d="M588 224c-3,4 -2,4 0,7 5,1 7,-2 4,-6l-3 -1z"/>
   <path class="fil0" d="M534 519c2,4 1,4 5,5l4 -4 -4 -4 -5 3z"/>
   <path class="fil0" d="M433 155c-3,5 -1,5 0,7l4 0c0,-1 1,-2 1,-2 0,0 2,-1 -1,-5l-4 0z"/>
   <path class="fil0" d="M880 516c0,0 -1,1 -1,1l1 5c5,1 4,0 6,-4 -3,-4 -1,-3 -6,-3z"/>
   <path class="fil0" d="M466 415l0 4c4,1 2,3 7,0l1 -4c-4,-1 -3,-3 -7,0z"/>
   <path class="fil0" d="M502 224c-3,5 -2,5 0,7l4 0c2,-4 3,-2 0,-7l-4 0z"/>
   <path class="fil0" d="M539 369c4,-4 3,0 3,-6 -3,-2 -3,-2 -7,0 0,5 0,4 4,6z"/>
   <path class="fil0" d="M534 415l0 3c4,2 2,3 7,0l1 -4c-1,0 -2,-1 -2,-1 0,0 -1,-1 -1,0 -4,1 -2,0 -4,2z"/>
   <path class="fil0" d="M396 450l3 5c7,-3 6,-4 2,-8l-5 3z"/>
   <path class="fil0" d="M397 315c0,0 1,0 1,1l6 -1c0,-5 0,-4 -4,-6 -4,4 -4,0 -3,6z"/>
   <path class="fil0" d="M466 191l0 4c4,1 2,3 7,0l0 -4c-4,-1 -2,-3 -7,0z"/>
   <path class="fil0" d="M397 484l0 4c4,1 2,3 7,0l0 -3c-4,-2 -2,-3 -7,0z"/>
   <path class="fil0" d="M627 362c-16,1 -1,16 0,0z"/>
   <path class="fil0" d="M603 430c1,16 16,2 0,0z"/>
   <path class="fil0" d="M466 329l-1 4c1,0 1,0 2,1 0,0 1,1 1,1 4,0 2,0 4,-1l0 -4c-4,-1 -2,-3 -7,0z"/>
   <path class="fil0" d="M757 658l4 4 5 -3c-2,-4 -1,-3 -5,-5l-4 4z"/>
   <path class="fil0" d="M396 228l3 3 5 -3c-2,-4 -1,-4 -5,-5l-4 4z"/>
   <path class="fil0" d="M570 224c-3,5 -1,5 0,7l4 1c1,-4 3,-2 0,-7l-3 0z"/>
   <path class="fil0" d="M794 585c-3,4 -2,4 0,7l4 0c1,-4 3,-2 0,-7l-4 0z"/>
   <path class="fil0" d="M627 386c-1,-16 -16,-1 0,0z"/>
   <path class="fil0" d="M397 346l3 5c4,0 2,0 4,-2 0,-1 2,-2 0,-4 -5,-5 -6,0 -6,0z"/>
   <path class="fil0" d="M364 224c0,1 -1,1 -1,2 0,3 -2,1 1,5l4 0c1,-4 3,-2 0,-7l-4 0z"/>
   <path class="fil0" d="M419 231l0 -7c-9,-1 -8,8 0,7z"/>
   <path class="fil0" d="M725 585l-1 3c0,4 0,2 1,4 5,1 7,-2 3,-6l-3 -1z"/>
   <path class="fil0" d="M465 501c0,5 0,4 4,6l3 -5c-1,-1 -2,-2 -2,-1 0,1 -1,-1 -1,-1 -4,0 -2,0 -4,2z"/>
   <path class="fil0" d="M397 191l0 4c4,2 2,3 7,0l0 -4c-1,0 -1,-1 -2,-1 0,0 -1,-1 -1,-1 -4,0 -2,0 -4,2z"/>
   <path class="fil0" d="M465 158c2,4 1,3 5,5l3 -4 -3 -3 -5 3z"/>
   <path class="fil0" d="M827 621l0 4c4,1 2,3 7,0l0 -4c-1,0 -1,-1 -2,-1 0,0 -1,-1 -1,-1 -4,0 -2,0 -4,1z"/>
   <path class="fil0" d="M396 158l3 5 5 -3c-2,-4 -1,-4 -5,-5l-3 3z"/>
   <path class="fil0" d="M397 398l-1 4c4,1 2,3 7,0l0 -3c-4,-1 -2,-3 -7,0z"/>
   <path class="fil0" d="M433 224l-2 3c0,4 0,2 1,4l4 0c0,-1 1,-2 1,-2 0,0 2,-1 -1,-5l-3 0z"/>
   <path class="fil0" d="M140 87c-3,5 -1,7 3,7 2,-4 3,-2 0,-7l-4 0z"/>
   <path class="fil0" d="M72 86l-1 3c0,4 0,1 2,4l3 0c0,-1 1,-2 1,-2 0,0 1,-1 1,-1 0,-4 0,-2 -1,-4l-4 0z"/>
   <path class="fil0" d="M900 507l3 -6c-7,-3 -2,-3 -7,0 0,5 0,4 4,6z"/>
   <path class="fil0" d="M534 260l0 3c3,1 2,3 7,0l0 -4c-4,-1 -2,-3 -7,0z"/>
   <path class="fil0" d="M466 260l0 4c4,1 2,3 7,0l0 -4c-4,-1 -2,-3 -7,0z"/>
   <path class="fil0" d="M827 553l0 4c1,0 1,0 2,1 1,2 5,-1 5,-1l0 -4c-4,-1 -2,-3 -7,0z"/>
   <path class="fil0" d="M313 155c-2,4 -2,4 -1,8 5,0 4,0 6,-4l-5 -3z"/>
   <path class="fil0" d="M397 384c0,0 1,0 1,1l6 -1c0,-5 1,-3 -3,-6 -4,2 -5,1 -4,6z"/>
   <path class="fil0" d="M397 260l0 4c4,1 2,3 7,0l0 -4c-4,-1 -2,-3 -7,0z"/>
   <path class="fil0" d="M209 162l5 -2c0,-3 0,-2 -1,-4 0,0 -5,-2 -5,2 -1,9 -1,0 2,4z"/>
   <path class="fil0" d="M72 224c0,1 -1,1 -1,2 0,4 -1,2 1,5l4 0c0,-1 1,-2 1,-2 0,0 2,-1 -1,-5l-4 0z"/>
   <path class="fil0" d="M327 227l3 5 6 -5c-3,-3 -7,-6 -8,-1z"/>
   <polygon class="fil0" points="895,519 899,524 903,521 900,516 "/>
   <path class="fil0" d="M501 300l5 -3c-1,-4 0,-2 -2,-4 -1,0 -3,-1 -4,0l-1 2c-1,8 0,1 1,4z"/>
   <path class="fil0" d="M774 660l7 -2c-1,-4 0,-2 -2,-4 -5,-1 -5,0 -6,6z"/>
   <path class="fil0" d="M209 224c-3,5 -1,5 0,7l5 -3c0,-4 0,-2 -1,-4l-3 0z"/>
   <path class="fil0" d="M534 553l0 3c1,0 1,0 2,1 0,1 1,1 1,1 3,0 2,0 4,-1l-3 -5c-4,0 -2,0 -4,2z"/>
   <path class="fil0" d="M534 484l0 3c1,0 1,0 2,1 1,2 5,-1 5,-1l-2 -5c-4,1 -1,0 -4,2z"/>
   <path class="fil0" d="M896 553l3 5c4,0 2,0 4,-1l0 -4c-4,-1 -2,-3 -7,0z"/>
   <path class="fil0" d="M931 516c0,1 -1,1 -1,2l5 6c0,-1 1,-2 1,-2 0,0 1,-1 1,-1 0,-3 0,-2 -1,-4l-4 -1z"/>
   <polygon class="fil0" points="628,554 628,553 "/>
   <polygon class="fil0" points="173,125 173,126 "/>
   <polygon class="fil0" points="696,554 696,553 "/>
   <polygon class="fil0" points="603,554 603,556 "/>
   <polygon class="fil0" points="696,623 696,622 "/>
  </g>
 </g>
</svg>
