<?xml version="1.0" encoding="UTF-8"?>
<!DOCTYPE svg PUBLIC "-//W3C//DTD SVG 1.1//EN" "http://www.w3.org/Graphics/SVG/1.1/DTD/svg11.dtd">
<!-- Creator: CorelDRAW 2020 (64-Bit) -->
<svg xmlns="http://www.w3.org/2000/svg" xml:space="preserve" width="10708px" height="2874px" version="1.1" style="shape-rendering:geometricPrecision; text-rendering:geometricPrecision; image-rendering:optimizeQuality; fill-rule:evenodd; clip-rule:evenodd"
viewBox="0 0 8000 2147"
 xmlns:xlink="http://www.w3.org/1999/xlink"
 xmlns:xodm="http://www.corel.com/coreldraw/odm/2003">
 <defs>
  <style type="text/css">
   <![CDATA[
    .str0 {stroke:#A64C1F;stroke-width:2;stroke-miterlimit:22.9256}
    .fil0 {fill:#A64C1F}
    .fil1 {fill:#B85C2F}
    .fil2 {fill:darkorange}
   ]]>
  </style>
 </defs>
 <g id="Capa_x0020_1">
  <metadata id="CorelCorpID_0Corel-Layer"/>
  <g id="_3091734127760">
   <g>
    <polygon class="fil0 str0" points="7999,52 7423,8 7336,16 7214,37 7076,65 7017,73 6968,75 6920,60 6896,43 6231,46 6130,38 6022,47 5716,81 5496,55 4704,56 4518,80 4339,57 4233,42 4113,57 3999,57 3999,2146 7999,2146 "/>
    <path class="fil1" d="M3999 50c12,2 52,8 116,-2 77,-12 138,-21 196,-6 58,15 138,22 178,22 40,0 136,-4 188,-10 52,-6 153,-13 202,-13 49,0 142,6 216,6 74,0 162,0 250,1 89,1 129,-15 237,7 108,22 162,12 258,3 96,-9 233,-34 322,-30 89,4 136,6 230,6 93,0 194,-3 256,0 62,3 206,1 243,3 37,1 16,58 227,10 210,-47 282,-53 367,-43 86,10 354,31 375,30 18,-1 112,2 140,3l0 12 -137 -7 -91 -6 -138 -10 -138 -14c0,0 -21,-6 -43,-6 -22,0 -57,-1 -71,1 -14,2 -63,6 -78,9 -16,3 -100,20 -115,25 -14,5 -60,11 -74,14 -14,3 -71,17 -89,17 -18,0 -35,4 -61,0 -26,-4 -33,-4 -47,-11 -14,-7 -15,-15 -31,-16 -16,-1 -187,-2 -187,-2 0,0 -119,-6 -146,-4 -27,2 -142,1 -142,1l-146 1c0,0 -109,-7 -130,-6 -21,1 -94,3 -143,11 -49,8 -127,20 -147,20 -19,0 -93,11 -119,11 -26,0 -68,-3 -93,-5 -25,-2 -70,-14 -91,-15 -21,-1 -38,-6 -58,-6 -20,0 -81,1 -109,4 -28,3 -63,-5 -89,-2 -26,3 -192,-1 -192,-1 0,0 -108,-2 -131,-3 -23,-1 -46,-4 -76,-4 -30,0 -95,4 -122,8 -27,4 -112,15 -137,16 -25,0 -93,13 -139,6 -46,-7 -141,-15 -155,-18 -15,-3 -44,-17 -75,-14 -31,3 -52,0 -93,4 -41,3 -85,15 -97,14 -11,-1 -60,-2 -71,-3l0 -8z"/>
    <path class="fil2" d="M3999 54c14,2 54,7 114,-3 77,-12 138,-21 196,-6 58,15 138,22 178,22 40,0 136,-4 188,-10 52,-6 153,-13 202,-13 49,0 142,6 216,6 74,0 162,0 250,1 89,1 129,-15 237,7 108,22 162,12 258,3 96,-9 233,-34 322,-30 89,4 136,6 230,6 93,0 194,-3 256,0 62,3 206,1 243,3 37,1 16,58 227,10 210,-47 282,-53 367,-43 86,10 354,31 375,30 18,-1 117,2 142,3l0 12 -139 -7 -91 -6 -138 -10 -138 -14c0,0 -21,-6 -43,-6 -22,0 -57,-1 -71,1 -14,2 -63,6 -78,9 -16,3 -100,20 -115,25 -14,5 -60,11 -74,14 -14,3 -71,17 -89,17 -18,0 -35,4 -61,0 -26,-4 -33,-4 -47,-11 -14,-7 -15,-15 -31,-16 -16,-1 -187,-2 -187,-2 0,0 -119,-6 -146,-4 -27,2 -142,1 -142,1l-146 1c0,0 -109,-7 -130,-6 -21,1 -94,3 -143,11 -49,8 -127,20 -147,20 -19,0 -93,11 -119,11 -26,0 -68,-3 -93,-5 -25,-2 -70,-14 -91,-15 -21,-1 -38,-6 -58,-6 -20,0 -81,1 -109,4 -28,3 -63,-5 -89,-2 -26,3 -192,-1 -192,-1 0,0 -108,-2 -131,-3 -23,-1 -46,-4 -76,-4 -30,0 -95,4 -122,8 -27,4 -112,15 -137,16 -25,0 -93,13 -139,6 -46,-7 -141,-15 -155,-18 -15,-3 -44,-17 -75,-14 -31,3 -52,0 -93,4 -41,3 -85,15 -97,14 -10,-1 -54,-2 -68,-3l0 -8z"/>
    <path class="fil1" d="M3999 65c15,2 54,6 114,-3 77,-12 138,-21 196,-6 58,15 138,22 178,22 40,0 136,-4 188,-10 52,-6 153,-13 202,-13 49,0 142,6 216,6 74,0 162,0 250,1 89,1 129,-15 237,7 108,22 162,12 258,3 96,-9 233,-34 322,-30 89,4 136,6 230,6 93,0 194,-3 256,0 62,3 206,1 243,3 37,1 16,58 227,10 210,-47 282,-53 367,-43 86,10 354,31 375,30 18,-1 119,2 143,3l0 12 -139 -7 -91 -6 -138 -10 -138 -14c0,0 -21,-6 -43,-6 -22,0 -57,-1 -71,1 -14,2 -63,6 -78,9 -16,3 -100,20 -115,25 -14,5 -60,11 -74,14 -14,3 -71,17 -89,17 -18,0 -35,4 -61,0 -26,-4 -33,-4 -47,-11 -14,-7 -15,-15 -31,-16 -16,-1 -187,-2 -187,-2 0,0 -119,-6 -146,-4 -27,2 -142,1 -142,1l-146 1c0,0 -109,-7 -130,-6 -21,1 -94,3 -143,11 -49,8 -127,20 -147,20 -19,0 -93,11 -119,11 -26,0 -68,-3 -93,-5 -25,-2 -70,-14 -91,-15 -21,-1 -38,-6 -58,-6 -20,0 -81,1 -109,4 -28,3 -63,-5 -89,-2 -26,3 -192,-1 -192,-1 0,0 -108,-2 -131,-3 -23,-1 -46,-4 -76,-4 -30,0 -95,4 -122,8 -27,4 -112,15 -137,16 -25,0 -93,13 -139,6 -46,-7 -141,-15 -155,-18 -15,-3 -44,-17 -75,-14 -31,3 -52,0 -93,4 -41,3 -85,15 -97,14 -10,-1 -53,-2 -68,-3l0 -7z"/>
    <path class="fil2" d="M3999 62c14,2 54,7 114,-3 77,-12 138,-21 196,-6 58,15 138,22 178,22 40,0 136,-4 188,-10 52,-6 153,-13 202,-13 49,0 142,6 216,6 74,0 162,0 250,1 89,1 129,-15 237,7 108,22 162,12 258,3 96,-9 233,-34 322,-30 89,4 136,6 230,6 93,0 194,-3 256,0 62,3 206,1 243,3 37,1 16,58 227,10 210,-47 282,-53 367,-43 86,10 354,31 375,30 18,-1 117,2 142,3l0 12 -139 -7 -91 -6 -138 -10 -138 -14c0,0 -21,-6 -43,-6 -22,0 -57,-1 -71,1 -14,2 -63,6 -78,9 -16,3 -100,20 -115,25 -14,5 -60,11 -74,14 -14,3 -71,17 -89,17 -18,0 -35,4 -61,0 -26,-4 -33,-4 -47,-11 -14,-7 -15,-15 -31,-16 -16,-1 -187,-2 -187,-2 0,0 -119,-6 -146,-4 -27,2 -142,1 -142,1l-146 1c0,0 -109,-7 -130,-6 -21,1 -94,3 -143,11 -49,8 -127,20 -147,20 -19,0 -93,11 -119,11 -26,0 -68,-3 -93,-5 -25,-2 -70,-14 -91,-15 -21,-1 -38,-6 -58,-6 -20,0 -81,1 -109,4 -28,3 -63,-5 -89,-2 -26,3 -192,-1 -192,-1 0,0 -108,-2 -131,-3 -23,-1 -46,-4 -76,-4 -30,0 -95,4 -122,8 -27,4 -112,15 -137,16 -25,0 -93,13 -139,6 -46,-7 -141,-15 -155,-18 -15,-3 -44,-17 -75,-14 -31,3 -52,0 -93,4 -41,3 -85,15 -97,14 -10,-1 -54,-2 -68,-3l0 -8z"/>
    <path class="fil0" d="M3999 59c13,2 53,7 115,-2 77,-12 138,-21 196,-6 58,15 138,22 178,22 40,0 136,-4 188,-10 52,-6 153,-13 202,-13 49,0 142,6 216,6 74,0 162,0 250,1 89,1 129,-15 237,7 108,22 162,12 258,3 96,-9 233,-34 322,-30 89,4 136,6 230,6 93,0 194,-3 256,0 62,3 206,1 243,3 37,1 16,58 227,10 210,-47 282,-53 367,-43 86,10 354,31 375,30 18,-1 114,2 141,3l0 12 -137 -7 -91 -6 -138 -10 -138 -14c0,0 -21,-6 -43,-6 -22,0 -57,-1 -71,1 -14,2 -63,6 -78,9 -16,3 -100,20 -115,25 -14,5 -60,11 -74,14 -14,3 -71,17 -89,17 -18,0 -35,4 -61,0 -26,-4 -33,-4 -47,-11 -14,-7 -15,-15 -31,-16 -16,-1 -187,-2 -187,-2 0,0 -119,-6 -146,-4 -27,2 -142,1 -142,1l-146 1c0,0 -109,-7 -130,-6 -21,1 -94,3 -143,11 -49,8 -127,20 -147,20 -19,0 -93,11 -119,11 -26,0 -68,-3 -93,-5 -25,-2 -70,-14 -91,-15 -21,-1 -38,-6 -58,-6 -20,0 -81,1 -109,4 -28,3 -63,-5 -89,-2 -26,3 -192,-1 -192,-1 0,0 -108,-2 -131,-3 -23,-1 -46,-4 -76,-4 -30,0 -95,4 -122,8 -27,4 -112,15 -137,16 -25,0 -93,13 -139,6 -46,-7 -141,-15 -155,-18 -15,-3 -44,-17 -75,-14 -31,3 -52,0 -93,4 -41,3 -85,15 -97,14 -11,-1 -58,-2 -70,-3l0 -8z"/>
   </g>
   <g>
    <polygon class="fil0 str0" points="1,52 577,8 665,16 786,37 924,65 984,73 1033,75 1081,60 1104,43 1769,46 1870,38 1979,47 2285,81 2505,55 3296,56 3482,80 3662,57 3767,42 3888,57 4001,57 4001,2146 1,2146 "/>
    <path class="fil1" d="M4001 50c-12,2 -52,8 -116,-2 -77,-12 -138,-21 -196,-6 -58,15 -138,22 -178,22 -40,0 -136,-4 -188,-10 -52,-6 -153,-13 -202,-13 -49,0 -142,6 -216,6 -74,0 -162,0 -250,1 -89,1 -129,-15 -237,7 -108,22 -162,12 -258,3 -96,-9 -233,-34 -322,-30 -89,4 -136,6 -230,6 -93,0 -194,-3 -256,0 -62,3 -206,1 -243,3 -37,1 -16,58 -227,10 -210,-47 -282,-53 -367,-43 -86,10 -354,31 -375,30 -18,-1 -112,2 -140,3l0 12 137 -7 91 -6 138 -10 138 -14c0,0 21,-6 43,-6 22,0 57,-1 71,1 14,2 63,6 78,9 16,3 100,20 115,25 14,5 60,11 74,14 14,3 71,17 89,17 18,0 35,4 61,0 26,-4 33,-4 47,-11 14,-7 15,-15 31,-16 16,-1 187,-2 187,-2 0,0 119,-6 146,-4 27,2 142,1 142,1l146 1c0,0 109,-7 130,-6 21,1 94,3 143,11 49,8 127,20 147,20 19,0 93,11 119,11 26,0 68,-3 93,-5 25,-2 70,-14 91,-15 21,-1 38,-6 58,-6 20,0 81,1 109,4 28,3 63,-5 89,-2 26,3 192,-1 192,-1 0,0 108,-2 131,-3 23,-1 46,-4 76,-4 30,0 95,4 122,8 27,4 112,15 137,16 25,0 93,13 139,6 46,-7 141,-15 155,-18 15,-3 44,-17 75,-14 31,3 52,0 93,4 41,3 85,15 97,14 11,-1 60,-2 71,-3l0 -8z"/>
    <path class="fil2" d="M4001 54c-14,2 -54,7 -114,-3 -77,-12 -138,-21 -196,-6 -58,15 -138,22 -178,22 -40,0 -136,-4 -188,-10 -52,-6 -153,-13 -202,-13 -49,0 -142,6 -216,6 -74,0 -162,0 -250,1 -89,1 -129,-15 -237,7 -108,22 -162,12 -258,3 -96,-9 -233,-34 -322,-30 -89,4 -136,6 -230,6 -93,0 -194,-3 -256,0 -62,3 -206,1 -243,3 -37,1 -16,58 -227,10 -210,-47 -282,-53 -367,-43 -86,10 -354,31 -375,30 -18,-1 -117,2 -142,3l0 12 139 -7 91 -6 138 -10 138 -14c0,0 21,-6 43,-6 22,0 57,-1 71,1 14,2 63,6 78,9 16,3 100,20 115,25 14,5 60,11 74,14 14,3 71,17 89,17 18,0 35,4 61,0 26,-4 33,-4 47,-11 14,-7 15,-15 31,-16 16,-1 187,-2 187,-2 0,0 119,-6 146,-4 27,2 142,1 142,1l146 1c0,0 109,-7 130,-6 21,1 94,3 143,11 49,8 127,20 147,20 19,0 93,11 119,11 26,0 68,-3 93,-5 25,-2 70,-14 91,-15 21,-1 38,-6 58,-6 20,0 81,1 109,4 28,3 63,-5 89,-2 26,3 192,-1 192,-1 0,0 108,-2 131,-3 23,-1 46,-4 76,-4 30,0 95,4 122,8 27,4 112,15 137,16 25,0 93,13 139,6 46,-7 141,-15 155,-18 15,-3 44,-17 75,-14 31,3 52,0 93,4 41,3 85,15 97,14 10,-1 54,-2 68,-3l0 -8z"/>
    <path class="fil1" d="M4001 65c-15,2 -54,6 -114,-3 -77,-12 -138,-21 -196,-6 -58,15 -138,22 -178,22 -40,0 -136,-4 -188,-10 -52,-6 -153,-13 -202,-13 -49,0 -142,6 -216,6 -74,0 -162,0 -250,1 -89,1 -129,-15 -237,7 -108,22 -162,12 -258,3 -96,-9 -233,-34 -322,-30 -89,4 -136,6 -230,6 -93,0 -194,-3 -256,0 -62,3 -206,1 -243,3 -37,1 -16,58 -227,10 -210,-47 -282,-53 -367,-43 -86,10 -354,31 -375,30 -18,-1 -119,2 -143,3l0 12 139 -7 91 -6 138 -10 138 -14c0,0 21,-6 43,-6 22,0 57,-1 71,1 14,2 63,6 78,9 16,3 100,20 115,25 14,5 60,11 74,14 14,3 71,17 89,17 18,0 35,4 61,0 26,-4 33,-4 47,-11 14,-7 15,-15 31,-16 16,-1 187,-2 187,-2 0,0 119,-6 146,-4 27,2 142,1 142,1l146 1c0,0 109,-7 130,-6 21,1 94,3 143,11 49,8 127,20 147,20 19,0 93,11 119,11 26,0 68,-3 93,-5 25,-2 70,-14 91,-15 21,-1 38,-6 58,-6 20,0 81,1 109,4 28,3 63,-5 89,-2 26,3 192,-1 192,-1 0,0 108,-2 131,-3 23,-1 46,-4 76,-4 30,0 95,4 122,8 27,4 112,15 137,16 25,0 93,13 139,6 46,-7 141,-15 155,-18 15,-3 44,-17 75,-14 31,3 52,0 93,4 41,3 85,15 97,14 10,-1 53,-2 68,-3l0 -7z"/>
    <path class="fil2" d="M4001 62c-14,2 -54,7 -114,-3 -77,-12 -138,-21 -196,-6 -58,15 -138,22 -178,22 -40,0 -136,-4 -188,-10 -52,-6 -153,-13 -202,-13 -49,0 -142,6 -216,6 -74,0 -162,0 -250,1 -89,1 -129,-15 -237,7 -108,22 -162,12 -258,3 -96,-9 -233,-34 -322,-30 -89,4 -136,6 -230,6 -93,0 -194,-3 -256,0 -62,3 -206,1 -243,3 -37,1 -16,58 -227,10 -210,-47 -282,-53 -367,-43 -86,10 -354,31 -375,30 -18,-1 -117,2 -142,3l0 12 139 -7 91 -6 138 -10 138 -14c0,0 21,-6 43,-6 22,0 57,-1 71,1 14,2 63,6 78,9 16,3 100,20 115,25 14,5 60,11 74,14 14,3 71,17 89,17 18,0 35,4 61,0 26,-4 33,-4 47,-11 14,-7 15,-15 31,-16 16,-1 187,-2 187,-2 0,0 119,-6 146,-4 27,2 142,1 142,1l146 1c0,0 109,-7 130,-6 21,1 94,3 143,11 49,8 127,20 147,20 19,0 93,11 119,11 26,0 68,-3 93,-5 25,-2 70,-14 91,-15 21,-1 38,-6 58,-6 20,0 81,1 109,4 28,3 63,-5 89,-2 26,3 192,-1 192,-1 0,0 108,-2 131,-3 23,-1 46,-4 76,-4 30,0 95,4 122,8 27,4 112,15 137,16 25,0 93,13 139,6 46,-7 141,-15 155,-18 15,-3 44,-17 75,-14 31,3 52,0 93,4 41,3 85,15 97,14 10,-1 54,-2 68,-3l0 -8z"/>
    <path class="fil0" d="M4001 59c-13,2 -53,7 -115,-2 -77,-12 -138,-21 -196,-6 -58,15 -138,22 -178,22 -40,0 -136,-4 -188,-10 -52,-6 -153,-13 -202,-13 -49,0 -142,6 -216,6 -74,0 -162,0 -250,1 -89,1 -129,-15 -237,7 -108,22 -162,12 -258,3 -96,-9 -233,-34 -322,-30 -89,4 -136,6 -230,6 -93,0 -194,-3 -256,0 -62,3 -206,1 -243,3 -37,1 -16,58 -227,10 -210,-47 -282,-53 -367,-43 -86,10 -354,31 -375,30 -18,-1 -114,2 -141,3l0 12 137 -7 91 -6 138 -10 138 -14c0,0 21,-6 43,-6 22,0 57,-1 71,1 14,2 63,6 78,9 16,3 100,20 115,25 14,5 60,11 74,14 14,3 71,17 89,17 18,0 35,4 61,0 26,-4 33,-4 47,-11 14,-7 15,-15 31,-16 16,-1 187,-2 187,-2 0,0 119,-6 146,-4 27,2 142,1 142,1l146 1c0,0 109,-7 130,-6 21,1 94,3 143,11 49,8 127,20 147,20 19,0 93,11 119,11 26,0 68,-3 93,-5 25,-2 70,-14 91,-15 21,-1 38,-6 58,-6 20,0 81,1 109,4 28,3 63,-5 89,-2 26,3 192,-1 192,-1 0,0 108,-2 131,-3 23,-1 46,-4 76,-4 30,0 95,4 122,8 27,4 112,15 137,16 25,0 93,13 139,6 46,-7 141,-15 155,-18 15,-3 44,-17 75,-14 31,3 52,0 93,4 41,3 85,15 97,14 11,-1 58,-2 70,-3l0 -8z"/>
   </g>
  </g>
 </g>
</svg>
