<?xml version="1.0" encoding="UTF-8"?>
<!DOCTYPE svg PUBLIC "-//W3C//DTD SVG 1.1//EN" "http://www.w3.org/Graphics/SVG/1.1/DTD/svg11.dtd">
<!-- Creator: CorelDRAW 2020 (64-Bit) -->
<svg xmlns="http://www.w3.org/2000/svg" xml:space="preserve" width="86.7772mm" height="47.6185mm" version="1.1" style="shape-rendering:geometricPrecision; text-rendering:geometricPrecision; image-rendering:optimizeQuality; fill-rule:evenodd; clip-rule:evenodd"
viewBox="0 0 1052 577"
 xmlns:xlink="http://www.w3.org/1999/xlink"
 xmlns:xodm="http://www.corel.com/coreldraw/odm/2003">
 <defs>
  <style type="text/css">
   <![CDATA[
    .fil0 {fill:#121212}
   ]]>
  </style>
 </defs>
 <g id="Capa_x0020_1">
  <metadata id="CorelCorpID_0Corel-Layer"/>
  <g id="_3095931498400">
   <g>
    <path class="fil0" d="M267 417l8 0 0 52 -8 0 0 -52zm-25 0l22 0 0 52 -22 0 0 -52zm-10 0l8 0 0 52 -8 0 0 -53zm-165 0l8 0 0 52 -8 0 0 -52zm-25 0l22 0 0 52 -22 0 0 -53zm-2 0l0 52 -9 0c-1,-10 0,-21 0,-31 0,-24 -2,-23 8,-22zm117 41c2,-1 1,-1 2,1 -3,1 -2,0 -2,-1zm-61 -10l7 0c0,5 0,4 -2,7 -5,0 -6,-2 -5,-7zm107 0l8 0c0,5 -1,9 -7,6l-1 -6zm-1 -6c1,0 4,-1 5,-1 8,0 3,0 5,3 -1,2 3,4 -10,2l0 -5zm-108 3l0 -2c3,-3 2,-1 10,-1 0,7 0,5 -5,6 -5,0 -5,-1 -6,-2zm117 -4l-8 0c0,-11 8,-9 8,0zm-110 -7c2,2 2,2 2,7l-8 0c0,-5 0,-7 5,-7zm21 53c0,-17 0,-34 0,-52 0,-8 -2,-17 6,-19 4,-1 19,0 24,0 34,0 29,-13 29,71 -2,-1 -3,1 -3,-7 0,-14 2,-51 -1,-60 -7,-3 -15,-2 -23,-2l0 68c-3,-1 -1,1 -2,-2l0 -31c0,-11 0,-23 0,-35 -8,-1 -20,-1 -26,2 -2,8 -1,41 -1,53 0,15 1,13 -3,14zm71 -102l9 0 0 16 -9 0 0 -16zm-18 0l9 0 0 16 -9 0 0 -16zm-18 0l9 0 0 16 -9 0 0 -16zm-18 0l9 0 0 16 -9 0 0 -16zm-18 0l8 0 0 16 -9 0 0 -16zm-18 0l9 0 0 16 -9 0 0 -16zm99 -54c2,5 1,22 0,28l-23 0 0 -28 22 0zm-70 0l43 0 0 28 -43 0 0 -28zm-28 0l22 0 0 28 -23 0 0 -28zm46 -23c-5,-5 -4,-12 6,-11 4,4 3,6 1,10l-7 0zm-149 182c2,3 -1,2 4,3l295 0c1,0 4,0 4,0 4,-1 1,1 3,-3 -1,-3 0,-3 -9,-3 -3,-10 2,-82 -1,-95l-78 0 0 -75 -44 0 -21 -37 -23 37 -40 0c1,10 1,69 0,76l-79 0 0 95c-10,1 -8,-1 -9,3z"/>
    <path class="fil0" d="M128 315c1,-2 20,-38 25,-42 2,7 19,31 23,42l56 -1c-3,-13 -15,-41 -17,-50l-117 0c-4,1 -18,46 -20,51l50 0z"/>
    <path class="fil0" d="M23 348c-6,8 -19,35 -22,42l17 0 68 0 0 -42 -1 0 -63 0z"/>
    <path class="fil0" d="M221 390l85 0c-2,-7 -8,-17 -11,-22 -3,-5 -8,-14 -10,-20l-65 0 0 42z"/>
   </g>
   <g>
    <path class="fil0" d="M904 502c-3,1 -18,1 -21,1 -5,0 -1,0 -3,-1l0 -21 0 -18 22 1c3,1 1,14 1,17l0 22zm88 -38l24 0 0 39 -11 0c-1,-6 0,-18 0,-20 -1,-4 2,0 -2,-3 2,5 2,18 0,24l-11 0c-1,-5 0,-15 0,-20 0,-5 0,-12 0,-19zm24 -2l-23 0c0,-16 24,-15 23,0zm-112 0l-23 0c-1,-15 23,-17 23,0zm89 -41c-1,-2 -1,0 -1,-8l0 -28c0,-5 0,-1 1,-3l22 0c2,3 1,14 1,19 0,5 1,16 -1,20 -6,0 -9,1 -11,-1l0 -20c-1,-2 0,-3 -1,-1l0 22 -11 0zm-47 -1c-1,2 -8,1 -11,1 -2,-5 -1,-20 -1,-29 0,-4 0,-8 1,-10l23 0c2,3 1,37 0,39l-8 0c-4,-1 -1,0 -3,-1l0 -22c-1,-1 0,-1 -1,0l0 21zm-54 1c-4,0 -8,1 -11,-1l0 -38c5,-2 18,-1 24,-1l0 39 -12 0c0,-5 1,-20 -2,-24l0 24zm124 -41l-24 0c1,-17 24,-15 24,0zm-57 0l-24 0c0,-15 24,-16 24,0zm-55 0l-23 0c-1,-15 24,-17 23,0zm27 83l33 0 0 53c2,1 2,0 5,3l10 12 68 0 0 -5 -7 0 0 -168 -185 0 0 168 -5 0 -2 5 68 0c3,0 4,-3 6,-5 0,0 1,-1 1,-1l3 -4c0,0 0,0 0,-1 0,0 0,0 0,-1 3,-4 4,-3 5,-5l0 -52z"/>
    <path class="fil0" d="M985 341c2,-26 37,-27 40,0l-40 0zm-58 0c1,-27 38,-26 40,0l-40 0zm-55 0c1,-25 37,-28 40,0l-40 0zm-5 -57c-1,8 -21,58 -24,70l209 0c-1,-6 -22,-67 -24,-70l-161 0z"/>
    <polygon class="fil0" points="948,498 961,498 961,482 948,482 "/>
    <polygon class="fil0" points="933,498 946,498 946,482 933,482 "/>
    <polygon class="fil0" points="933,480 946,480 946,465 933,465 "/>
    <polygon class="fil0" points="948,515 961,515 961,500 948,500 "/>
    <polygon class="fil0" points="934,515 946,515 946,500 934,500 934,509 "/>
    <polygon class="fil0" points="949,480 961,480 960,465 949,465 "/>
    <path class="fil0" d="M996 334l17 0c-1,-5 -3,-8 -8,-8 -6,0 -8,4 -9,8z"/>
    <path class="fil0" d="M938 334l17 0c-1,-5 -3,-8 -8,-8 -7,0 -8,3 -9,8z"/>
    <path class="fil0" d="M901 334c-1,-5 -3,-8 -9,-8 -6,0 -8,3 -8,9l17 -1z"/>
   </g>
   <g>
    <path class="fil0" d="M502 563l-98 1c-3,-32 -1,-79 -1,-113 0,-63 -12,-65 49,-65 62,0 50,0 50,62 0,37 2,78 0,114zm220 -115l111 -1 0 52 -111 1 0 -52zm-48 -1l44 0 0 52 -44 0 0 -53zm-93 1l8 -1 18 0 9 0 0 9 0 35 0 9 -36 0 0 -52zm-40 -1l35 0 0 52 -36 1 0 -53zm-207 0l36 0 0 51 -36 1 0 -53zm-40 1l36 -1 0 53 -2 0 -33 0 0 -52zm286 -61l36 -1 0 56 -35 0 -1 -56zm-40 0l36 0 0 56 -34 0 -1 -56zm-247 1l36 -1 0 56 -35 0 -1 -55zm480 -1l58 0 0 56 -59 0 0 -56zm-101 9l0 -9 13 0 84 0 0 56 -97 0 0 -47zm-339 -9l36 0 0 55 -36 2 0 -57zm99 -24c0,-12 5,-15 13,-19l7 -4c11,5 19,11 20,23 -12,4 0,-4 -20,7 -12,-6 -4,-5 -20,-6zm46 -93l24 1 0 32 -23 0 0 -33zm-23 0l19 0 -1 33 -18 0 0 -33zm-23 0l19 0 -1 33 -19 0 0 -33zm-23 0l19 0 -1 33 -19 0 0 -33zm-23 0l19 0 0 33 -19 0 0 -33zm-23 0l19 0 -1 33 -18 0 0 -33zm-23 0l19 0 0 33 -19 0 0 -34zm-24 0l19 0 0 33 -19 -1 0 -32zm-21 0l17 0 -1 33 -16 -1 0 -32zm268 -7l33 0 -1 34 -32 0 0 -34zm-61 2c-37,4 -95,0 -134,0 -84,0 -73,8 -73,-29 0,-10 -1,-21 0,-31l207 1 -1 59zm60 -54l11 0 12 0 11 0 -1 34 -32 0 0 -10 0 -9 0 -14zm-46 -51c7,-12 14,-25 22,-38 3,2 21,32 22,38l-44 -1zm-178 1c2,-6 19,-36 22,-38 7,10 17,27 22,38l-44 0zm-8 416c79,0 514,3 545,-1 0,-20 0,-6 -12,-13l0 -239 -220 -1 0 -152 -49 0c-6,-10 -47,-88 -57,-95 -5,13 -19,35 -27,49 -9,16 -20,32 -27,46l-68 0c-11,-21 -48,-79 -54,-95l-17 25c-5,8 -8,15 -14,23 -9,15 -18,31 -27,47l-42 0 0 389c-5,14 -9,-9 -10,14l77 2z"/>
    <path class="fil0" d="M227 163l71 0c6,-16 21,-38 30,-53 5,-8 26,-47 32,-52 14,18 52,99 65,106l51 0c10,-12 55,-98 62,-106 5,4 58,97 61,106l78 0c-4,-20 -21,-62 -28,-83 -4,-13 -10,-28 -14,-41 -4,-11 -8,-34 -17,-40l-335 0c-10,20 -22,61 -28,81 -9,28 -20,55 -28,82z"/>
    <path class="fil0" d="M653 314l228 0c-1,-10 -48,-98 -57,-113l-171 1 0 113z"/>
    <polygon class="fil0" points="426,553 478,553 479,525 426,525 "/>
   </g>
  </g>
 </g>
</svg>
